SplineFontDB: 3.0
FontName: Fanwood
FullName: Fanwood
FamilyName: Fanwood
Weight: Regular
Copyright: Created by trashman with FontForge 2.0 (http://fontforge.sf.net)
UComments: "10pt on 11pt body: Scan 6400, cut 1000, scale 105%; print at 11pt to match original size." 
Version: 001.000
ItalicAngle: 0
UnderlinePosition: -100
UnderlineWidth: 50
Ascent: 690
Descent: 310
LayerCount: 3
Layer: 0 0 "Back"  1
Layer: 1 0 "Fore"  0
Layer: 2 0 "backup"  0
NeedsXUIDChange: 1
XUID: [1021 658 797806517 11107023]
OS2Version: 0
OS2_WeightWidthSlopeOnly: 0
OS2_UseTypoMetrics: 1
CreationTime: 1287776574
ModificationTime: 1291183987
OS2TypoAscent: 0
OS2TypoAOffset: 1
OS2TypoDescent: 0
OS2TypoDOffset: 1
OS2TypoLinegap: 0
OS2WinAscent: 0
OS2WinAOffset: 1
OS2WinDescent: 0
OS2WinDOffset: 1
HheadAscent: 0
HheadAOffset: 1
HheadDescent: 0
HheadDOffset: 1
OS2Vendor: 'PfEd'
Lookup: 3 0 0 "'aalt' Access All Alternates lookup 0"  {"'aalt' Access All Alternates lookup 0 subtable"  } ['aalt' ('DFLT' <'dflt' > ) ]
Lookup: 3 0 0 "'aalt' Access All Alternates in Latin lookup 0"  {"'aalt' Access All Alternates in Latin lookup 0 subtable"  } ['aalt' ('latn' <'CAT ' 'ROM ' 'MOL ' 'TRK ' 'AZE ' 'CRT ' 'dflt' > ) ]
Lookup: 1 0 0 "catalan"  {"catalan subtable"  } ['locl' ('latn' <'CAT ' > ) ]
Lookup: 1 0 0 "romanian"  {"romanian subtable"  } ['locl' ('latn' <'ROM ' 'MOL ' > ) ]
Lookup: 1 0 0 "turkish"  {"turkish subtable"  } ['locl' ('latn' <'TRK ' 'AZE ' 'CRT ' > ) ]
Lookup: 1 0 0 "lining_figures"  {"lining_figures subtable"  } ['case' ('latn' <'dflt' 'CAT ' 'ROM ' 'MOL ' 'TRK ' 'AZE ' 'CRT ' > 'DFLT' <'dflt' > ) 'lnum' ('latn' <'dflt' 'CAT ' 'ROM ' 'MOL ' 'TRK ' 'AZE ' 'CRT ' > 'DFLT' <'dflt' > ) ]
Lookup: 1 0 0 "'smcp' Lowercase to Small Capitals in Latin lookup 4"  {"'smcp' Lowercase to Small Capitals in Latin lookup 4 subtable"  } ['smcp' ('latn' <'dflt' 'CAT ' 'ROM ' 'MOL ' 'TRK ' 'AZE ' 'CRT ' > 'DFLT' <'dflt' > ) ]

StartChar: a
Encoding: 97 97 0
Width: 410
VWidth: 0
Flags: W
HStem: -17 51<118.716 202.149 288 347.63> 203 16<223.78 264.615> 374 25<140.02 226.721>
VStem: 33 70<48.0664 129.068> 47 68<281.193 331.887> 265 65<46.3447 202.997 217.332 346.728>
AnchorPoint: "top" 199 500 basechar 0
LayerCount: 3
Fore
SplineSet
346 34 m 0xec
 350 34 381 58 384 58 c 0
 388 58 397 49 397 43 c 0
 397 39 354 9 332 -6 c 0
 325 -11 316 -17 306 -17 c 0
 270 -17 268 39 266 39 c 0
 264 39 254 31 246 27 c 0
 226 15 173 -14 131 -14 c 0
 69 -14 33 20 33 71 c 0xf4
 33 160 158 202 257 219 c 0
 265 220 265 227 265 235 c 0
 265 305 264 374 178 374 c 0
 168 374 157 373 147 369 c 0
 119 357 116 342 115 302 c 0
 115 296 114 285 108 281 c 0
 92 269 59 253 55 253 c 0
 50 253 47 257 47 268 c 0
 47 350 134 399 199 399 c 0
 300 399 330 347 330 268 c 0
 330 217 324 86 324 64 c 0
 324 55 328 34 346 34 c 0xec
259 203 m 0
 256 203 226 197 197 188 c 0
 150 173 103 146 103 99 c 0
 103 67 126 30 168 30 c 0
 212 30 265 53 265 58 c 2
 265 192 l 2
 265 199 264 203 259 203 c 0
EndSplineSet
Layer: 2
SplineSet
346 34 m 0xec
 350 34 381 58 384 58 c 0
 388 58 397 49 397 43 c 0
 397 39 354 9 332 -6 c 0
 325 -11 316 -17 306 -17 c 0
 270 -17 268 39 266 39 c 0
 264 39 254 31 246 27 c 0
 226 15 173 -14 131 -14 c 0
 69 -14 33 20 33 71 c 0xf4
 33 160 158 202 257 219 c 0
 265 220 265 227 265 235 c 0
 265 305 264 374 178 374 c 0
 168 374 157 373 147 369 c 0
 119 357 116 342 115 302 c 0
 115 296 114 285 108 281 c 0
 92 269 59 253 55 253 c 0
 50 253 47 257 47 268 c 0
 47 350 134 399 199 399 c 0
 300 399 330 347 330 268 c 0
 330 217 324 86 324 64 c 0
 324 55 328 34 346 34 c 0xec
259 203 m 0
 256 203 226 196 197 188 c 0
 149 175 103 146 103 99 c 0
 103 67 126 30 168 30 c 0
 212 30 265 53 265 58 c 2
 265 192 l 2
 265 199 264 203 259 203 c 0
EndSplineSet
AlternateSubs2: "'aalt' Access All Alternates lookup 0 subtable" a.sc
AlternateSubs2: "'aalt' Access All Alternates in Latin lookup 0 subtable" a.sc
Substitution2: "'smcp' Lowercase to Small Capitals in Latin lookup 4 subtable" a.sc
EndChar

StartChar: b
Encoding: 98 98 1
Width: 473
VWidth: 0
Flags: HW
HStem: -13 27<169.885 291.386> 357 29<188.694 279.241> 633 27<0.384521 69.7051> 656 20G<144.5 150>
VStem: 79 69<25.7494 345.314 356.011 430.75> 378 72<97.1001 269.39>
AnchorPoint: "top" 124 780 basechar 0
LayerCount: 3
Fore
SplineSet
151 356 m 0xdc
 154 356 208 386 258 386 c 0
 371 386 450 297 450 188 c 0
 450 59 343 -13 229 -13 c 0
 193 -13 168 6 140 6 c 0
 120 6 102 -12 91 -12 c 0
 83 -12 79 -8 79 1 c 0
 79 7 84 130 84 197 c 0
 84 231 80 639 67 639 c 0
 63 639 10 633 6 633 c 0
 1 633 0 634 0 639 c 0
 0 645 1 660 5 660 c 0xec
 53 665 142 676 147 676 c 0
 153 676 153 667 153 661 c 2
 153 661 150 476 150 394 c 0
 150 371 150 356 151 356 c 0xdc
150 332 m 0
 150 231 148 97 148 64 c 0
 148 15 204 14 232 14 c 0
 326 14 378 98 378 187 c 0
 378 276 305 357 218 357 c 0
 184 357 150 337 150 332 c 0
EndSplineSet
AlternateSubs2: "'aalt' Access All Alternates lookup 0 subtable" b.sc
AlternateSubs2: "'aalt' Access All Alternates in Latin lookup 0 subtable" b.sc
Substitution2: "'smcp' Lowercase to Small Capitals in Latin lookup 4 subtable" b.sc
EndChar

StartChar: c
Encoding: 99 99 2
Width: 412
VWidth: 0
Flags: W
HStem: -10 44<163.687 308.666> 372 27<172.185 267.3>
VStem: 22 65<112.596 279.638> 304 57<275.553 339.516>
AnchorPoint: "cedilla" 218 -100 basechar 0
AnchorPoint: "top" 218 500 basechar 0
LayerCount: 3
Fore
SplineSet
87 202 m 0
 87 118 138 34 241 34 c 0
 310 34 354 64 362 64 c 0
 366 64 369 62 369 56 c 0
 369 50 310 -10 211 -10 c 0
 94 -10 22 64 22 177 c 0
 22 325 131 399 228 399 c 0
 293 399 361 354 361 303 c 0
 361 295 359 289 351 283 c 0
 342 276 330 270 321 270 c 0
 313 270 307 272 304 281 c 0
 288 326 285 372 222 372 c 0
 137 372 87 281 87 202 c 0
EndSplineSet
AlternateSubs2: "'aalt' Access All Alternates lookup 0 subtable" c.sc
AlternateSubs2: "'aalt' Access All Alternates in Latin lookup 0 subtable" c.sc
Substitution2: "'smcp' Lowercase to Small Capitals in Latin lookup 4 subtable" c.sc
EndChar

StartChar: d
Encoding: 100 100 3
Width: 494
VWidth: 0
Flags: HW
HStem: -23 21G<338 455> -13 37<170.095 280.487> -8 23.1111<405.244 467.855> 359 20<190.033 284.985> 634 28<256.389 325.82> 660 20G<391.5 398.5>
VStem: 24 73<93.3406 271.722> 336 62<15.2845 23.0682 38.6484 332.455 353.007 596.281>
AnchorPoint: "top" 356 780 basechar 0
AnchorPoint: "caron" 444 550 basechar 0
LayerCount: 3
Fore
SplineSet
24 181 m 0x53
 24 294 112 379 227 379 c 0
 287 379 328 353 330 353 c 0
 336 353 336 363 336 371 c 0
 336 472 329 643 326 643 c 0
 323 643 266 634 259 634 c 0
 253 634 253 635 255 649 c 0
 256 656 257 661 263 662 c 0x5b
 320 669 389 680 394 680 c 0
 403 680 404 678 404 657 c 0
 404 623 398 494 398 184 c 0
 398 152 399 100 400 64 c 0
 401.333333333 24 406.666666667 15.1111111111 423.111111111 15.1111111111 c 0
 431.333333333 15.1111111111 442.333333333 17.3333333333 457 19 c 0
 465 20 468 21 468 11 c 0
 468 -3 468 -6 455 -8 c 2x37
 340 -23 l 2x93
 336 -23 334 -19 334 -14 c 0
 334 -12 335 18 335 22 c 0
 335 32 334 35 320 26 c 0
 286 5 243 -13 200 -13 c 0
 111 -13 24 37 24 181 c 0x53
336 57 m 2
 336 307 l 2
 336 320 291 359 239 359 c 0
 151 359 97 277 97 188 c 0
 97 95 141 24 249 24 c 0
 275 24 336 39 336 57 c 2
EndSplineSet
AlternateSubs2: "'aalt' Access All Alternates lookup 0 subtable" d.sc
AlternateSubs2: "'aalt' Access All Alternates in Latin lookup 0 subtable" d.sc
Substitution2: "'smcp' Lowercase to Small Capitals in Latin lookup 4 subtable" d.sc
EndChar

StartChar: e
Encoding: 101 101 4
Width: 409
VWidth: 0
Flags: W
HStem: -15 44<171.692 305.055> 230 17<103.003 311.998> 374 22<177.635 259.908>
VStem: 28 75<97.7234 281.12> 312 69<233 323.805>
AnchorPoint: "top" 226 500 basechar 0
LayerCount: 3
Fore
SplineSet
220 374 m 0
 154 374 107 305 103 255 c 0
 103 249 107 247 115 247 c 0
 120 247 222 249 272 251 c 0
 309 252 312 253 312 255 c 0
 312 353 252 374 220 374 c 0
219 -15 m 0
 96 -15 28 65 28 182 c 0
 28 302 111 396 232 396 c 0
 331 396 381 321 381 237 c 0
 381 229 339 225 327 225 c 0
 316 225 111 230 103 230 c 0
 98 230 98 208 98 194 c 0
 98 87 172 29 247 29 c 0
 327 29 373 94 376 94 c 0
 379 94 392 82 392 79 c 0
 392 73 320 -15 219 -15 c 0
EndSplineSet
AlternateSubs2: "'aalt' Access All Alternates lookup 0 subtable" e.sc
AlternateSubs2: "'aalt' Access All Alternates in Latin lookup 0 subtable" e.sc
Substitution2: "'smcp' Lowercase to Small Capitals in Latin lookup 4 subtable" e.sc
EndChar

StartChar: f
Encoding: 102 102 5
Width: 324
VWidth: 0
Flags: HW
HStem: 0 25<33.006 87.6597 164.062 247.997> 347 25<39.0022 86.988 159.153 297.745> 656 22<190.555 242.46>
VStem: 88 71<25 345.947 372 600.595> 263 61<576.457 646.126>
AnchorPoint: "top" 216 780 basechar 0
LayerCount: 3
Fore
SplineSet
169 25 m 2
 235 25 l 2
 247 25 248 21 248 12 c 0
 248 3 248 -2 235 -2 c 0
 216 -2 158 0 129 0 c 0
 104 0 76 -2 46 -2 c 0
 33 -2 33 1 33 12 c 0
 33 21 35 25 45 25 c 2
 85 25 l 2
 88 25 89 55 89 88 c 0
 89 123 88 161 88 172 c 2
 88 232 l 2
 88 271 88 346 86 346 c 2
 53 346 l 2
 42 346 39 347 39 359 c 0
 39 371 41 372 50 372 c 2
 77 372 l 2
 86 372 87 373 87 384 c 0
 87 433 85 428 85 481 c 0
 85 585 124 678 241 678 c 0
 280 678 324 652 324 611 c 0
 324 588 290 564 276 564 c 0
 267 564 264 565 263 573 c 0
 257 618 253 656 216 656 c 0
 159 656 157 553 157 492 c 0
 157 449 156 432 155 389 c 0
 155 374 156 372 176 372 c 2
 292 372 l 2
 296 372 299 370 299 367 c 0
 299 362 295 347 291 347 c 2
 176 347 l 2
 161 347 159 345 159 335 c 2
 159 169 l 2
 159 97 161 25 169 25 c 2
EndSplineSet
Layer: 2
SplineSet
169 25 m 6xbc
 235 25 l 6
 247 25 248 21 248 12 c 4
 248 3 248 -2 235 -2 c 4
 216 -2 158 0 129 0 c 4
 104 0 76 -2 46 -2 c 4
 33 -2 33 1 33 12 c 4
 33 21 35 25 45 25 c 6
 85 25 l 6
 88 25 89 55 89 88 c 4
 89 123 88 161 88 172 c 6
 88 232 l 6
 88 271 88 313 86 313 c 6
 53 313 l 6
 42 313 39 314 39 326 c 4
 39 338 41 339 50 339 c 6
 77 339 l 6xdc
 86 339 87 340 87 351 c 4
 87 400 85 428 85 481 c 4
 85 585 124 678 241 678 c 4
 280 678 324 652 324 611 c 4
 324 588 290 564 276 564 c 4
 267 564 264 565 263 573 c 4
 257 618 253 656 216 656 c 4
 159 656 157 553 157 492 c 4
 157 449 156 405 155 362 c 4
 155 347 156 345 176 345 c 6
 292 345 l 6
 296 345 299 343 299 340 c 4
 299 335 295 320 291 320 c 6
 176 320 l 6
 161 320 159 318 159 308 c 6
 159 169 l 6
 159 97 161 25 169 25 c 6xbc
EndSplineSet
AlternateSubs2: "'aalt' Access All Alternates lookup 0 subtable" f.sc
AlternateSubs2: "'aalt' Access All Alternates in Latin lookup 0 subtable" f.sc
Substitution2: "'smcp' Lowercase to Small Capitals in Latin lookup 4 subtable" f.sc
EndChar

StartChar: g
Encoding: 103 103 6
Width: 467
VWidth: 0
Flags: HMW
HStem: -290 26<149.802 297.575> -51 51<94.3103 192.996> 370 25<178.116 271.03>
VStem: 33 45<-218.683 -119.213> 52 64<169.17 316.66> 66 27<0.253294 40.1268> 323 62<159.91 319.069> 381 57<-200.433 -107.036>
AnchorPoint: "top" 223 500 basechar 0
LayerCount: 3
Fore
SplineSet
438 -124 m 0xe5
 438 -226 347 -290 218 -290 c 0
 135 -290 33 -253 33 -173 c 0xf1
 33 -104 122 -68 170 -58 c 0
 180 -56 193 -53 193 -52 c 0
 193 -51 187 -51 172 -51 c 2
 115 -51 l 2
 98 -51 81 -45 75 -32 c 0
 67 -13 66 5 66 16 c 0xe4
 66 34 71 45 84 48 c 0
 109 54 128 59 160 68 c 0
 170 71 198 78 198 80 c 0
 198 81 189 82 179 85 c 0
 108 106 52 151 52 246 c 0
 52 334 139 395 228 395 c 0
 300 395 343 343 348 343 c 0
 354 343 394 361 425 363 c 0
 428 363 434 347 434 335 c 0
 434 331 433 329 431 329 c 0
 419 328 372 319 372 315 c 0
 372 309 385 287 385 243 c 0xea
 385 158 341 118 270 91 c 0
 224 73 164 58 97 39 c 0
 94 38 93 34 93 30 c 0
 93 18 103 1 107 0 c 0
 234 -8 438 5 438 -124 c 0xe5
217 -264 m 0
 292 -264 381 -236 381 -148 c 0
 381 -90 280 -68 207 -68 c 0
 159 -68 78 -100 78 -166 c 0
 78 -232 157 -264 217 -264 c 0
223 370 m 0
 166 370 116 316 116 250 c 0
 116 152 200 95 225 95 c 0
 265 95 323 154 323 244 c 0xea
 323 323 284 370 223 370 c 0
EndSplineSet
Layer: 2
SplineSet
438 -124 m 4xf280
 438 -226 347 -290 218 -290 c 4
 135 -290 33 -253 33 -173 c 4xf880
 33 -110 110 -75 152 -63 c 4
 158 -61 190 -53 190 -52 c 4
 190 -51 182 -51 172 -51 c 6
 115 -51 l 6
 98 -51 81 -45 75 -32 c 4
 66.6666666667 -12.8333333333 65.9722222222 5.63888888889 65.9722222222 16.4722222222 c 4
 65.9722222222 34 71.2940157718 45.4588031544 84 48 c 4xf8
 109 54 128 59 160 68 c 4
 170 71 198 78 198 80 c 4
 198 82 170 90 160 93 c 4
 107 108 52 158 52 246 c 4
 52 334 139 395 228 395 c 4
 300 395 343 343 348 343 c 4
 354 343 394 361 425 363 c 4
 428 363 434 347 434 335 c 4
 434 331 433 329 431 329 c 4
 419 328 372 319 372 315 c 4
 372 309 385 287 385 243 c 4xf5
 385 158 341 118 270 91 c 4
 224 73 164 58 97 39 c 4
 94 38 93 34 93 30 c 4
 93 18 103 1 107 0 c 4
 234 -8 438 5 438 -124 c 4xf280
217 -264 m 4
 292 -264 381 -236 381 -148 c 4
 381 -90 280 -68 207 -68 c 4
 159 -68 78 -100 78 -166 c 4
 78 -232 157 -264 217 -264 c 4
223 370 m 4
 166 370 116 316 116 250 c 4
 116 152 200 95 225 95 c 4
 265 95 323 154 323 244 c 4xf5
 323 323 284 370 223 370 c 4
EndSplineSet
AlternateSubs2: "'aalt' Access All Alternates lookup 0 subtable" g.sc
AlternateSubs2: "'aalt' Access All Alternates in Latin lookup 0 subtable" g.sc
Substitution2: "'smcp' Lowercase to Small Capitals in Latin lookup 4 subtable" g.sc
EndChar

StartChar: h
Encoding: 104 104 7
Width: 509
VWidth: 0
Flags: W
HStem: -2 27<27.0015 87.9869 160.264 221.999 294.002 357.094 427 477.997> 344 41<213.011 318.27> 629 28<10.0649 74.8224> 655 20G<158 164>
VStem: 81 85<407.343 635.997> 89 69<25 325.829 349.916 497.883> 359 68<25 300.413>
AnchorPoint: "top" 129 780 basechar 0
LayerCount: 3
Fore
SplineSet
88 43 m 0xd6
 89 137 89 191 89 263 c 0xd6
 89 381 85 542 81 619 c 0
 80 632 81 636 75 636 c 0
 72 636 18 629 14 629 c 0
 10 629 10 635 10 640 c 0
 10 648 11 656 15 657 c 0xea
 61 663 155 675 161 675 c 0
 167 675 166 665 166 655 c 0xda
 162 572 158 442 158 354 c 0
 158 337 159 339 169 345 c 0
 200 362 260 385 302 385 c 0
 414 385 427 288 427 180 c 2
 427 37 l 2
 427 26 428 25 438 25 c 2
 464 25 l 2
 476 25 478 21 478 12 c 0
 478 3 477 -2 464 -2 c 0
 445 -2 422 0 393 0 c 0
 368 0 337 -2 307 -2 c 0
 294 -2 294 1 294 12 c 0
 294 21 297 25 307 25 c 2
 346 25 l 2
 356 25 356 25 357 36 c 0
 358 56 359 106 359 212 c 0
 359 284 331 344 263 344 c 0
 223 344 194 333 174 323 c 0
 160 316 158 312 158 308 c 2
 159 158 l 2
 159 117 159 69 160 43 c 0
 161 25 161 25 171 25 c 2
 209 25 l 2
 221 25 222 21 222 12 c 0
 222 3 222 -2 209 -2 c 0
 190 -2 155 0 126 0 c 0
 101 0 70 -2 40 -2 c 0
 27 -2 27 1 27 12 c 0
 27 21 29 25 39 25 c 2
 78 25 l 2
 88 25 88 28 88 43 c 0xd6
EndSplineSet
AlternateSubs2: "'aalt' Access All Alternates lookup 0 subtable" h.sc
AlternateSubs2: "'aalt' Access All Alternates in Latin lookup 0 subtable" h.sc
Substitution2: "'smcp' Lowercase to Small Capitals in Latin lookup 4 subtable" h.sc
EndChar

StartChar: i
Encoding: 105 105 8
Width: 252
VWidth: 0
Flags: W
HStem: -2 27<27.0008 93.0461 165 221.999> 355 23<25.4111 89.5645> 512 96<87.6562 163.209>
VStem: 75 102<526.348 594> 94 68<25 354.999>
LayerCount: 3
Fore
SplineSet
93 37 m 0xe8
 94 66 94 95 94 125 c 0
 94 195 93 266 90 339 c 0
 89 354 87 355 77 355 c 0
 74 355 31 353 27 353 c 0
 24 353 23 354 23 357 c 0
 23 360 23 362 27 370 c 0
 31 378 30 377 42 378 c 0
 61 379 150 383 155 383 c 0
 161 383 162 382 162 377 c 2
 162 207 l 2
 162 150 162 94 165 37 c 0
 165 28 165 25 175 25 c 2
 211 25 l 2
 221 25 222 21 222 12 c 0
 222 3 222 -2 211 -2 c 0
 192 -2 152 0 127 0 c 0
 102 0 57 -2 38 -2 c 0
 27 -2 27 1 27 12 c 0
 27 21 28 25 41 25 c 2
 82 25 l 2
 93 25 93 27 93 37 c 0xe8
177 568 m 0xf0
 177 534 144 512 116 512 c 0
 95 512 75 525 75 553 c 0
 75 589 111 608 135 608 c 0
 156 608 177 597 177 568 c 0xf0
EndSplineSet
AlternateSubs2: "'aalt' Access All Alternates lookup 0 subtable" i.sc
AlternateSubs2: "'aalt' Access All Alternates in Latin lookup 0 subtable" i.sc i.TRK
Substitution2: "'smcp' Lowercase to Small Capitals in Latin lookup 4 subtable" i.sc
Substitution2: "turkish subtable" i.TRK
EndChar

StartChar: j
Encoding: 106 106 9
Width: 268
VWidth: 0
Flags: W
HStem: -275 73<-0.427219 74.476> 348 25<30.798 109.852> 539 96<74.6562 150.209>
VStem: 62 102<553.348 621> 112 72<24.8396 347.999> 121 63<-181 201.017>
LayerCount: 3
Fore
SplineSet
164 595 m 0xf0
 164 561 131 539 103 539 c 0
 82 539 62 552 62 580 c 0
 62 616 98 635 122 635 c 0
 143 635 164 624 164 595 c 0xf0
28 -202 m 0
 49 -202 73 -206 83 -206 c 0
 111 -206 121 -189 121 -173 c 0xe4
 121 -134 112 -41 112 258 c 0
 112 282 112 307 110 334 c 0
 109 346 107 348 101 348 c 0
 94 348 40 345 31 345 c 0
 28 345 28 346 28 349 c 0
 28 352 30 359 32 364 c 0
 35 372 33 373 47 373 c 0
 98 374 167 378 172 378 c 0
 179 378 179 370 179 355 c 0
 180 266 184 155 184 27 c 0xe8
 184 -80 177 -155 130 -216 c 0
 112 -239 35 -275 6 -275 c 0
 -7 -275 -13 -266 -13 -255 c 0
 -13 -233 13 -202 28 -202 c 0
EndSplineSet
AlternateSubs2: "'aalt' Access All Alternates lookup 0 subtable" j.sc
AlternateSubs2: "'aalt' Access All Alternates in Latin lookup 0 subtable" j.sc
Substitution2: "'smcp' Lowercase to Small Capitals in Latin lookup 4 subtable" j.sc
EndChar

StartChar: k
Encoding: 107 107 10
Width: 476
VWidth: 0
Flags: W
HStem: -2 27<34.0015 96.9869 161.033 207.999 290.001 313 406.003 450.999> 193 16<161.245 200.383> 360 27<264.003 303.733 347.694 405.994> 644 28<22.9942 90.5664> 661 20G<162 168.5>
VStem: 97 64<25 193 209 460.727>
DStem2: 255 213 208 176 0.653282 -0.757115<-19.0743 177.87>
AnchorPoint: "cedilla" 240 -100 basechar 0
LayerCount: 3
Fore
SplineSet
307 344 m 0xec
 314 356 317 360 297 360 c 2
 277 360 l 2
 265 360 264 364 264 373 c 0
 264 382 265 387 278 387 c 0
 288 387 315 385 336 385 c 0
 355 385 378 387 393 387 c 0
 403 387 406 384 406 373 c 0
 406 364 404 360 394 360 c 2
 362 360 l 2
 354 360 273 260 255 237 c 0
 243 222 243 227 255 213 c 2
 406 38 l 2
 416 26 419 25 428 25 c 2
 438 25 l 2
 450 25 451 21 451 12 c 0
 451 3 451 -2 438 -2 c 0
 424 -2 396 0 371 0 c 0
 346 0 317 -2 303 -2 c 0
 290 -2 290 1 290 12 c 0
 290 21 292 25 302 25 c 2
 313 25 l 2
 328 25 323 34 318 40 c 2
 208 176 l 2
 196 191 196 193 186 193 c 2
 172 193 l 2
 161 193 161 189 161 177 c 2
 161 43 l 2
 161 25 162 25 172 25 c 2
 195 25 l 2
 207 25 208 21 208 12 c 0
 208 3 208 -2 195 -2 c 0
 176 -2 156 0 127 0 c 0
 94 0 58 -2 47 -2 c 0
 34 -2 34 1 34 12 c 0
 34 21 36 25 46 25 c 2
 87 25 l 2
 97 25 97 28 97 43 c 2
 97 236 l 2
 97 435 97 644 88 644 c 0
 82 644 42 641 32 641 c 0
 23 641 22 642 22 649 c 2
 22 658 l 2
 22 666 23 671 34 672 c 0xf4
 72 675 159 681 165 681 c 0
 172 681 172 680 172 668 c 2
 161 220 l 2
 161 210 162 209 177 209 c 2
 199 209 l 2
 214 209 221 222 228 231 c 0
 256 268 284 306 307 344 c 0xec
EndSplineSet
AlternateSubs2: "'aalt' Access All Alternates lookup 0 subtable" k.sc
AlternateSubs2: "'aalt' Access All Alternates in Latin lookup 0 subtable" k.sc
Substitution2: "'smcp' Lowercase to Small Capitals in Latin lookup 4 subtable" k.sc
EndChar

StartChar: z
Encoding: 122 122 11
Width: 390
VWidth: 0
Flags: W
HStem: 0 27<124.003 328.395> 361 28<65.2362 259.996>
VStem: 25 29<290.033 330> 260 92<348.293 383> 329 33<31 102> 336 26<44 113.999>
DStem2: 34 30 133 55 0.561951 0.827171<56.5629 402.327>
AnchorPoint: "top" 189 500 basechar 0
LayerCount: 3
Fore
SplineSet
34 376 m 4xf0
 35 388 36 389 48 389 c 6
 329 389 l 6xe8
 345 389 352 386 352 380 c 4xf0
 352 376 348 373 343 365 c 6
 133 55 l 6
 129 49 124 42 124 37 c 4
 124 33 128 27 139 27 c 6
 313 31 l 6
 327 31 327 31 329 44 c 6xe8
 336 102 l 6
 338 115 338 114 353 114 c 4
 361 114 362 112 362 108 c 4xe4
 362 101 359 44 357 15 c 4
 356 1 356 0 341 0 c 6
 46 0 l 6
 32 0 24 0 24 10 c 4
 24 15 28 22 34 30 c 6
 248 345 l 6
 253 353 260 360 260 363 c 4
 260 365 255 366 246 366 c 6
 91 361 l 6
 69 360 68 360 64 342 c 6
 54 302 l 6
 52 295 52 290 41 290 c 4
 32 290 25 292 25 296 c 4
 25 299 31 350 34 376 c 4xf0
EndSplineSet
AlternateSubs2: "'aalt' Access All Alternates lookup 0 subtable" z.sc
AlternateSubs2: "'aalt' Access All Alternates in Latin lookup 0 subtable" z.sc
Substitution2: "'smcp' Lowercase to Small Capitals in Latin lookup 4 subtable" z.sc
EndChar

StartChar: l
Encoding: 108 108 12
Width: 243
VWidth: 0
Flags: HW
HStem: -2 27<18.0015 84.6095 156.744 215.999> 642 27<9.27208 72.448> 658 20G<140 146.5>
VStem: 75 75<395.583 645.998> 86 70<25 343.017>
AnchorPoint: "cedilla" 125 -100 basechar 0
AnchorPoint: "caron" 190 550 basechar 0
AnchorPoint: "top" 104 780 basechar 0
AnchorPoint: "l;bl" 0 10 basechar 0
AnchorPoint: "l;x" 0 380 basechar 0
AnchorPoint: "l;hi" 0 650 basechar 0
AnchorPoint: "l;o" 0 200 basechar 0
AnchorPoint: "r;bl" 243 10 basechar 0
AnchorPoint: "r;x" 243 380 basechar 0
AnchorPoint: "r;hi" 243 650 basechar 0
AnchorPoint: "r;o" 243 200 basechar 0
LayerCount: 3
Fore
SplineSet
156 64 m 0xa8
 156 41 156 25 164 25 c 2
 203 25 l 2
 215 25 216 21 216 12 c 0
 216 3 216 -2 203 -2 c 0
 184 -2 153 0 124 0 c 0
 99 0 61 -2 31 -2 c 0
 18 -2 18 1 18 12 c 0
 18 21 20 25 30 25 c 2
 82 25 l 2
 86 25 86 85 86 110 c 0xa8
 86 159 83 538 75 627 c 0
 73 644 74 646 64 646 c 0
 59 646 20 642 16 642 c 0
 9 642 8 642 8 645 c 0
 8 648 9 654 10 661 c 0
 12 669 11 668 20 669 c 0xd0
 60 672 137 678 143 678 c 0
 150 678 150 675 150 663 c 0xb0
 151 356 156 265 156 64 c 0xa8
EndSplineSet
AlternateSubs2: "'aalt' Access All Alternates lookup 0 subtable" l.sc
AlternateSubs2: "'aalt' Access All Alternates in Latin lookup 0 subtable" l.sc l.CAT
Substitution2: "'smcp' Lowercase to Small Capitals in Latin lookup 4 subtable" l.sc
Substitution2: "catalan subtable" l.CAT
EndChar

StartChar: m
Encoding: 109 109 13
Width: 735
VWidth: 0
Flags: HMW
HStem: -2 27<25.0032 85.239 157.882 210.997 283.001 338.282 407.309 457.997 523.004 581.889 655.001 710.997> 344 44<222.018 320.111 452.029 555.497>
VStem: 90 67<25 320.752> 341 66<25 323.166> 587 70<25 311.543>
AnchorPoint: "top" 378 500 basechar 0
LayerCount: 3
Fore
SplineSet
156 342 m 2
 156 322 157 326 166 333 c 0
 196 354 250 388 307 388 c 0
 383 388 392 337 395 337 c 0
 397 337 401 339 408 344 c 0
 439 364 495 386 533 386 c 0
 630 386 657 326 657 240 c 0
 657 156 655 83 655 35 c 0
 655 28 657 25 665 25 c 2
 697 25 l 2
 709 25 711 21 711 12 c 0
 711 3 710 -2 697 -2 c 0
 678 -2 650 0 621 0 c 0
 596 0 566 -2 536 -2 c 0
 523 -2 523 1 523 12 c 0
 523 21 528 25 538 25 c 2
 578 25 l 2
 587 25 587 169 587 216 c 0
 587 283 571 344 498 344 c 0
 447 344 401 317 401 314 c 0
 401 306 407 296 407 236 c 2
 407 66 l 2
 407 42 407 25 410 25 c 2
 444 25 l 2
 456 25 458 21 458 12 c 0
 458 3 457 -2 444 -2 c 0
 425 -2 400 0 371 0 c 0
 346 0 328 -2 298 -2 c 0
 285 -2 283 1 283 12 c 0
 283 21 285 25 295 25 c 2
 334 25 l 2
 340 25 341 74 341 122 c 0
 341 166 340 209 340 216 c 0
 340 284 337 344 268 344 c 0
 218 344 184 326 168 314 c 0
 158 306 157 302 157 296 c 2
 157 68 l 2
 157 29 157 25 176 25 c 2
 197 25 l 2
 209 25 211 21 211 12 c 0
 211 3 210 -2 197 -2 c 0
 178 -2 146 0 121 0 c 0
 96 0 53 -2 37 -2 c 0
 29 -2 25 0 25 11 c 0
 25 20 26 25 36 25 c 2
 75 25 l 2
 84 25 86 38 88 57 c 0
 90 77 90 118 90 163 c 2
 90 272 l 2
 90 313 88 350 86 350 c 0
 83 350 32 347 27 347 c 0
 23 347 22 348 22 350 c 0
 22 352 24 362 26 368 c 0
 29 376 27 375 41 376 c 0
 82 378 136 381 141 381 c 0
 156 381 156 380 156 370 c 2
 156 342 l 2
EndSplineSet
AlternateSubs2: "'aalt' Access All Alternates lookup 0 subtable" m.sc
AlternateSubs2: "'aalt' Access All Alternates in Latin lookup 0 subtable" m.sc
Substitution2: "'smcp' Lowercase to Small Capitals in Latin lookup 4 subtable" m.sc
EndChar

StartChar: n
Encoding: 110 110 14
Width: 501
VWidth: 0
Flags: W
HStem: -2 27<22.0015 82.7266 155.036 216.999 294.003 355.187 425.001 479.999> 342 42<217.101 323.884> 346 28<18.7455 86.1817>
VStem: 86 68<25 314.96 328 350.001> 359 71<25 306.07>
AnchorPoint: "cedilla" 255 -100 basechar 0
AnchorPoint: "top" 263 500 basechar 0
LayerCount: 3
Fore
SplineSet
86 336 m 0xd8
 85 351 84 350 74 350 c 0
 71 350 23 346 19 346 c 0
 16 346 16 347 16 350 c 0
 16 353 19 361 21 366 c 0
 24 374 22 373 36 374 c 0xb8
 50 375 113 379 141 381 c 0
 156 382 154 380 154 370 c 2
 154 328 l 2
 154 319 164 330 169 333 c 0
 199 352 236 384 297 384 c 0
 413 384 430 305 430 207 c 0
 430 152 425 52 425 37 c 0
 425 26 426 25 436 25 c 2
 466 25 l 2
 478 25 480 24 480 12 c 0
 480 3 480 -2 468 -2 c 0
 449 -2 422 0 393 0 c 0
 368 0 338 -2 308 -2 c 0
 294 -2 294 0 294 11 c 0
 294 23 297 25 307 25 c 2
 344 25 l 2
 354 25 354 25 355 36 c 0
 357 60 359 106 359 212 c 0
 359 284 340 342 263 342 c 0
 223 342 194 324 174 314 c 0
 158 306 156 300 156 291 c 0
 156 209 155 126 155 44 c 0
 155 28 155 25 168 25 c 2
 204 25 l 2
 216 25 217 21 217 12 c 0
 217 3 217 -2 204 -2 c 0
 185 -2 152 0 123 0 c 0
 98 0 65 -2 35 -2 c 0
 22 -2 22 1 22 12 c 0
 22 21 24 25 34 25 c 2
 73 25 l 2
 83 25 82 28 83 43 c 0
 86 102 88 173 88 237 c 0
 88 271 88 305 86 336 c 0xd8
EndSplineSet
AlternateSubs2: "'aalt' Access All Alternates lookup 0 subtable" n.sc
AlternateSubs2: "'aalt' Access All Alternates in Latin lookup 0 subtable" n.sc
Substitution2: "'smcp' Lowercase to Small Capitals in Latin lookup 4 subtable" n.sc
EndChar

StartChar: o
Encoding: 111 111 15
Width: 451
VWidth: 0
Flags: W
HStem: -15 26<169.668 268.596> 370 26<169.398 269.376>
VStem: 29 71<92.766 280.533> 342 73<92.5947 293.02>
AnchorPoint: "top" 229 500 basechar 0
LayerCount: 3
Fore
SplineSet
222 370 m 0
 128 370 100 279 100 169 c 0
 100 94 140 11 218 11 c 0
 318 11 342 114 342 204 c 0
 342 282 306 370 222 370 c 0
234 396 m 0
 343 396 415 307 415 197 c 0
 415 74 342 -15 218 -15 c 0
 111 -15 29 74 29 183 c 0
 29 301 111 396 234 396 c 0
EndSplineSet
AlternateSubs2: "'aalt' Access All Alternates lookup 0 subtable" o.sc
AlternateSubs2: "'aalt' Access All Alternates in Latin lookup 0 subtable" o.sc
Substitution2: "'smcp' Lowercase to Small Capitals in Latin lookup 4 subtable" o.sc
EndChar

StartChar: p
Encoding: 112 112 16
Width: 499
VWidth: 0
Flags: HW
HStem: -279 25<28.006 96.6536 169.637 256.997> -9 19<203.549 297.938> 348 35<219.588 322.972> 349 25<14.3895 90.858>
VStem: 91 74<57.9441 328.445 332.002 349> 98 67<-254 2.78003 27.3368 328.445 332.002 333.085> 392 72<104.791 280.881>
AnchorPoint: "top" 267 500 basechar 0
LayerCount: 3
Fore
SplineSet
262 348 m 0xe6
 234 348 213 342 198 335 c 0
 166 319 165 306 165 302 c 2xea
 165 52 l 2
 165 28 221 10 252 10 c 0
 346 10 392 107 392 187 c 0
 392 285 336 348 262 348 c 0xe6
174 -254 m 2
 244 -254 l 2
 256 -254 257 -258 257 -267 c 0
 257 -276 257 -281 244 -281 c 0
 225 -281 167 -279 138 -279 c 0
 113 -279 71 -281 41 -281 c 0
 28 -281 28 -278 28 -267 c 0
 28 -258 30 -254 40 -254 c 2
 95 -254 l 2
 98 -254 98 -173 98 -94 c 2
 98 48 l 2xe6
 98 263 94 294 91 335 c 0
 90 349 89 349 75 349 c 0
 69 349 30 347 25 347 c 0
 15 347 12 346 12 352 c 0
 12 356 18 374 21 374 c 0xda
 88 376 149 380 153 380 c 0
 161 380 164 380 164 366 c 2
 164 342 l 2
 164 335 164 332 166 332 c 0
 169 332 176 339 185 346 c 0
 208 363 251 383 293 383 c 0
 408 383 464 300 464 194 c 0
 464 93 386 -9 255 -9 c 0
 234 -9 208 -4 189 2 c 0
 176 6 165 13 165 2 c 2xe6
 168 -187 l 2
 169 -225 168 -254 174 -254 c 2
EndSplineSet
AlternateSubs2: "'aalt' Access All Alternates lookup 0 subtable" p.sc
AlternateSubs2: "'aalt' Access All Alternates in Latin lookup 0 subtable" p.sc
Substitution2: "'smcp' Lowercase to Small Capitals in Latin lookup 4 subtable" p.sc
EndChar

StartChar: q
Encoding: 113 113 17
Width: 483
VWidth: 0
Flags: W
HStem: -291 29<250.049 329.693> -280 29<406.266 460.994> 10 9<246 330> 354 27<175.998 300.647> 368 20G<386.5 399>
VStem: 31 71<100.42 273.619> 335 70<-250.996 9.9978 27.0078 333.236>
LayerCount: 3
Fore
SplineSet
405 -88 m 2x2e
 405 -167 405 -251 408 -251 c 2
 449 -251 l 2
 459 -251 461 -257 461 -266 c 0
 461 -277 461 -280 448 -280 c 2
 421 -280 l 2x6e
 334 -280 270 -291 265 -291 c 0
 252 -291 250 -288 250 -279 c 0
 250 -270 251 -263 263 -262 c 0
 331 -255 332 -262 332 -222 c 2
 334 1 l 2
 334 7 334 10 330 10 c 0
 327 10 322 8 315 6 c 0
 291 -1 247 -13 205 -13 c 0
 127 -13 31 39 31 180 c 0
 31 296 120 381 239 381 c 0xb6
 295 381 336 355 356 355 c 0
 374 355 379 388 394 388 c 0
 404 388 410 384 410 375 c 0
 406 256 405 168 405 77 c 2
 405 -88 l 2x2e
335 291 m 2
 335 331 295 354 231 354 c 0x36
 142 354 102 269 102 191 c 0
 102 110 154 19 246 19 c 0
 275 19 335 25 335 41 c 2
 335 291 l 2
EndSplineSet
AlternateSubs2: "'aalt' Access All Alternates lookup 0 subtable" q.sc
AlternateSubs2: "'aalt' Access All Alternates in Latin lookup 0 subtable" q.sc
Substitution2: "'smcp' Lowercase to Small Capitals in Latin lookup 4 subtable" q.sc
EndChar

StartChar: r
Encoding: 114 114 18
Width: 330
VWidth: 0
Flags: HMW
HStem: 0 25<37.006 96.7812 171.753 254.997> 341 53<216.842 286.193>
VStem: 101 60<25 346.929>
AnchorPoint: "cedilla" 146 -100 basechar 0
AnchorPoint: "top" 183 500 basechar 0
LayerCount: 3
Fore
SplineSet
94 347 m 0
 91 347 34 345 30 345 c 0
 27 345 27 346 27 349 c 0
 27 352 28 356 30 361 c 0
 33 369 31 368 45 369 c 0
 59 370 143 372 150 372 c 0
 166 372 162 372 162 362 c 0
 162 343 161 321 161 302 c 0
 161 289 161 284 162 284 c 0
 164 284 167 300 171 309 c 0
 194 363 234 394 264 394 c 0
 294 394 321 363 321 351 c 0
 321 340 300 310 284 310 c 0
 261 310 244 341 224 341 c 0
 174 341 167 222 167 137 c 0
 167 84 167 25 179 25 c 2
 242 25 l 2
 254 25 255 21 255 12 c 0
 255 3 255 -2 242 -2 c 0
 223 -2 165 0 136 0 c 0
 111 0 80 -2 50 -2 c 0
 37 -2 37 1 37 12 c 0
 37 21 39 25 49 25 c 2
 92 25 l 2
 100 25 101 90 101 162 c 0
 101 250 97 347 94 347 c 0
EndSplineSet
Layer: 2
SplineSet
94 347 m 4xd0
 91 347 34 345 30 345 c 4
 27 345 27 346 27 349 c 4
 27 352 28 356 30 361 c 4
 33 369 31 368 45 369 c 4
 59 370 143 372 150 372 c 4xb0
 166 372 162 372 162 362 c 4
 162 343 161 321 161 302 c 4
 161 289 161 284 162 284 c 4
 164 284 167 300 171 309 c 4
 194 363 234 394 264 394 c 4
 294 394 321 363 321 351 c 4
 321 340 300 310 284 310 c 4
 261 310 244 341 224 341 c 4
 174 341 167 222 167 137 c 4
 167 84 167 25 179 25 c 6
 242 25 l 6
 254 25 255 21 255 12 c 4
 255 3 255 -2 242 -2 c 4
 223 -2 165 0 136 0 c 4
 111 0 80 -2 50 -2 c 4
 37 -2 37 1 37 12 c 4
 37 21 39 25 49 25 c 6
 92 25 l 6
 100 25 101 90 101 162 c 4
 101 250 97 347 94 347 c 4xd0
EndSplineSet
AlternateSubs2: "'aalt' Access All Alternates lookup 0 subtable" r.sc
AlternateSubs2: "'aalt' Access All Alternates in Latin lookup 0 subtable" r.sc
Substitution2: "'smcp' Lowercase to Small Capitals in Latin lookup 4 subtable" r.sc
EndChar

StartChar: s
Encoding: 115 115 19
Width: 339
VWidth: 0
Flags: W
HStem: -12 23<129.112 217.037> 372 21<129.007 205.23>
VStem: 38 58<257.663 338.225> 243 59<41.1596 124.789>
AnchorPoint: "cedilla" 175 -100 basechar 0
AnchorPoint: "top" 169 500 basechar 0
LayerCount: 3
Fore
SplineSet
182 393 m 0
 258 393 286 349 286 326 c 0
 286 315 257 307 246 307 c 0
 223 307 234 372 169 372 c 0
 136 372 96 354 96 302 c 0
 96 259 136 242 178 222 c 0
 236 194 302 165 302 106 c 0
 302 33 235 -12 161 -12 c 0
 100 -12 35 19 35 50 c 0
 35 66 57 88 65 88 c 0
 71 88 72 75 84 61 c 0
 104 37 129 11 177 11 c 0
 211 11 243 31 243 76 c 0
 243 123 201 145 154 165 c 0
 99 189 38 209 38 280 c 0
 38 347 111 393 182 393 c 0
EndSplineSet
AlternateSubs2: "'aalt' Access All Alternates lookup 0 subtable" s.sc
AlternateSubs2: "'aalt' Access All Alternates in Latin lookup 0 subtable" s.sc
Substitution2: "'smcp' Lowercase to Small Capitals in Latin lookup 4 subtable" s.sc
EndChar

StartChar: t
Encoding: 116 116 20
Width: 275
VWidth: 0
Flags: HW
HStem: -9 47<98.3221 205.078> 338 34<121.244 235.859>
VStem: 55 66<43.9774 336.954>
AnchorPoint: "top" 121 540 basechar 0
AnchorPoint: "caron" 160 550 basechar 0
AnchorPoint: "cedilla" 134 -100 basechar 0
LayerCount: 3
Fore
SplineSet
253 38 m 0
 253 33 168 -9 127 -9 c 0
 70 -9 55 30 55 60 c 0
 56 132 57 247 57 276 c 0
 57 313 56 337 45 337 c 2
 20 337 l 2
 16 337 14 340 14 344 c 0
 14 347 15 350 17 352 c 2
 108 479 l 2
 110 482 113 484 117 484 c 0
 122 484 127 481 127 474 c 0
 127 471 121 398 121 382 c 0
 121 373 123 372 132 372 c 2
 227 372 l 2
 239 372 240 372 236 354 c 0
 233 341 230 338 223 338 c 2
 124 338 l 2
 121 338 121 320 121 292 c 2
 121 100 l 2
 121 69 123 38 169 38 c 0
 208 38 241 54 249 54 c 0
 252 54 253 45 253 38 c 0
EndSplineSet
Layer: 2
SplineSet
253 38 m 4
 253 33 168 -9 127 -9 c 4
 70 -9 57 30 57 60 c 6
 57 258 l 6
 57 304 53 337 45 337 c 6
 22 337 l 6
 18 337 16 340 16 344 c 4
 16 347 17 350 19 352 c 4
 35 371 76 429 108 479 c 4
 110 482 113 483 116 483 c 4
 121 483 126 480 126 474 c 4
 126 471 119 398 119 382 c 4
 119 373 121 372 130 372 c 6
 227 372 l 6
 239 372 240 372 236 354 c 4
 233 341 230 338 223 338 c 6
 123 338 l 6
 120 338 120 320 120 292 c 6
 120 245 l 6
 120 174 123 88 124 79 c 4
 126 63 132 37 169 37 c 4
 208 37 241 54 249 54 c 4
 252 54 253 45 253 38 c 4
EndSplineSet
AlternateSubs2: "'aalt' Access All Alternates lookup 0 subtable" t.sc
AlternateSubs2: "'aalt' Access All Alternates in Latin lookup 0 subtable" t.sc
Substitution2: "'smcp' Lowercase to Small Capitals in Latin lookup 4 subtable" t.sc
EndChar

StartChar: u
Encoding: 117 117 21
Width: 516
VWidth: 0
Flags: HMW
HStem: -11 50<174.842 295.689> 0 26<443.165 488.972> 355 25<20.6875 81.0703 292.773 350.966>
VStem: 84 70<58.9478 355.976> 356 68<20.0074 35.9833 44.3612 358.887>
AnchorPoint: "top" 244 500 basechar 0
LayerCount: 3
Fore
SplineSet
348 359 m 0xb8
 345 359 300 357 296 357 c 0
 293 357 292 358 292 361 c 0
 294 376 292 380 305 381 c 0
 324 382 413 386 418 386 c 0
 424 386 425 385 425 380 c 2
 425 380 424 141 424 79 c 0
 424 30 427 20 443 20 c 0
 446 20 482 26 484 26 c 0
 488 26 489 22 489 16 c 0
 489 2 488 2 475 0 c 0x78
 441 -5 378 -15 371 -15 c 0
 365 -15 361 -13 360 -2 c 0
 359 13 359 36 356 36 c 0
 351 36 268 -11 193 -11 c 0
 98 -11 84 55 84 122 c 2
 84 279 l 2
 84 323 84 356 72 356 c 0
 69 356 27 355 23 355 c 0
 20 355 19 357 19 360 c 0
 19 363 20 366 22 371 c 0
 25 379 25 379 37 380 c 0
 59 381 142 384 147 384 c 0
 153 384 154 383 154 378 c 2
 154 106 l 2
 154 50 206 39 265 39 c 0
 297 39 356 43 356 55 c 2
 356 173 l 2
 356 203 354 359 348 359 c 0xb8
EndSplineSet
Layer: 2
SplineSet
348 361 m 4x0e
 345 361 300 359 296 359 c 4
 293 359 292 360 292 363 c 4
 294 378 292 382 305 383 c 4
 324 384 413 388 418 388 c 4
 424 388 425 387 425 382 c 6
 425 382 424 141 424 79 c 4
 424 30 427 18 443 18 c 4x8e
 446 18 465 21 479 23 c 4
 487 24 489 24 489 16 c 4
 489 2 488 2 475 0 c 4x46
 441 -5 378 -15 371 -15 c 4
 365 -15 361 -13 360 -2 c 4
 359 13 359 35 356 35 c 4
 352 35 344 30 338 28 c 4
 294 10 247 -11 193 -11 c 4
 82 -11 82 58 82 126 c 4
 82 172 84 226 84 269 c 4
 84 313 84 346 72 346 c 4
 69 346 27 345 23 345 c 4xa6
 20 345 19 347 19 350 c 4
 19 353 20 356 22 361 c 4x0e
 25 369 25 369 37 370 c 4x26
 59 371 143 374 148 374 c 4x16
 154 374 155 373 155 368 c 12
 155 266 154 198 154 106 c 4
 154 50 206 39 265 39 c 4
 297 39 356 43 356 55 c 6
 356 175 l 6
 356 205 354 361 348 361 c 4x0e
EndSplineSet
AlternateSubs2: "'aalt' Access All Alternates lookup 0 subtable" u.sc
AlternateSubs2: "'aalt' Access All Alternates in Latin lookup 0 subtable" u.sc
Substitution2: "'smcp' Lowercase to Small Capitals in Latin lookup 4 subtable" u.sc
EndChar

StartChar: v
Encoding: 118 118 22
Width: 436
VWidth: 0
Flags: W
HStem: -25 21G<187.5 195.5> 355 27<11.0008 54.1873 129.006 188.999 289.003 337.92 379.941 421.999>
VStem: 338 84<322.5 373.5>
LayerCount: 3
Fore
SplineSet
338 339 m 0
 338 349 335 355 328 355 c 2
 302 355 l 2
 290 355 289 359 289 368 c 0
 289 377 290 382 303 382 c 0
 311 382 340 380 360 380 c 0
 382 380 396 382 411 382 c 0
 421 382 422 379 422 368 c 0
 422 359 420 355 410 355 c 2
 394 355 l 2
 386 355 386 353 381 345 c 0
 359 305 299 146 254 52 c 0
 238 19 231 21 205 -18 c 0
 201 -23 197 -25 194 -25 c 0
 181 -25 171 20 164 41 c 0
 153 75 95 236 55 340 c 0
 49 355 48 355 33 355 c 2
 24 355 l 2
 12 355 11 359 11 368 c 0
 11 377 11 382 24 382 c 0
 43 382 62 380 91 380 c 0
 116 380 158 382 176 382 c 0
 189 382 189 379 189 368 c 0
 189 359 187 355 177 355 c 2
 147 355 l 2
 137 355 129 354 129 347 c 0
 129 343 194 152 223 84 c 0
 229 70 233 66 235 66 c 0
 238 66 240 72 244 82 c 0
 268 139 338 306 338 339 c 0
EndSplineSet
Layer: 2
SplineSet
339 342 m 4
 339 352 336 358 329 358 c 6
 303 358 l 6
 291 358 290 362 290 371 c 4
 290 380 291 385 304 385 c 4
 312 385 341 383 361 383 c 4
 383 383 397 385 412 385 c 4
 422 385 423 382 423 371 c 4
 423 362 421 358 411 358 c 6
 395 358 l 6
 387 358 387 356 382 348 c 4
 360 308 299 146 254 52 c 4
 238 19 231 21 205 -18 c 4
 201 -23 197 -25 194 -25 c 4
 181 -25 170 20 164 41 c 4
 154 75 94 239 54 343 c 4
 48 358 47 358 32 358 c 6
 23 358 l 6
 11 358 10 362 10 371 c 4
 10 380 10 385 23 385 c 4
 42 385 61 383 90 383 c 4
 115 383 157 385 175 385 c 4
 188 385 188 382 188 371 c 4
 188 362 186 358 176 358 c 6
 146 358 l 6
 136 358 128 357 128 350 c 4
 128 346 194 152 223 84 c 4
 229 70 233 66 235 66 c 4
 238 66 240 72 244 82 c 4
 268 139 339 309 339 342 c 4
EndSplineSet
AlternateSubs2: "'aalt' Access All Alternates lookup 0 subtable" v.sc
AlternateSubs2: "'aalt' Access All Alternates in Latin lookup 0 subtable" v.sc
Substitution2: "'smcp' Lowercase to Small Capitals in Latin lookup 4 subtable" v.sc
EndChar

StartChar: w
Encoding: 119 119 23
Width: 675
VWidth: 0
Flags: W
HStem: -25 21G<187.5 194.5 446.5 454.5> 355 27<12.0008 57.3087 135.006 189.999 270.001 325.983 393.002 438.999 526.003 581.998 625.948 658.999>
VStem: 332 61<270.323 339.629> 582 77<332 373.5>
DStem2: 245 91 253 53 0.400725 0.916199<-26.22 216.341>
AnchorPoint: "top" 354 500 basechar 0
LayerCount: 3
Fore
SplineSet
36 355 m 2
 25 355 l 2
 13 355 12 359 12 368 c 0
 12 377 12 382 25 382 c 0
 44 382 63 380 92 380 c 0
 117 380 159 382 177 382 c 0
 190 382 190 379 190 368 c 0
 190 359 188 355 178 355 c 2
 153 355 l 2
 143 355 135 354 135 347 c 0
 135 343 194 152 223 84 c 0
 228 73 230 68 232 68 c 0
 235 68 239 76 245 91 c 0
 264 139 304 237 325 297 c 0
 330 310 332 317 332 324 c 0
 332 330 331 332 327 340 c 0
 320 354 308 355 293 355 c 2
 283 355 l 2
 271 355 270 359 270 368 c 0
 270 377 270 382 283 382 c 0
 308 382 322 380 356 380 c 0
 382 380 401 382 426 382 c 0
 439 382 439 379 439 368 c 0
 439 359 437 355 427 355 c 2
 406 355 l 2
 396 355 393 354 393 347 c 0
 393 343 448 152 475 84 c 0
 481 70 485 61 487 61 c 0
 490 61 494 73 498 83 c 0
 520 135 582 320 582 344 c 0
 582 351 579 355 570 355 c 2
 539 355 l 2
 527 355 526 359 526 368 c 0
 526 377 527 382 540 382 c 0
 548 382 577 380 597 380 c 0
 619 380 641 382 648 382 c 0
 658 382 659 379 659 368 c 0
 659 359 657 355 647 355 c 2
 641 355 l 2
 633 355 631 353 627 345 c 0
 605 303 555 146 510 52 c 0
 494 19 487 22 464 -18 c 0
 461 -24 456 -25 453 -25 c 0
 440 -25 429 20 423 41 c 0
 416 67 385 171 354 265 c 0
 350 277 348 283 346 283 c 0
 344 283 341 277 337 265 c 0
 312 199 282 113 253 53 c 0
 237 20 228 24 205 -18 c 0
 202 -24 196 -25 193 -25 c 0
 182 -25 168 20 162 41 c 0
 152 75 97 226 58 340 c 0
 53 355 50 355 36 355 c 2
EndSplineSet
AlternateSubs2: "'aalt' Access All Alternates lookup 0 subtable" w.sc
AlternateSubs2: "'aalt' Access All Alternates in Latin lookup 0 subtable" w.sc
Substitution2: "'smcp' Lowercase to Small Capitals in Latin lookup 4 subtable" w.sc
EndChar

StartChar: x
Encoding: 120 120 24
Width: 460
VWidth: 0
Flags: W
HStem: -2 27<22.0015 65.7812 108.004 166.999 275.001 317.996 395.003 437.999> 355 27<42.0008 95.523 173.004 204.999 306.003 357.996 400.124 439.994>
DStem2: 183 331 97 340 0.586197 -0.810169<-20.2892 122.178 157.543 320.441> 81 54 118 47 0.691628 0.722254<2.2006 165.604 263.743 403.821>
LayerCount: 3
Fore
SplineSet
384 326 m 16
 344 289 300 243 279 222 c 0
 272 215 269 213 269 210 c 0
 269 207 273 203 279 195 c 0
 304 160 368 72 395 38 c 0
 404 26 404 25 413 25 c 2
 425 25 l 2
 437 25 438 21 438 12 c 0
 438 3 438 -2 425 -2 c 0
 406 -2 385 0 356 0 c 0
 331 0 306 -2 288 -2 c 0
 275 -2 275 1 275 12 c 0
 275 21 277 25 287 25 c 2
 298 25 l 2
 313 25 318 26 318 33 c 0
 318 36 307 51 297 66 c 0
 277 98 247 139 232 159 c 0
 223 171 222 172 212 160 c 0
 191 135 141 79 118 47 c 0
 113 40 108 35 108 31 c 0
 108 27 113 25 126 25 c 2
 154 25 l 2
 166 25 167 21 167 12 c 0
 167 3 167 -2 154 -2 c 0
 135 -2 120 0 91 0 c 0
 66 0 50 -2 35 -2 c 0
 24 -2 22 1 22 12 c 0
 22 21 24 25 34 25 c 0
 53 25 56 28 81 54 c 2
 201 177 l 2
 211 187 211 187 204 196 c 2
 97 340 l 2
 86 355 86 355 71 355 c 2
 55 355 l 2
 43 355 42 359 42 368 c 0
 42 377 42 382 55 382 c 0
 74 382 105 380 134 380 c 0
 159 380 174 382 192 382 c 0
 205 382 205 379 205 368 c 0
 205 359 203 355 193 355 c 0
 178 355 173 353 173 349 c 0
 173 345 178 338 183 331 c 2
 246 239 l 2
 257 223 254 226 267 239 c 0
 288 262 331 309 352 337 c 0
 355 342 358 345 358 348 c 0
 358 352 352 355 332 355 c 2
 319 355 l 2
 307 355 306 359 306 368 c 0
 306 377 307 382 320 382 c 0
 339 382 354 380 374 380 c 0
 396 380 412 382 427 382 c 0
 437 382 440 379 440 368 c 0
 440 359 438 355 428 355 c 0
 409 355 399 340 384 326 c 16
EndSplineSet
AlternateSubs2: "'aalt' Access All Alternates lookup 0 subtable" x.sc
AlternateSubs2: "'aalt' Access All Alternates in Latin lookup 0 subtable" x.sc
Substitution2: "'smcp' Lowercase to Small Capitals in Latin lookup 4 subtable" x.sc
EndChar

StartChar: y
Encoding: 121 121 25
Width: 460
VWidth: 0
Flags: W
HStem: -295 21G<56 66> 355 27<25.0008 69.1936 156.009 212.999 296.003 362.994 402.183 441.994>
DStem2: 182 -164 230 -114 0.352687 0.935741<-28.2278 128.172 234.827 466.772>
AnchorPoint: "top" 251 500 basechar 0
LayerCount: 3
Fore
SplineSet
430 355 m 2
 416 355 l 2
 408 355 406 354 403 345 c 0
 387 301 278 23 270 3 c 0
 267 -4 249 -59 230 -114 c 0
 212 -165 209 -181 166 -234 c 0
 151 -253 150 -257 125 -269 c 0
 100 -281 69 -295 63 -295 c 0
 49 -295 45 -284 45 -275 c 0
 45 -263 54 -247 64 -233 c 0
 70 -224 83 -218 92 -215 c 0
 118 -205 171 -193 182 -164 c 0
 199 -122 226 -55 226 -43 c 0
 226 -26 111 240 70 340 c 0
 64 355 64 355 49 355 c 2
 38 355 l 2
 26 355 25 359 25 368 c 0
 25 377 25 382 38 382 c 0
 57 382 83 380 112 380 c 0
 137 380 182 382 200 382 c 0
 213 382 213 379 213 368 c 0
 213 359 211 355 201 355 c 2
 182 355 l 2
 169 355 156 354 156 345 c 0
 156 327 214 172 245 96 c 0
 256 69 262 56 264 56 c 0
 266 56 272 70 281 96 c 0
 309 175 363 335 363 348 c 0
 363 355 355 355 332 355 c 2
 309 355 l 2
 297 355 296 359 296 368 c 0
 296 377 297 382 310 382 c 0
 329 382 354 380 374 380 c 0
 396 380 414 382 429 382 c 0
 439 382 442 379 442 368 c 0
 442 359 440 355 430 355 c 2
EndSplineSet
Layer: 2
SplineSet
430 355 m 6x40
 416 355 l 6x40
 408 355 406 354 403 345 c 4
 387 301 278 23 270 3 c 4
 267 -4 249 -59 230 -114 c 4
 212 -165 209 -181 166 -234 c 4
 151 -253 150 -257 125 -269 c 4
 100 -281 69 -295 63 -295 c 4
 49 -295 45 -284 45 -275 c 4
 45 -263 54 -247 64 -233 c 4
 70 -224 83 -218 92 -215 c 4
 118 -205 171 -193 182 -164 c 4
 199 -122 226 -55 226 -43 c 4
 226 -26 113 235 72 335 c 4
 66 350 66 350 51 350 c 6
 40 350 l 6
 28 350 27 354 27 363 c 4
 27 372 27 377 40 377 c 4
 59 377 85 375 114 375 c 4
 139 375 184 377 202 377 c 4
 215 377 215 374 215 363 c 4
 215 354 213 350 203 350 c 6
 184 350 l 6x80
 171 350 158 349 158 340 c 4
 158 322 214 172 245 96 c 4
 256 69 262 56 264 56 c 4
 266 56 272 70 281 96 c 4
 309 175 363 335 363 348 c 4
 363 355 355 355 332 355 c 6
 309 355 l 6
 297 355 296 359 296 368 c 4
 296 377 297 382 310 382 c 4
 329 382 354 380 374 380 c 4
 396 380 414 382 429 382 c 4
 439 382 442 379 442 368 c 4
 442 359 440 355 430 355 c 6x40
EndSplineSet
AlternateSubs2: "'aalt' Access All Alternates lookup 0 subtable" y.sc
AlternateSubs2: "'aalt' Access All Alternates in Latin lookup 0 subtable" y.sc
Substitution2: "'smcp' Lowercase to Small Capitals in Latin lookup 4 subtable" y.sc
EndChar

StartChar: A
Encoding: 65 65 26
Width: 666
VWidth: 0
Flags: W
HStem: -3 30<16.0144 71.8685 116 205.991 438.014 511 611.459 663.991> 275 24<217.457 424.816> 667 20G<366 371.5>
DStem2: 208 358 197 257 0.425508 0.904954<-194.45 -68.6688 -44.0038 162.58> 378 680 338 560 0.335451 -0.942058<79.0818 369.846 394.904 602.294>
AnchorPoint: "top" 357 780 basechar 0
LayerCount: 3
Fore
SplineSet
621 27 m 2
 653 27 l 2
 664 27 664 26 664 14 c 0
 664 -1 663 -3 653 -3 c 0
 638 -3 593 0 563 0 c 0
 533 0 475 -3 452 -3 c 0
 439 -3 438 -2 438 15 c 0
 438 27 440 27 456 27 c 2
 510 27 l 2
 511 27 511 28 511 30 c 0
 511 54 461 200 441 256 c 0
 435 274 436 275 421 275 c 2
 220 275 l 2
 201 275 202 270 197 257 c 0
 171 191 116 52 116 30 c 0
 116 28 116 27 117 27 c 2
 195 27 l 2
 206 27 206 26 206 14 c 0
 206 -1 205 -3 195 -3 c 0
 172 -3 133 0 103 0 c 0
 73 0 53 -3 30 -3 c 0
 17 -3 16 -2 16 15 c 0
 16 27 18 27 34 27 c 2
 62 27 l 2
 71 27 143 203 208 358 c 1
 314 604 l 2
 322 624 339 633 350 660 c 0
 356 674 363 687 369 687 c 0
 374 687 377 684 378 680 c 2
 498 343 l 2
 539 229 609 27 621 27 c 2
233 299 m 2
 412 299 l 2
 422 299 425 301 425 304 c 0
 425 307 423 311 421 317 c 2
 338 560 l 2
 334 573 332 579 330 579 c 0
 328 579 325 572 320 560 c 2
 222 320 l 2
 219 313 217 308 217 305 c 0
 217 301 221 299 233 299 c 2
EndSplineSet
AlternateSubs2: "'aalt' Access All Alternates lookup 0 subtable" A.c2
AlternateSubs2: "'aalt' Access All Alternates in Latin lookup 0 subtable" A.c2
Substitution2: "'c2sc' Capitals to Small Capitals in Latin lookup 5 subtable" A.c2
EndChar

StartChar: B
Encoding: 66 66 27
Width: 564
VWidth: 0
Flags: HW
HStem: -2 29<34.0144 109.581 197.712 352.806> 326 22<192.001 354.992> 634 28<23.0233 103.779> 644 21<197 306.755>
VStem: 110 82<67.5282 326 348 633.594> 417 84<435.163 568.051> 442 88<92.0133 252.938>
AnchorPoint: "top" 274 780 basechar 0
LayerCount: 3
Fore
SplineSet
265 348 m 2xdc
 282 348 292 347 298 347 c 0
 304 347 312 348 318 350 c 0
 364 364 417 404 417 488 c 0
 417 587 342 644 240 644 c 0
 224 644 211 644 197 640 c 0
 193 639 192 486 192 406 c 2
 192 358 l 2
 192 350 194 348 208 348 c 2
 265 348 l 2xdc
262 27 m 2
 407 27 442 101 442 176 c 0xca
 442 247 419 295 355 316 c 0
 327 325 281 326 237 326 c 2
 203 326 l 2
 193 326 192 321 192 315 c 0
 192 253 192 27 201 27 c 2
 262 27 l 2
154 0 m 0
 124 0 57 -3 48 -3 c 0
 35 -3 34 -2 34 15 c 0
 34 27 36 27 52 27 c 2
 105 27 l 2
 110 27 110 43 110 69 c 2
 110 392 l 2
 110 515 107 634 100 634 c 2
 43 632 l 2
 31 632 23 634 23 649 c 0
 23 664 30 664 43 664 c 0
 59 664 126 662 156 662 c 0xea
 195 662 238 665 279 665 c 0
 399 665 501 625 501 504 c 0xdc
 501 407 395 364 351 348 c 0
 341 344 334 342 334 341 c 0
 334 335 530 339 530 169 c 0
 530 15 362 -2 250 -2 c 0
 204 -2 167 0 154 0 c 0
EndSplineSet
AlternateSubs2: "'aalt' Access All Alternates lookup 0 subtable" B.c2
AlternateSubs2: "'aalt' Access All Alternates in Latin lookup 0 subtable" B.c2
Substitution2: "'c2sc' Capitals to Small Capitals in Latin lookup 5 subtable" B.c2
EndChar

StartChar: C
Encoding: 67 67 28
Width: 725
VWidth: 0
Flags: W
HStem: -16 39<322.22 511.596> 429 21G<626 641.5> 650 30<313.07 475.625>
VStem: 39 102<213.191 459.954> 613 31<75.7344 151.846> 620 35<429.075 555.5 611 650.986>
AnchorPoint: "cedilla" 390 -100 basechar 0
AnchorPoint: "top" 389 780 basechar 0
LayerCount: 3
Fore
SplineSet
39 335 m 0xf8
 39 544 194 680 396 680 c 0
 514 680 583 622 603 608 c 0
 612 601 620 594 620 611 c 2
 620 638 l 2
 620 649 620 651 635 651 c 0
 650 651 655 650 655 638 c 0
 655 620 651 496 651 445 c 0
 651 433 648 429 635 429 c 0
 617 429 616 432 616 441 c 0
 616 445 620 522 620 531 c 0xf4
 620 545 522 650 389 650 c 0
 244 650 141 514 141 333 c 0
 141 164 264 23 418 23 c 0
 531 23 612 80 613 91 c 2
 626 204 l 2
 628 218 632 220 648 218 c 0
 658 217 660 212 660 205 c 0
 660 195 656 162 644 72 c 0
 642 54 517 -16 390 -16 c 0
 206 -16 39 94 39 335 c 0xf8
EndSplineSet
AlternateSubs2: "'aalt' Access All Alternates lookup 0 subtable" C.c2
AlternateSubs2: "'aalt' Access All Alternates in Latin lookup 0 subtable" C.c2
Substitution2: "'c2sc' Capitals to Small Capitals in Latin lookup 5 subtable" C.c2
EndChar

StartChar: D
Encoding: 68 68 29
Width: 748
VWidth: 0
Flags: HW
HStem: -4 26<26.0029 110.707 206 374.078> 641 25<37.0117 121.072> 652 26<212.888 382.899>
VStem: 122 81.84<319.824 640.133> 603 101<210.397 454.961>
AnchorPoint: "top" 333 780 basechar 0
LayerCount: 3
Fore
SplineSet
323 678 m 0xb8
 539 678 704 549 704 335 c 0
 704 116 538 -2 359 -4 c 0
 294 -4 229 0 164 0 c 0
 136 0 48 -4 37 -4 c 0
 26 -4 26 -2 26 10 c 0
 26 25 30 25 43 25 c 2
 109 25 l 2
 115 25 122 397 122 563 c 0
 122 610 121 641 120 641 c 2
 50 639 l 2
 41 639 37 639 37 651 c 0
 37 663 37 667 50 667 c 0
 54 667 85 666 119 666 c 0xd8
 193 666 283 678 323 678 c 0xb8
206 26 m 0
 212 22 243 22 263 22 c 0
 599 22 603 261 603 348 c 0
 603 490 487 652 302 652 c 0xb8
 276 652 235 652 212 646 c 0
 208 645 205 545 205 500 c 0
 204.204101562 361.891601562 203.84 224.476243488 203.84 85.976 c 0
 203.84 53.6 204.2 27.2 206 26 c 0
EndSplineSet
AlternateSubs2: "'aalt' Access All Alternates lookup 0 subtable" D.c2
AlternateSubs2: "'aalt' Access All Alternates in Latin lookup 0 subtable" D.c2
Substitution2: "'c2sc' Capitals to Small Capitals in Latin lookup 5 subtable" D.c2
EndChar

StartChar: E
Encoding: 69 69 30
Width: 620
VWidth: 0
Flags: W
HStem: -3 30<43.0034 126.554> 0 34<215.69 538.075> 325 27<207.006 440.071> 407 20G<454 461.5> 636 29<51.0051 117.924 207.567 404.46>
VStem: 128 79<65.9475 325 352 635.699> 441 31<250.108 321.59 355.349 426.965> 484 28<539.027 632.964 666.054 689.986> 542 31<37.1168 154.976>
AnchorPoint: "top" 319 780 basechar 0
LayerCount: 3
Fore
SplineSet
470 341 m 0xbf80
 470 305 472 271 472 258 c 0
 472 253 466 250 459 250 c 0
 451 250 441 253 441 259 c 2
 441 305 l 2
 441 315 440 325 386 325 c 2
 223 325 l 2
 207 325 207 325 207 310 c 0
 210 167 213 34 219 34 c 0x7f80
 317 34 516 37 520 37 c 0
 536 37 537 37 539 60 c 0
 541 85 541 108 542 147 c 0
 542 153 548 155 556 155 c 0
 565 155 573 153 573 146 c 0
 573 96 570 38 570 8 c 0
 570 -1 558 -3 548 -3 c 0xbf80
 525 -3 208 0 178 0 c 0x7f80
 148 0 79 -3 56 -3 c 0
 43 -3 43 -2 43 15 c 0
 43 27 44 27 60 27 c 2
 121 27 l 2
 127 27 128 47 128 102 c 2
 128 198 l 2
 128 309 124 486 124 492 c 0
 124 564 120 636 113 636 c 2
 70 636 l 2
 58 636 51 636 51 651 c 0
 51 663 55 665 63 665 c 0
 70 665 135 662 170 662 c 0
 223 662 376 665 419 665 c 0
 486 665 484 666 486 678 c 0
 487 688 491 690 499 690 c 0
 513 690 516 689 516 679 c 0
 516 660 512 627 512 549 c 0
 512 541 510 539 496 539 c 0
 484 539 481 543 481 553 c 0
 481 558 484 625 484 631 c 0
 484 635 323 638 212 638 c 0
 206 638 205 588 205 510 c 0
 205 467 206 418 207 368 c 0
 207 355 207 352 219 352 c 2
 386 352 l 2
 404 352 441 352 441 368 c 2
 441 418 l 2
 441 424 450 427 458 427 c 0
 465 427 472 424 472 419 c 0
 472 410 470 377 470 341 c 0xbf80
EndSplineSet
AlternateSubs2: "'aalt' Access All Alternates lookup 0 subtable" E.c2
AlternateSubs2: "'aalt' Access All Alternates in Latin lookup 0 subtable" E.c2
Substitution2: "'c2sc' Capitals to Small Capitals in Latin lookup 5 subtable" E.c2
EndChar

StartChar: F
Encoding: 70 70 31
Width: 576
VWidth: 0
Flags: HW
HStem: 0 27<60.0062 126.339 211.549 307.999> 325 27<207.105 450.071> 407 20G<464 471.5> 636 29<51.0051 117.924 207.567 405.073>
VStem: 128 79<59.7434 325 352 635.562> 451 31<240.108 321.59 355.349 426.965> 494 28<539.027 632.964 666.054 689.986>
AnchorPoint: "top" 319 780 basechar 0
LayerCount: 3
Fore
SplineSet
214 27 m 2
 297 27 l 2
 308 27 308 26 308 14 c 0
 308 -1 307 -3 297 -3 c 0
 274 -3 207 0 177 0 c 0
 147 0 97 -3 74 -3 c 0
 61 -3 60 -2 60 15 c 0
 60 27 62 27 78 27 c 2
 121 27 l 2
 127 27 128 47 128 102 c 2
 128 198 l 2
 128 309 124 486 124 492 c 0
 124 564 120 636 113 636 c 2
 70 636 l 2
 58 636 51 636 51 651 c 0
 51 663 55 665 63 665 c 0
 70 665 135 662 170 662 c 0
 223 662 386 665 429 665 c 0
 496 665 494 666 496 678 c 0
 497 688 501 690 509 690 c 0
 523 690 526 689 526 679 c 0
 526 660 522 627 522 549 c 0
 522 541 520 539 506 539 c 0
 494 539 491 543 491 553 c 0
 491 558 494 625 494 631 c 0
 494 635 323 638 212 638 c 0
 206 638 205 584 205 524 c 0
 205 461 206 391 207 368 c 0
 207 352 207 352 223 352 c 2
 396 352 l 2
 414 352 451 352 451 368 c 2
 451 418 l 2
 451 424 460 427 468 427 c 0
 475 427 482 424 482 419 c 0
 482 410 480 377 480 341 c 0
 480 305 482 261 482 248 c 0
 482 243 476 240 469 240 c 0
 461 240 451 243 451 249 c 2
 451 305 l 2
 451 315 450 325 396 325 c 2
 223 325 l 2
 208 325 207 323 207 305 c 0
 210 164 208 27 214 27 c 2
EndSplineSet
AlternateSubs2: "'aalt' Access All Alternates lookup 0 subtable" F.c2
AlternateSubs2: "'aalt' Access All Alternates in Latin lookup 0 subtable" F.c2
Substitution2: "'c2sc' Capitals to Small Capitals in Latin lookup 5 subtable" F.c2
EndChar

StartChar: G
Encoding: 71 71 32
Width: 747
VWidth: 0
Flags: W
HStem: -18 30<338.901 502.22> 220 30<479.1 581.551 667.782 717.993> 650 27<327.483 483.264>
VStem: 39 102<211.125 458.004> 584 82<54.6318 220> 620 34<449.048 563.938 620.97 658.986>
AnchorPoint: "cedilla" 410 -100 basechar 0
AnchorPoint: "top" 398 780 basechar 0
LayerCount: 3
Fore
SplineSet
665 73 m 0xf8
 665 55 526 -18 390 -18 c 0
 206 -18 39 88 39 335 c 0
 39 556 200 677 402 677 c 0
 513 677 583 632 603 618 c 0
 612 611 620 604 620 621 c 2
 620 646 l 2
 620 657 620 659 635 659 c 0
 650 659 654 658 654 646 c 0
 654 632 651 516 651 465 c 0
 651 453 648 449 635 449 c 0
 617 449 616 452 616 461 c 0
 616 465 620 532 620 541 c 0xf4
 620 555 534 650 398 650 c 0
 253 650 141 514 141 333 c 0
 141 164 256 12 418 12 c 0
 531 12 580 57 581 68 c 0
 583 85 584 127 584 162 c 0xf8
 584 193 582 220 574 220 c 2
 487 220 l 2
 481 220 479 225 479 232 c 0
 479 241 481 250 488 250 c 0
 537 249 588 247 620 247 c 0xf4
 652 247 663 249 710 250 c 0
 717 250 718 244 718 236 c 0
 718 228 717 220 710 220 c 2
 679 220 l 2
 666 220 666 197 666 162 c 0
 666 137 665 106 665 73 c 0xf8
EndSplineSet
AlternateSubs2: "'aalt' Access All Alternates lookup 0 subtable" G.c2
AlternateSubs2: "'aalt' Access All Alternates in Latin lookup 0 subtable" G.c2
Substitution2: "'c2sc' Capitals to Small Capitals in Latin lookup 5 subtable" G.c2
EndChar

StartChar: H
Encoding: 72 72 33
Width: 781
VWidth: 0
Flags: W
HStem: -3 30<27.0144 104.874 198.954 278.991 508.014 584.194 670.736 737.991> 331 24<192.093 586.993> 639 30<40.0058 105.577 194.035 269.986 505.002 581.75 669.399 733.986>
VStem: 109 83<67.1794 331 355 635.71> 587 81<154.605 331 355 639>
AnchorPoint: "top" 389 780 basechar 0
LayerCount: 3
Fore
SplineSet
103 639 m 2
 60 639 l 2
 48 639 40 639 40 654 c 0
 40 669 47 669 60 669 c 0
 76 669 120 666 150 666 c 0
 180 666 233 669 256 669 c 0
 269 669 270 668 270 651 c 0
 270 639 268 639 252 639 c 2
 198 639 l 2
 192 639 191 574 191 505 c 0
 191 455 192 403 192 373 c 0
 192 356 193 355 207 355 c 2
 572 355 l 2
 587 355 587 356 587 370 c 2
 587 492 l 2
 587 564 584 639 577 639 c 2
 520 639 l 2
 508 639 505 639 505 654 c 0
 505 669 507 669 520 669 c 0
 536 669 595 666 625 666 c 0
 655 666 710 669 720 669 c 0
 733 669 734 668 734 651 c 0
 734 639 732 639 716 639 c 2
 670 639 l 2
 669 639 668 526 668 397 c 0
 668 226 669 27 672 27 c 2
 727 27 l 2
 738 27 738 26 738 14 c 0
 738 -1 737 -3 727 -3 c 0
 704 -3 663 0 633 0 c 0
 603 0 545 -3 522 -3 c 0
 509 -3 508 -2 508 15 c 0
 508 27 510 27 526 27 c 2
 581 27 l 2
 586 27 587 102 587 192 c 2
 587 316 l 2
 587 330 587 331 578 331 c 2
 204 331 l 2
 193 331 192 330 192 314 c 0
 192 183 194 27 203 27 c 2
 268 27 l 2
 279 27 279 26 279 14 c 0
 279 -1 278 -3 268 -3 c 0
 245 -3 188 0 158 0 c 0
 128 0 64 -3 41 -3 c 0
 28 -3 27 -2 27 15 c 0
 27 27 29 27 45 27 c 2
 102 27 l 2
 108 27 109 171 109 285 c 2
 109 387 l 2
 109 510 108 639 103 639 c 2
EndSplineSet
AlternateSubs2: "'aalt' Access All Alternates lookup 0 subtable" H.c2
AlternateSubs2: "'aalt' Access All Alternates in Latin lookup 0 subtable" H.c2
Substitution2: "'c2sc' Capitals to Small Capitals in Latin lookup 5 subtable" H.c2
EndChar

StartChar: I
Encoding: 73 73 34
Width: 354
VWidth: 0
Flags: W
HStem: 0 27<36.0062 125.342 223.34 308.999> 639 27<40.0523 126.516 222.646 308.994>
VStem: 132 85<144.643 639>
AnchorPoint: "top" 174 780 basechar 0
LayerCount: 3
Fore
SplineSet
122 639 m 2
 60 639 l 2
 48 639 40 639 40 654 c 0
 40 669 47 669 60 669 c 0
 76 669 150 666 180 666 c 0
 210 666 272 669 295 669 c 0
 308 669 309 668 309 651 c 0
 309 639 307 639 291 639 c 2
 228 639 l 2
 218 639 217 537 217 481 c 2
 217 346 l 2
 217 210 218 27 227 27 c 2
 298 27 l 2
 309 27 309 26 309 14 c 0
 309 -1 308 -3 298 -3 c 0
 275 -3 208 0 178 0 c 0
 148 0 73 -3 50 -3 c 0
 37 -3 36 -2 36 15 c 0
 36 27 38 27 54 27 c 2
 122 27 l 2
 131 27 132 255 132 394 c 2
 132 492 l 2
 132 564 129 639 122 639 c 2
EndSplineSet
AlternateSubs2: "'aalt' Access All Alternates lookup 0 subtable" I.c2
AlternateSubs2: "'aalt' Access All Alternates in Latin lookup 0 subtable" I.c2
Substitution2: "'c2sc' Capitals to Small Capitals in Latin lookup 5 subtable" I.c2
EndChar

StartChar: J
Encoding: 74 74 35
Width: 354
VWidth: 0
Flags: W
HStem: -212 67<2.98201 111> 639 30<37.0058 126.75 224.755 295.986>
VStem: 132 89<-35.707 625.487>
AnchorPoint: "top" 170 780 basechar 0
LayerCount: 3
Fore
SplineSet
132 -5 m 2
 132 492 l 2
 132 564 129 639 122 639 c 2
 57 639 l 2
 45 639 37 639 37 654 c 0
 37 669 44 669 57 669 c 0
 73 669 150 666 180 666 c 0
 210 666 259 669 282 669 c 0
 295 669 296 668 296 651 c 0
 296 639 294 639 278 639 c 2
 228 639 l 2
 221 639 221 502 221 370 c 2
 221 130 l 2
 221 44 213 -65 135 -148 c 0
 106 -179 72 -212 26 -212 c 0
 3 -212 -27 -202 -27 -188 c 0
 -27 -153 33 -124 40 -124 c 0
 56 -124 71 -145 92 -145 c 0
 130 -145 132 -91 132 -5 c 2
EndSplineSet
AlternateSubs2: "'aalt' Access All Alternates lookup 0 subtable" J.c2
AlternateSubs2: "'aalt' Access All Alternates in Latin lookup 0 subtable" J.c2
Substitution2: "'c2sc' Capitals to Small Capitals in Latin lookup 5 subtable" J.c2
EndChar

StartChar: K
Encoding: 75 75 36
Width: 680
VWidth: 0
Flags: W
HStem: -3 30<49.0144 126.203 219.9 308.991 434.014 498.997 605.094 658.991> 310 21<214.433 264.5> 634 30<58.0058 126.402 221.932 299.986 415.006 486.997 536.078 613.986>
VStem: 130 84<48.7838 310 331 634>
DStem2: 334 354 270 302 0.655394 -0.755287<-19.8655 351.988>
AnchorPoint: "cedilla" 345 -100 basechar 0
LayerCount: 3
Fore
SplineSet
634 27 m 2
 648 27 l 2
 659 27 659 26 659 14 c 0
 659 -1 658 -3 648 -3 c 0
 625 -3 578 0 548 0 c 0
 518 0 471 -3 448 -3 c 0
 435 -3 434 -2 434 15 c 0
 434 27 436 27 452 27 c 2
 482 27 l 2
 495 27 499 29 499 31 c 0
 499 34 493 38 487 45 c 2
 270 302 l 2
 263 310 263 310 248 310 c 2
 228 310 l 2
 216 310 214 310 214 298 c 0
 214 172 214 27 225 27 c 2
 298 27 l 2
 309 27 309 26 309 14 c 0
 309 -1 308 -3 298 -3 c 0
 275 -3 208 0 178 0 c 0
 148 0 86 -3 63 -3 c 0
 50 -3 49 -2 49 15 c 0
 49 27 51 27 67 27 c 2
 122 27 l 2
 129 27 130 105 130 197 c 2
 130 487 l 2
 130 559 129 634 122 634 c 2
 78 634 l 2
 66 634 58 634 58 649 c 0
 58 664 65 664 78 664 c 0
 94 664 150 661 180 661 c 0
 210 661 263 664 286 664 c 0
 299 664 300 663 300 646 c 0
 300 634 298 634 282 634 c 2
 228 634 l 2
 218 634 214 532 214 476 c 2
 214 351 l 2
 214 337 215 331 227 331 c 2
 249 331 l 2
 274 331 441 566 478 613 c 0
 483 620 487 625 487 629 c 0
 487 632 483 634 472 634 c 2
 435 634 l 2
 423 634 415 634 415 649 c 0
 415 664 422 664 435 664 c 0
 451 664 490 661 520 661 c 0
 550 661 577 664 600 664 c 0
 613 664 614 663 614 646 c 0
 614 634 612 634 596 634 c 2
 547 634 l 2
 546 634 389 445 331 376 c 0
 321 365 324 366 334 354 c 2
 603 44 l 2
 612 34 620 27 634 27 c 2
EndSplineSet
AlternateSubs2: "'aalt' Access All Alternates lookup 0 subtable" K.c2
AlternateSubs2: "'aalt' Access All Alternates in Latin lookup 0 subtable" K.c2
Substitution2: "'c2sc' Capitals to Small Capitals in Latin lookup 5 subtable" K.c2
EndChar

StartChar: L
Encoding: 76 76 37
Width: 623
VWidth: 0
Flags: W
HStem: -3 30<43.0034 125.801> 0 31<221.315 538.987> 639 27<50.0272 128.717 222.941 314.985>
VStem: 131 87<68.5658 639> 542 22<38.4739 74.7009> 554 31<95 151.69>
AnchorPoint: "caron" 340 550 basechar 0
AnchorPoint: "cedilla" 335 -100 basechar 0
AnchorPoint: "top" 175 780 basechar 0
LayerCount: 3
Fore
SplineSet
226 31 m 0x78
 328 31 508 36 519 37 c 0
 535 38 539 38 542 60 c 2x78
 554 144 l 2
 555 149 559 152 565 152 c 0
 575 152 585 148 585 142 c 0x74
 585 134 568 37 564 8 c 0
 563 -1 552 -3 542 -3 c 0xb8
 519 -3 208 0 178 0 c 0x78
 148 0 79 -3 56 -3 c 0
 43 -3 43 -2 43 15 c 0
 43 27 44 27 60 27 c 2
 122 27 l 2xb8
 130 27 131 171 131 319 c 2
 131 550 l 2
 131 604 130 639 124 639 c 2
 66 639 l 2
 53 639 50 640 50 654 c 0
 50 668 54 669 70 669 c 0
 86 669 150 666 180 666 c 0
 210 666 275 669 298 669 c 0
 314 669 315 668 315 654 c 0
 315 642 313 639 297 639 c 2
 227 639 l 2
 219 639 218 521 218 424 c 2
 218 147 l 2
 218 80 220 31 226 31 c 0x78
EndSplineSet
AlternateSubs2: "'aalt' Access All Alternates lookup 0 subtable" L.c2
AlternateSubs2: "'aalt' Access All Alternates in Latin lookup 0 subtable" L.c2 L.CAT
Substitution2: "'c2sc' Capitals to Small Capitals in Latin lookup 5 subtable" L.c2
Substitution2: "catalan subtable" L.CAT
EndChar

StartChar: M
Encoding: 77 77 38
Width: 886
VWidth: 0
Flags: HW
HStem: -7 21G<408.5 413> -3 30<26.0144 91.0042 135.199 220.991 618.014 686.359 785.024 855.986> 626 40<141.555 156.438 677.321 685.162> 639 30<34.0091 112.998 774.895 843.986>
VStem: 95 38<27 323.928> 113 28<434.428 625.992> 691 82<222.811 447.932>
DStem2: 231 656 161 596 0.375555 -0.9268<-4.40325 588.973>
AnchorPoint: "top" 449 780 basechar 0
LayerCount: 3
Fore
SplineSet
394 21 m 2x86
 161 596 l 2
 152 617 148 626 145 626 c 0
 142 626 142 615 141 594 c 0xa6
 136 462 133 260 133 129 c 0
 133 68 135 27 138 27 c 2
 210 27 l 2x6a
 221 27 221 26 221 14 c 0x8a
 221 -1 220 -3 210 -3 c 0
 187 -3 152 0 122 0 c 0
 92 0 63 -3 40 -3 c 0
 27 -3 26 -2 26 15 c 0
 26 27 28 27 44 27 c 2
 86 27 l 2
 93 27 92 68 95 129 c 0x4a
 98 190 113 556 113 626 c 0x66
 113 636 110 639 91 639 c 2
 45 639 l 2
 34 639 34 640 34 652 c 0
 34 667 35 669 45 669 c 0x16
 59 669 131 666 152 666 c 0x26
 174 666 205 669 211 669 c 0x16
 222 669 226 668 231 656 c 2
 441 132 l 2
 447 117 449 110 452 110 c 0
 455 110 457 118 463 132 c 2
 659 643 l 2
 667 664 669 666 684 666 c 2
 730 666 l 2x26
 760 666 807 669 830 669 c 0
 843 669 844 668 844 651 c 0
 844 639 842 639 826 639 c 2
 780 639 l 2
 774 639 773 608 773 559 c 2
 773 469 l 2
 773 288 779 27 789 27 c 2
 843 27 l 2x56
 854 27 856 26 856 14 c 0x86
 856 -1 855 -3 845 -3 c 0
 822 -3 768 0 738 0 c 0
 708 0 655 -3 632 -3 c 0
 619 -3 618 -2 618 15 c 0
 618 27 620 27 636 27 c 2
 682 27 l 2x46
 689 27 691 106 691 204 c 0
 691 321 687 621 684 621 c 0
 680 621 554 284 482 109 c 0
 463 63 450 60 426 12 c 0
 420 -1 415 -7 411 -7 c 0
 406 -7 401 4 394 21 c 2x86
EndSplineSet
AlternateSubs2: "'aalt' Access All Alternates lookup 0 subtable" M.c2
AlternateSubs2: "'aalt' Access All Alternates in Latin lookup 0 subtable" M.c2
Substitution2: "'c2sc' Capitals to Small Capitals in Latin lookup 5 subtable" M.c2
EndChar

StartChar: N
Encoding: 78 78 39
Width: 793
VWidth: 0
Flags: W
HStem: -18 21G<665.5 670.5> 0 27<26.0062 96.3708 139.405 238.999> 614 52<138.954 157.998> 639 30<29.0091 108 547.009 652.863 692.707 759.986>
VStem: 100 37<27 323.502> 108 30<448.5 613.996> 653 38<379.939 639>
DStem2: 227 656 158 596 0.635345 -0.772228<-21.476 670.077>
AnchorPoint: "cedilla" 400 -100 basechar 0
AnchorPoint: "top" 407 780 basechar 0
LayerCount: 3
Fore
SplineSet
227 656 m 2x16
 633 157 l 2
 642 146 648 137 651 137 c 0
 654 137 655 145 655 165 c 2
 655 207 l 2
 655 305 653 482 653 583 c 0
 653 617 653 639 652 639 c 2
 558 639 l 2
 547 639 547 640 547 652 c 0
 547 667 548 669 558 669 c 0x16
 581 669 634 666 664 666 c 0x26
 694 666 723 669 746 669 c 0
 759 669 760 668 760 651 c 0
 760 639 758 639 742 639 c 2
 695 639 l 2x16
 694 639 691 617 691 580 c 0
 690 425 678 15 678 4 c 0
 678 -12 673 -18 668 -18 c 0
 663 -18 656 -9 650 -2 c 2
 158 596 l 2
 150 606 145 614 142 614 c 0
 140 614 139 609 139 594 c 0
 138 569 138 525 138 472 c 0xa6
 138 366 137 224 137 129 c 0
 137 68 139 27 142 27 c 2
 228 27 l 2
 239 27 239 26 239 14 c 0
 239 -1 238 -3 228 -3 c 0
 205 -3 152 0 122 0 c 0
 92 0 63 -3 40 -3 c 0
 27 -3 26 -2 26 15 c 0
 26 27 28 27 44 27 c 2
 88 27 l 2
 101 27 98 68 100 129 c 0x6a
 105 301 108 639 108 639 c 1
 40 639 l 2
 29 639 29 640 29 652 c 0
 29 667 30 669 40 669 c 0x56
 54 669 131 666 152 666 c 0x26
 174 666 201 669 207 669 c 0
 218 669 219 666 227 656 c 2x16
EndSplineSet
AlternateSubs2: "'aalt' Access All Alternates lookup 0 subtable" N.c2
AlternateSubs2: "'aalt' Access All Alternates in Latin lookup 0 subtable" N.c2
Substitution2: "'c2sc' Capitals to Small Capitals in Latin lookup 5 subtable" N.c2
EndChar

StartChar: O
Encoding: 79 79 40
Width: 769
VWidth: 0
Flags: W
HStem: -11 28<304.099 450.995> 647 28<309.654 451.359>
VStem: 47 94<201.641 449.172> 617 92<200.495 453.106>
AnchorPoint: "top" 377 780 basechar 0
LayerCount: 3
Fore
SplineSet
372 -11 m 0
 212 -11 47 104 47 318 c 0
 47 534 203 675 387 675 c 0
 585 675 709 518 709 324 c 0
 709 124 569 -11 372 -11 c 0
373 17 m 0
 538 17 617 179 617 333 c 0
 617 486 540 647 377 647 c 0
 234 647 141 498 141 345 c 0
 141 165 228 17 373 17 c 0
EndSplineSet
AlternateSubs2: "'aalt' Access All Alternates lookup 0 subtable" O.c2
AlternateSubs2: "'aalt' Access All Alternates in Latin lookup 0 subtable" O.c2
Substitution2: "'c2sc' Capitals to Small Capitals in Latin lookup 5 subtable" O.c2
EndChar

StartChar: P
Encoding: 80 80 41
Width: 562
VWidth: 0
Flags: HW
HStem: 0 27<33.0062 104.382 193.917 279.999> 293 19<192.78 307.539> 634 28<23.0233 109.039> 641 21<193.66 308.386>
VStem: 111 81<228.579 292.996 312.676 633.469> 441 86<396.879 558.372>
AnchorPoint: "top" 287 780 basechar 0
LayerCount: 3
Fore
SplineSet
441 486 m 0xdc
 441 583 349 641 230 641 c 0
 219 641 208 641 197 640 c 0
 193 640 192 616 192 586 c 2
 192 325 l 2
 192 313 214 312 230 312 c 0
 344 312 441 357 441 486 c 0xdc
527 471 m 0
 527 343 429 290 288 290 c 0
 252 290 229 293 201 293 c 0
 191 293 191 288 191 282 c 2
 191 216 l 2
 191 136 192 27 196 27 c 2
 269 27 l 2
 280 27 280 26 280 14 c 0
 280 -1 279 -3 269 -3 c 0
 246 -3 184 0 154 0 c 0
 124 0 56 -3 47 -3 c 0
 34 -3 33 -2 33 15 c 0
 33 27 35 27 51 27 c 2
 102 27 l 2
 110 27 111 343 111 474 c 2
 111 526 l 2
 111 589 110 634 106 634 c 2xec
 43 632 l 2
 31 632 23 634 23 649 c 0
 23 664 30 664 43 664 c 0
 59 664 126 662 156 662 c 0
 186 662 264 667 287 667 c 0
 423 667 527 606 527 471 c 0
EndSplineSet
AlternateSubs2: "'aalt' Access All Alternates lookup 0 subtable" P.c2
AlternateSubs2: "'aalt' Access All Alternates in Latin lookup 0 subtable" P.c2
Substitution2: "'c2sc' Capitals to Small Capitals in Latin lookup 5 subtable" P.c2
EndChar

StartChar: Q
Encoding: 81 81 42
Width: 773
VWidth: 0
Flags: W
HStem: -187 63<530.977 680.317> -122 56<155.803 247.822> 3 15<377 429> 647 28<301.829 452.465>
VStem: 40 87<232.614 466.805> 635 98<220.12 459.104>
LayerCount: 3
Fore
SplineSet
429 18 m 0
 460 18 635 108 635 332 c 0
 635 485 540 647 377 647 c 0
 234 647 127 509 127 356 c 0
 127 264 161 177 212 119 c 0
 269 54 406 18 429 18 c 0
40 340 m 0
 40 556 203 675 387 675 c 0
 585 675 733 534 733 340 c 0
 733 179 632 55 489 14 c 0
 457 5 300 -65 300 -67 c 0
 300 -71 396 -70 454 -83 c 0
 522 -98 590 -124 634 -124 c 0
 702 -124 734 -94 740 -94 c 0
 743 -94 754 -103 754 -111 c 0
 754 -124 672 -187 598 -187 c 0
 461 -187 303 -104 249 -104 c 0
 224 -104 190 -122 182 -122 c 0
 169 -122 146 -91 146 -80 c 0
 146 -68 154 -65 171 -65 c 0
 178 -65 186 -66 193 -66 c 0
 210 -66 229 -65 250 -60 c 0
 284 -51 391 -3 391 1 c 0
 391 2 384 2 377 3 c 0
 199 25 40 118 40 340 c 0
EndSplineSet
AlternateSubs2: "'aalt' Access All Alternates lookup 0 subtable" Q.c2
AlternateSubs2: "'aalt' Access All Alternates in Latin lookup 0 subtable" Q.c2
Substitution2: "'c2sc' Capitals to Small Capitals in Latin lookup 5 subtable" Q.c2
EndChar

StartChar: R
Encoding: 82 82 43
Width: 636
VWidth: 0
Flags: W
HStem: 0 27<42.0062 107.708 198.539 272.999 555.286 623.719> 312 21<190.041 358.746> 634 28<23.0233 102.458> 642 26<192.754 319.928>
VStem: 110 80<57.415 312.996 334.909 535.205> 434 85<425.824 560.972> 466 86<27 195.779>
AnchorPoint: "cedilla" 345 -100 basechar 0
AnchorPoint: "top" 280 780 basechar 0
LayerCount: 3
Fore
SplineSet
334 333 m 0xdc
 338 333 342 332 346 334 c 0
 394 356 434 400 434 484 c 0
 434 583 343 642 249 642 c 0
 232 642 214 641 197 640 c 0
 193 640 190 616 190 586 c 2
 190 345 l 2
 190 337 192 335 206 335 c 0
 249 334 300 334 334 333 c 0xdc
201 27 m 2
 262 27 l 2
 273 27 273 26 273 14 c 0
 273 -1 272 -3 262 -3 c 0
 239 -3 184 0 154 0 c 0
 124 0 65 -3 56 -3 c 0
 43 -3 42 -2 42 15 c 0
 42 27 44 27 60 27 c 2
 105 27 l 2
 109 27 110 85 110 156 c 2
 110 289 l 2
 110 436 109 634 98 634 c 2
 43 632 l 2
 31 632 23 634 23 649 c 0
 23 664 30 664 43 664 c 0
 59 664 126 662 156 662 c 0xea
 186 662 278 668 301 668 c 0
 401 668 519 638 519 498 c 0xdc
 519 406 427 354 385 335 c 0
 372 329 365 328 365 327 c 0
 365 326 371 326 385 322 c 0
 448 303 546 256 552 92 c 0
 554 35 555 27 566 27 c 2
 612 27 l 2
 621 27 624 26 624 5 c 0
 624 0 619 -3 607 -3 c 0
 573 -3 474 0 474 0 c 2
 467 0 466 0 466 8 c 2
 466 66 l 2xda
 466 186 456 309 293 312 c 0
 272 312 229 313 201 313 c 0
 191 313 190 308 190 302 c 0
 190 240 195 27 201 27 c 2
EndSplineSet
AlternateSubs2: "'aalt' Access All Alternates lookup 0 subtable" R.c2
AlternateSubs2: "'aalt' Access All Alternates in Latin lookup 0 subtable" R.c2
Substitution2: "'c2sc' Capitals to Small Capitals in Latin lookup 5 subtable" R.c2
EndChar

StartChar: S
Encoding: 83 83 44
Width: 557
VWidth: 0
Flags: W
HStem: -15 33<197.386 357.019> 642 20G<450.5 465.5> 649 28<224.238 345.36>
VStem: 70 83<456.399 570.215> 76 33<66.7188 188.692> 86 29<62.6491 174.286> 426 82<91.0381 200.329> 440 32<475.003 578.814 627.001 661.975>
AnchorPoint: "cedilla" 293 -100 basechar 0
AnchorPoint: "top" 284 780 basechar 0
LayerCount: 3
Fore
SplineSet
286 649 m 0xb1
 210 649 153 594 153 520 c 0xb1
 153 334 508 411 508 178 c 0
 508 54 395 -15 284 -15 c 0
 173 -15 87 21 86 31 c 0xa6
 84 67 76 161 76 175 c 0
 76 183 78 189 88 189 c 2
 93 189 l 2
 105 189 108 185 109 173 c 2xa8
 115 81 l 2xa4
 117 51 235 18 293 18 c 0
 364 18 426 70 426 139 c 0
 426 318 70 256 70 488 c 0
 70 600 176 677 284 677 c 0xb2
 320 677 363 673 419 635 c 0
 424 631 430 627 435 627 c 0
 439 627 441 629 442 637 c 2
 443 648 l 2
 443 659 443 662 458 662 c 0xd2
 473 662 477 660 477 648 c 0
 477 637 472 542 472 491 c 0
 472 479 469 475 456 475 c 0
 438 475 437 478 437 487 c 0
 437 491 440 542 440 551 c 0
 440 576 360 649 286 649 c 0xb1
EndSplineSet
Layer: 2
SplineSet
286 656 m 4xd1
 210 656 153 604 153 530 c 4xd1
 153 332 508 426 508 178 c 4
 508 54 395 -15 284 -15 c 4
 173 -15 87 21 86 31 c 4xc6
 84 67 76 161 76 175 c 4
 76 183 78 189 88 189 c 4
 104 190 108 187 109 173 c 6xc8
 115 81 l 6xc4
 116 58 222 19 282 19 c 4
 357 19 418 65 418 134 c 4
 418 322 66 260 66 488 c 4
 66 600 176 684 284 684 c 4xd2
 320 684 363 682 419 644 c 4
 428 637 439 627 440 644 c 6
 441 663 l 6
 441 674 441 677 456 677 c 4xb2
 471 677 475 675 475 663 c 4
 475 652 470 549 470 498 c 4
 470 486 467 482 454 482 c 4
 436 482 435 485 435 494 c 4
 435 498 438 549 438 558 c 4
 438 583 360 656 286 656 c 4xd1
EndSplineSet
AlternateSubs2: "'aalt' Access All Alternates lookup 0 subtable" S.c2
AlternateSubs2: "'aalt' Access All Alternates in Latin lookup 0 subtable" S.c2
Substitution2: "'c2sc' Capitals to Small Capitals in Latin lookup 5 subtable" S.c2
EndChar

StartChar: T
Encoding: 84 84 45
Width: 718
VWidth: 0
Flags: W
HStem: 0 27<225.006 307.656 404.386 490.999> 635 28<77.4627 316.578 414.881 648.959> 666 20G<56.5 68 660 671>
VStem: 31 33<535.027 622> 48 29<584.308 631.42 664.95 685.992> 319 85<300.101 635> 649 28<535.027 631.338 666.781 685.986>
AnchorPoint: "cedilla" 361 -100 basechar 0
LayerCount: 3
Fore
SplineSet
677 545 m 0xee
 677 537 675 535 661 535 c 0
 649 535 646 539 646 549 c 0
 646 554 649 621 649 627 c 0
 649 633 593 635 536 635 c 2
 420 635 l 2
 410 635 411 534 410 477 c 0
 410 474 404 217 404 92 c 0
 404 53 404 27 406 27 c 2
 480 27 l 2
 491 27 491 26 491 14 c 0
 491 -1 490 -3 480 -3 c 0
 457 -3 390 0 360 0 c 0
 330 0 262 -3 239 -3 c 0
 226 -3 225 -2 225 15 c 0
 225 27 227 27 243 27 c 2
 305 27 l 2
 315 27 319 436 319 545 c 0
 319 594 318 635 312 635 c 2
 168 635 l 2
 116 635 72 633 71 622 c 2
 64 552 l 2
 63 539 60 535 51 535 c 0
 41 535 31 535 31 544 c 0xf6
 31 546 44 622 48 672 c 0xee
 49 685 49 686 64 686 c 0xf6
 72 686 77 686 77 680 c 2
 77 669 l 2
 77 663 132 663 185 663 c 2
 542 663 l 2
 600 663 650 664 651 674 c 0
 652 684 656 686 664 686 c 0
 678 686 681 685 681 675 c 0
 681 656 677 623 677 545 c 0xee
EndSplineSet
AlternateSubs2: "'aalt' Access All Alternates lookup 0 subtable" T.c2
AlternateSubs2: "'aalt' Access All Alternates in Latin lookup 0 subtable" T.c2
Substitution2: "'c2sc' Capitals to Small Capitals in Latin lookup 5 subtable" T.c2
EndChar

StartChar: U
Encoding: 85 85 46
Width: 744
VWidth: 0
Flags: W
HStem: -11 45<261.072 431.366> 634 30<30.0044 89.2503 182.192 267.986 493.006 566.981 658.384 704.986>
VStem: 89 82<122.808 474.285> 569 81<90.2761 560.192>
AnchorPoint: "top" 374 780 basechar 0
LayerCount: 3
Fore
SplineSet
622 -7 m 0
 602 -7 583 66 560 66 c 0
 552 66 532 56 514 46 c 0
 467 19 384 -11 308 -11 c 0
 106 -11 89 105 89 227 c 0
 89 260 90 496 90 575 c 0
 90 611 90 634 85 634 c 2
 48 634 l 2
 36 634 30 634 30 649 c 0
 30 664 35 664 48 664 c 0
 64 664 110 661 140 661 c 0
 170 661 231 664 254 664 c 0
 267 664 268 663 268 646 c 0
 268 634 266 634 250 634 c 2
 185 634 l 2
 176 634 171 272 171 228 c 0
 171 101 230 34 372 34 c 0
 457 34 516 69 544 88 c 0
 569 105 569 102 569 247 c 2
 569 552 l 2
 569 598 568 634 562 634 c 2
 513 634 l 2
 501 634 493 634 493 649 c 0
 493 664 500 664 513 664 c 0
 529 664 583 661 613 661 c 0
 643 661 681 664 691 664 c 0
 704 664 705 663 705 646 c 0
 705 634 703 634 687 634 c 2
 663 634 l 2
 652 634 654 472 650 317 c 0
 647 180 643 46 643 25 c 0
 643 17 642 -7 622 -7 c 0
EndSplineSet
Layer: 2
SplineSet
622 -3 m 4
 602 -3 583 70 560 70 c 4
 552 70 532 60 514 50 c 4
 467 23 384 -7 308 -7 c 4
 106 -7 89 109 89 231 c 4
 89 264 90 496 90 575 c 4
 90 611 90 634 85 634 c 6
 48 634 l 6
 36 634 30 634 30 649 c 4
 30 664 35 664 48 664 c 4
 64 664 110 661 140 661 c 4
 170 661 231 664 254 664 c 4
 267 664 268 663 268 646 c 4
 268 634 266 634 250 634 c 6
 185 634 l 6
 176 634 171 276 171 232 c 4
 171 105 230 38 372 38 c 4
 457 38 516 73 544 92 c 4
 569 109 569 106 569 251 c 6
 569 552 l 6
 569 598 568 634 562 634 c 6
 513 634 l 6
 501 634 493 634 493 649 c 4
 493 664 500 664 513 664 c 4
 529 664 583 661 613 661 c 4
 643 661 681 664 691 664 c 4
 704 664 705 663 705 646 c 4
 705 634 703 634 687 634 c 6
 663 634 l 6
 652 634 654 476 650 321 c 4
 647 184 643 50 643 29 c 4
 643 21 642 -3 622 -3 c 4
EndSplineSet
AlternateSubs2: "'aalt' Access All Alternates lookup 0 subtable" U.c2
AlternateSubs2: "'aalt' Access All Alternates in Latin lookup 0 subtable" U.c2
Substitution2: "'c2sc' Capitals to Small Capitals in Latin lookup 5 subtable" U.c2
EndChar

StartChar: V
Encoding: 86 86 47
Width: 721
VWidth: 0
Flags: W
HStem: -25 119<346.5 397.5> 634 30<40.0044 95.7115 203.001 293.986 493.004 590.993 654.672 704.986>
LayerCount: 3
Fore
SplineSet
352 -25 m 0
 341 -25 334 29 298 110 c 0
 295 116 96 634 89 634 c 2
 58 634 l 2
 46 634 40 634 40 649 c 0
 40 664 45 664 58 664 c 0
 74 664 120 661 150 661 c 0
 180 661 257 664 280 664 c 0
 293 664 294 663 294 646 c 0
 294 634 292 634 276 634 c 2
 205 634 l 2
 204 634 203 632 203 629 c 0
 203 618 209 594 215 578 c 0
 252 470 333 249 374 142 c 0
 386 112 394 94 396 94 c 0
 399 94 408 111 419 140 c 0
 471.480214251 275.706412608 591 567 591 618 c 0
 591 628 590 634 582 634 c 2
 511 634 l 2
 499 634 493 634 493 649 c 0
 493 664 495 664 508 664 c 0
 524 664 583 661 613 661 c 0
 643 661 681 664 691 664 c 0
 704 664 705 663 705 646 c 0
 705 634 703 634 687 634 c 0
 660 634 659 629 651 611 c 2
 420 68 l 2
 409 43 404 42 393 26 c 0
 372 -4 368 -25 352 -25 c 0
EndSplineSet
AlternateSubs2: "'aalt' Access All Alternates lookup 0 subtable" V.c2
AlternateSubs2: "'aalt' Access All Alternates in Latin lookup 0 subtable" V.c2
Substitution2: "'c2sc' Capitals to Small Capitals in Latin lookup 5 subtable" V.c2
EndChar

StartChar: W
Encoding: 87 87 48
Width: 1029
VWidth: 0
Flags: W
HStem: -25 131<272 327.5> -25 115<648 704> 634 30<12.0058 72.5736 165.006 242.986 377.004 460.785 555.001 638.973 798.004 888.993 949.672 999.994>
VStem: 490 65<512.641 597.743>
DStem2: 342 142 349 68 0.356622 0.934249<-39.2803 359.122> 573 526 481 556 0.267867 -0.963456<-99.0897 -21.6311 40.0633 454.547>
AnchorPoint: "top" 504 780 basechar 0
LayerCount: 3
Fore
SplineSet
657 -25 m 0x70
 639 -25 631 32 605 110 c 0
 604 113 555 293 513 440 c 0
 508 457 506 465 503 465 c 0
 500 465 497 456 491 440 c 2
 349 68 l 2
 339 43 333 42 322 26 c 0
 301 -4 294 -25 281 -25 c 0
 263 -25 255 32 229 110 c 0
 227 116 74 634 67 634 c 2
 32 634 l 2
 20 634 12 634 12 649 c 0
 12 664 19 664 32 664 c 0
 48 664 95 661 125 661 c 0
 155 661 206 664 229 664 c 0
 242 664 243 663 243 646 c 0
 243 634 241 634 225 634 c 2
 175 634 l 2
 173 634 165 634 165 625 c 0
 165 620 189 536 192 526 c 0
 235 380 307 162 313 142 c 0
 321 118 323 106 326 106 c 0xb0
 329 106 333 118 342 142 c 2
 485 507 l 2
 488 515 490 520 490 525 c 0
 490 533 485 540 481 556 c 0
 468 602 456 634 454 634 c 2
 394 634 l 2
 382 634 377 634 377 649 c 0
 377 664 381 664 394 664 c 0
 410 664 475 661 505 661 c 0
 535 661 602 664 625 664 c 0
 638 664 639 663 639 646 c 0
 639 634 635 634 622 634 c 2
 558 634 l 2
 556 634 555 630 555 625 c 0
 555 601 570 538 573 526 c 0
 611 386 677 163 683 142 c 0
 694 108 697 90 702 90 c 0
 706 90 711 107 724 140 c 0
 775 276 889 567 889 618 c 0
 889 628 888 634 880 634 c 2
 815 634 l 2
 803 634 798 634 798 649 c 0
 798 664 802 664 815 664 c 0
 831 664 888 661 918 661 c 0
 948 661 976 664 986 664 c 0
 999 664 1000 662 1000 648 c 0
 1000 636 998 634 982 634 c 0
 955 634 954 629 946 611 c 2
 725 68 l 2
 715 43 709 42 698 26 c 0
 677 -4 670 -25 657 -25 c 0x70
EndSplineSet
AlternateSubs2: "'aalt' Access All Alternates lookup 0 subtable" W.c2
AlternateSubs2: "'aalt' Access All Alternates in Latin lookup 0 subtable" W.c2
Substitution2: "'c2sc' Capitals to Small Capitals in Latin lookup 5 subtable" W.c2
EndChar

StartChar: X
Encoding: 88 88 49
Width: 652
VWidth: 0
Flags: W
HStem: -3 30<24.0029 92.1663 135.002 219.986 392.014 465.404 576.945 641.996> 634 30<49.0044 116.418 230.104 294.986 431.014 507.999 560.511 614.997>
DStem2: 151 127 147 52 0.58854 0.808468<-86.912 227.199 352.28 616.092>
LayerCount: 3
Fore
SplineSet
295 336 m 0
 295 337 114 634 106 634 c 2
 67 634 l 2
 55 634 49 634 49 649 c 0
 49 664 54 664 67 664 c 0
 83 664 154 661 184 661 c 0
 214 661 258 664 281 664 c 0
 294 664 295 663 295 646 c 0
 295 634 293 634 277 634 c 2
 236 634 l 2
 221 634 222 633 228 619 c 0
 249 568 317 447 349 392 c 0
 353 387 355 382 356 382 c 0
 359 382 434 498 445 515 c 0
 478 564 508 613 508 630 c 0
 508 633 507 634 505 634 c 2
 449 634 l 2
 433 634 431 634 431 646 c 0
 431 663 432 664 445 664 c 0
 468 664 493 661 523 661 c 0
 553 661 583 664 599 664 c 0
 612 664 615 664 615 649 c 0
 615 634 611 634 599 634 c 2
 573 634 l 2
 572 634 552 610 527 574 c 0
 468 489 395 397 375 367 c 0
 370 359 370 361 375 353 c 0
 407 302 582 27 589 27 c 2
 624 27 l 2
 636 27 642 27 642 12 c 0
 642 -3 637 -3 624 -3 c 0
 608 -3 552 0 522 0 c 0
 492 0 429 -3 406 -3 c 0
 393 -3 392 -2 392 15 c 0
 392 27 394 27 410 27 c 2
 460 27 l 2
 475 27 475 28 468 42 c 0
 442 94 361 228 323 292 c 0
 317 302 318 306 310 294 c 0
 281 253 185 114 147 52 c 0
 140 40 135 34 135 31 c 0
 135 28 138 27 148 27 c 2
 202 27 l 2
 218 27 220 27 220 15 c 0
 220 -2 219 -3 206 -3 c 0
 183 -3 153 0 123 0 c 0
 93 0 56 -3 40 -3 c 0
 27 -3 24 -3 24 12 c 0
 24 27 28 27 40 27 c 2
 77 27 l 2
 85 27 114 73 151 127 c 0
 195 192 247 254 295 316 c 0
 301 324 301 327 295 336 c 0
EndSplineSet
AlternateSubs2: "'aalt' Access All Alternates lookup 0 subtable" X.c2
AlternateSubs2: "'aalt' Access All Alternates in Latin lookup 0 subtable" X.c2
Substitution2: "'c2sc' Capitals to Small Capitals in Latin lookup 5 subtable" X.c2
EndChar

StartChar: Y
Encoding: 89 89 50
Width: 652
VWidth: 0
Flags: W
HStem: 0 27<206.006 280.553 377.033 462.999> 639 30<33.0044 89.4531 200.173 282.986 426.014 501.999 548.946 609.997>
VStem: 286 85<61.335 316.849>
AnchorPoint: "top" 351 780 basechar 0
LayerCount: 3
Fore
SplineSet
381 27 m 2
 452 27 l 2
 463 27 463 26 463 14 c 0
 463 -1 462 -3 452 -3 c 0
 429 -3 362 0 332 0 c 0
 302 0 243 -3 220 -3 c 0
 207 -3 206 -2 206 15 c 0
 206 27 208 27 224 27 c 2
 276 27 l 2
 285 27 286 137 286 271 c 0
 286 283 283 287 279 294 c 0
 245 356 88 639 80 639 c 2
 51 639 l 2
 39 639 33 639 33 654 c 0
 33 669 38 669 51 669 c 0
 67 669 124 666 154 666 c 0
 184 666 246 669 269 669 c 0
 282 669 283 668 283 651 c 0
 283 639 281 639 265 639 c 2
 206 639 l 2
 191 639 192 638 198 624 c 0
 219 573 311 407 340 351 c 0
 345 341 348 334 351 334 c 0
 354 334 357 339 362 348 c 0
 397 416 502 610 502 636 c 0
 502 638 501 639 500 639 c 2
 444 639 l 2
 428 639 426 639 426 651 c 0
 426 668 427 669 440 669 c 0
 463 669 488 666 518 666 c 0
 548 666 578 669 594 669 c 0
 607 669 610 669 610 654 c 0
 610 639 606 639 594 639 c 2
 558 639 l 2
 553 639 421 398 374 324 c 0
 371 319 371 316 371 313 c 0
 371 191 372 27 381 27 c 2
EndSplineSet
AlternateSubs2: "'aalt' Access All Alternates lookup 0 subtable" Y.c2
AlternateSubs2: "'aalt' Access All Alternates in Latin lookup 0 subtable" Y.c2
Substitution2: "'c2sc' Capitals to Small Capitals in Latin lookup 5 subtable" Y.c2
EndChar

StartChar: Z
Encoding: 90 90 51
Width: 620
VWidth: 0
Flags: W
HStem: -0 37<157.002 519.611> 629 32<89.0182 421.996>
VStem: 39 33<526.49 625.883> 60 29<662.293 681.977> 523 35<37.0001 154.994>
AnchorPoint: "top" 301 780 basechar 0
LayerCount: 3
Fore
SplineSet
63 526 m 0xe8
 51 526 39 529 39 535 c 0xe8
 39 542 52 614 60 676 c 0
 60 679 64 682 76 682 c 0
 83 682 89 680 89 676 c 2
 89 670 l 2xd8
 89 663 95 661 148 661 c 2
 529 661 l 2
 541 661 546 659 546 646 c 0
 546 631 309 303 167 60 c 0
 162 52 157 46 157 42 c 0
 157 39 160 37 168 37 c 2
 505 37 l 2
 521 37 518 37 520 60 c 0
 522 85 522 108 523 147 c 0
 523 153 533 155 541 155 c 0
 550 155 558 153 558 146 c 0
 558 96 555 38 555 8 c 0
 555 -1 543 -3 533 -3 c 0
 421 -3 139 0 35 -0 c 0
 28 0 27 1 27 15 c 0
 27 27 261 372 417 617 c 0
 420 621 422 624 422 626 c 0
 422 629 417 629 398 629 c 2
 96 629 l 2
 86 629 87 628 85 619 c 0
 81 596 73 545 72 541 c 0
 70 533 69 526 63 526 c 0xe8
EndSplineSet
AlternateSubs2: "'aalt' Access All Alternates lookup 0 subtable" Z.c2
AlternateSubs2: "'aalt' Access All Alternates in Latin lookup 0 subtable" Z.c2
Substitution2: "'c2sc' Capitals to Small Capitals in Latin lookup 5 subtable" Z.c2
EndChar

StartChar: zero
Encoding: 48 48 52
Width: 455
VWidth: 0
Flags: W
HStem: -5 48<137.905 309.804> 340 40<147.719 302.217>
VStem: 33 33<122.806 253.343> 380 37<121.989 266.535>
LayerCount: 3
Fore
SplineSet
33 189 m 0
 33 300 119 380 226 380 c 0
 348 380 417 292 417 188 c 0
 417 75 330 -5 220 -5 c 0
 116 -5 33 85 33 189 c 0
380 202 m 0
 380 283 304 340 222 340 c 0
 139 340 66 272 66 189 c 0
 66 100 136 43 219 43 c 0
 331 43 380 116 380 202 c 0
EndSplineSet
AlternateSubs2: "'aalt' Access All Alternates lookup 0 subtable" zero.u
AlternateSubs2: "'aalt' Access All Alternates in Latin lookup 0 subtable" zero.u
Substitution2: "lining_figures subtable" zero.u
EndChar

StartChar: one
Encoding: 49 49 53
Width: 370
VWidth: 0
Flags: W
HStem: -2 27<81.0008 148.046 220.954 283.999> 363 27<84.0008 147 223 286.999>
VStem: 149 71<25 363>
LayerCount: 3
Fore
SplineSet
147 351 m 0
 147 360 147 363 137 363 c 2
 95 363 l 2
 85 363 84 367 84 376 c 0
 84 385 84 390 95 390 c 0
 114 390 161 388 186 388 c 0
 211 388 257 390 276 390 c 0
 287 390 287 387 287 376 c 0
 287 367 286 363 273 363 c 2
 234 363 l 2
 223 363 224 361 223 351 c 0
 220 293 220 196 220 117 c 0
 220 90 220 64 221 37 c 0
 221 28 223 25 233 25 c 2
 273 25 l 2
 283 25 284 21 284 12 c 0
 284 3 284 -2 273 -2 c 0
 254 -2 207 0 182 0 c 0
 157 0 111 -2 92 -2 c 0
 81 -2 81 1 81 12 c 0
 81 21 82 25 95 25 c 2
 137 25 l 2
 148 25 148 27 148 37 c 0
 149 66 149 95 149 125 c 2
 149 214 l 2
 149 260 149 307 147 351 c 0
EndSplineSet
AlternateSubs2: "'aalt' Access All Alternates lookup 0 subtable" one.u
AlternateSubs2: "'aalt' Access All Alternates in Latin lookup 0 subtable" one.u
Substitution2: "lining_figures subtable" one.u
EndChar

StartChar: two
Encoding: 50 50 54
Width: 441
VWidth: 0
Flags: W
HStem: 0 58<113.001 365.729> 364 42<110.842 224.985>
VStem: 254 68<216.89 335.827>
LayerCount: 3
Fore
SplineSet
254 270 m 0
 254 330 219 364 170 364 c 0
 102 364 46 303 41 303 c 0
 35 303 24 316 24 323 c 0
 24 338 119 406 194 406 c 0
 268 406 322 351 322 280 c 0
 322 195 201 112 141 77 c 0
 122 66 113 61 113 59 c 0
 113 58 115 58 120 58 c 2
 352 58 l 2
 359 58 385 124 389 124 c 0
 394 124 407 120 407 117 c 0
 407 106 389 38 380 6 c 0
 378 1 376 0 369 -0 c 2
 43 0 l 2
 32 0 28 5 28 11 c 0
 28 17 35 24 40 28 c 0
 92 77 254 148 254 270 c 0
EndSplineSet
AlternateSubs2: "'aalt' Access All Alternates lookup 0 subtable" two.u
AlternateSubs2: "'aalt' Access All Alternates in Latin lookup 0 subtable" two.u
Substitution2: "lining_figures subtable" two.u
EndChar

StartChar: three
Encoding: 51 51 55
Width: 405
VWidth: 0
Flags: W
HStem: -213 25<123 216.696> 89 44<77.7712 159.8 171.01 251.01> 369 38<101.894 213.563>
VStem: 249 61<214.867 337.579> 297 63<-111.035 44.0898>
LayerCount: 3
Fore
SplineSet
360 -27 m 0xe8
 360 -137 260 -213 161 -213 c 0
 112 -213 18 -192 18 -164 c 0
 18 -154 36 -144 56 -144 c 0
 73 -144 82 -150 97 -159 c 0
 117 -171 130 -188 171 -188 c 0
 234 -188 297 -117 297 -39 c 0xe8
 297 55 249 92 146 92 c 0
 125 92 98 89 93 89 c 0
 82 89 82 98 79 107 c 0
 78 110 77 113 77 116 c 0
 77 127 88 130 98 133 c 0
 197 161 249 198 249 272 c 0
 249 323 215 369 164 369 c 0
 89 369 58 319 52 319 c 0
 44 319 34 328 34 336 c 0
 34 348 104 407 176 407 c 0
 258 407 310 358 310 284 c 0xf0
 310 216 265 182 219 162 c 0
 193 151 171 141 171 139 c 0
 171 136 185 136 213 134 c 0
 298 127 360 85 360 -27 c 0xe8
EndSplineSet
AlternateSubs2: "'aalt' Access All Alternates lookup 0 subtable" three.u
AlternateSubs2: "'aalt' Access All Alternates in Latin lookup 0 subtable" three.u
Substitution2: "lining_figures subtable" three.u
EndChar

StartChar: four
Encoding: 52 52 56
Width: 503
VWidth: 0
Flags: W
HStem: -0 54<97.0044 309 372.29 450> 374 20G<350.5 361>
VStem: 44 53<4.5 63> 309 72<-210.463 -1.50067e-11> 309 61<-198.683 -1.50067e-11 54 315.995>
DStem2: 128 138 114 85 0.638018 0.770022<-79.6188 248.411>
LayerCount: 3
Fore
SplineSet
370 368 m 2xe8
 370 72 l 2xe8
 370 54 371 54 385 54 c 2
 443 54 l 2
 449 54 450 54 450 44 c 2
 450 10 l 2
 450 0 450 0 438 0 c 2
 386 0 l 2
 372 0 371 0 372 -14 c 0
 375 -75 381 -194 381 -199 c 0
 381 -206 378 -209 365 -210 c 2
 320 -214 l 2
 314 -214 309 -210 309 -201 c 2
 309 -15 l 2xf0
 309 0 308 0 293 0 c 2
 62 -0 l 2
 54 0 44 1 44 8 c 0
 44 34 104 110 128 138 c 2
 261 298 l 2
 269 307 344 394 357 394 c 0
 365 394 370 387 370 368 c 2xe8
288 295 m 2
 114 85 l 2
 105 74 97 66 97 60 c 0
 97 56 103 54 122 54 c 2
 290 54 l 2
 308 54 309 55 309 74 c 2
 309 290 l 2
 309 309 309 316 306 316 c 0
 304 316 297 306 288 295 c 2
EndSplineSet
AlternateSubs2: "'aalt' Access All Alternates lookup 0 subtable" four.u
AlternateSubs2: "'aalt' Access All Alternates in Latin lookup 0 subtable" four.u
Substitution2: "lining_figures subtable" four.u
EndChar

StartChar: five
Encoding: 53 53 57
Width: 424
VWidth: 0
Flags: W
HStem: -221 32<64.0239 122.469> 146 59<101.002 185.437> 319 63<133.587 351.747> 329 62<119.837 327.798> 392 20G<362.5 371.5>
VStem: 59 42<153.5 259.338> 268 71<-65.6255 76.8155>
LayerCount: 3
Fore
SplineSet
106 385 m 0xee
 107 391 115 391 121 391 c 0xde
 129 391 245 383 325 382 c 24
 334 382 341 380 347 387 c 0
 357 399 357 412 368 412 c 0
 375 412 379 407 379 400 c 0
 379 372 376 363 375 336 c 0
 374 321 353 319 338 319 c 0xee
 260 319 222 325 142 329 c 0xde
 132 329 123 328 121 319 c 0
 114 284 101 219 101 212 c 0
 101 204 104 206 112 205 c 0
 239 193 339 151 339 19 c 0
 339 -154 108 -221 72 -221 c 0
 66 -221 64 -214 64 -203 c 0
 64 -195 66 -190 72 -189 c 0
 138 -176 268 -120 268 3 c 0
 268 107 177 146 74 146 c 0
 64 146 59 149 59 158 c 0
 59 172 91 305 106 385 c 0xee
EndSplineSet
AlternateSubs2: "'aalt' Access All Alternates lookup 0 subtable" five.u
AlternateSubs2: "'aalt' Access All Alternates in Latin lookup 0 subtable" five.u
Substitution2: "lining_figures subtable" five.u
EndChar

StartChar: six
Encoding: 54 54 58
Width: 496
VWidth: 0
Flags: W
HStem: -5 31<208.422 318.065> 336 22<160.939 287.978> 629 26<362.389 391.131>
VStem: 59 67<111.368 321.431> 384 68<94.8865 262.374>
LayerCount: 3
Fore
SplineSet
452 189 m 0
 452 67 363 -5 255 -5 c 0
 141 -5 59 76 59 231 c 0
 59 506 352 655 378 655 c 0
 384 655 393 643 393 635 c 0
 393 632 391 630 388 629 c 0
 247 571 177 433 155 375 c 0
 151 364 146 353 146 348 c 0
 146 341 161 348 173 350 c 0
 205 356 233 358 264 358 c 0
 368 358 452 290 452 189 c 0
135 298 m 0
 130 274 126 239 126 201 c 0
 126 120 169 26 269 26 c 0
 337 26 384 99 384 168 c 0
 384 263 334 336 228 336 c 0
 214 336 180 333 162 330 c 0
 139 326 140 322 135 298 c 0
EndSplineSet
AlternateSubs2: "'aalt' Access All Alternates lookup 0 subtable" six.u
AlternateSubs2: "'aalt' Access All Alternates in Latin lookup 0 subtable" six.u
Substitution2: "lining_figures subtable" six.u
EndChar

StartChar: seven
Encoding: 55 55 59
Width: 469
VWidth: 0
Flags: W
HStem: 335 58<84.6153 384.997> 397 20G<72 82.5>
VStem: 49 25<271.322 314.667> 61 29<394.795 416.994>
LayerCount: 3
Fore
SplineSet
254 393 m 2xd0
 420 393 l 2
 429 393 437 391 437 384 c 0
 437 381 435 378 433 374 c 0
 310 146 131 -216 124 -216 c 0
 107 -216 88 -202 88 -188 c 0
 88 -184 311 201 376 314 c 0
 381 323 385 328 385 331 c 0
 385 334 381 335 367 335 c 2
 168 335 l 2
 138 335 84 333 83 326 c 2
 74 275 l 2
 73 267 49 269 49 278 c 0xe0
 49 288 55 335 61 399 c 0
 63 417 67 417 77 417 c 0
 88 417 90 409 90 397 c 0
 90 393 187 393 254 393 c 2xd0
EndSplineSet
AlternateSubs2: "'aalt' Access All Alternates lookup 0 subtable" seven.u
AlternateSubs2: "'aalt' Access All Alternates in Latin lookup 0 subtable" seven.u
Substitution2: "lining_figures subtable" seven.u
EndChar

StartChar: eight
Encoding: 56 56 60
Width: 447
VWidth: 0
Flags: W
HStem: -6 28<169.027 278.739> 636 22<178.562 272.642>
VStem: 47 53<80.5566 238.424> 56 58<438.977 574.333> 339 45<424.006 585.091> 341 65<74.5899 228.179>
LayerCount: 3
Fore
SplineSet
281 332 m 0xd8
 314 312 406 273 406 154 c 0
 406 59 334 -6 224 -6 c 0
 129 -6 47 59 47 154 c 0xe4
 47 260 124 299 160 317 c 0
 172 323 178 323 178 324 c 0
 178 325 170 328 157 337 c 0
 122 361 56 415 56 495 c 0
 56 586 132 658 226 658 c 0
 313 658 384 598 384 508 c 0
 384 412 315 371 281 346 c 0
 276 342 272 340 272 338 c 0
 272 336 276 335 281 332 c 0xd8
228 22 m 0
 298 22 341 86 341 153 c 0
 341 238 281 272 222 304 c 0
 213 309 198 316 195 316 c 0
 191 316 175 304 162 295 c 0
 139 278 100 239 100 164 c 0
 100 80 151 22 228 22 c 0
267 357 m 0
 298 384 339 448 339 500 c 0
 339 588 290 636 224 636 c 0
 155 636 114 576 114 507 c 0xd8
 114 458 142 421 183 389 c 0
 204 373 224 360 237 354 c 0
 246 350 250 347 253 347 c 0
 256 347 259 350 267 357 c 0
EndSplineSet
AlternateSubs2: "'aalt' Access All Alternates lookup 0 subtable" eight.u
AlternateSubs2: "'aalt' Access All Alternates in Latin lookup 0 subtable" eight.u
Substitution2: "lining_figures subtable" eight.u
EndChar

StartChar: nine
Encoding: 57 57 61
Width: 496
VWidth: 0
Flags: W
HStem: 32 31<178.799 298.03> 368 30<178.009 291.629>
VStem: 43 65<130.438 299.47> 370 66<78.7454 279.562>
LayerCount: 3
Fore
SplineSet
43 204 m 0
 43 326 128 398 236 398 c 0
 347 398 436 317 436 162 c 0
 436 -132 74 -218 56 -218 c 0
 50 -218 46 -201 46 -193 c 0
 46 -184 277 -147 350 56 c 0
 352 62 358 77 356 77 c 0
 354 77 345 71 336 65 c 0
 310 49 264 32 211 32 c 0
 107 32 43 103 43 204 c 0
108 214 m 0
 108 139 154 63 238 63 c 0
 306 63 348 87 364 115 c 0
 369 124 370 154 370 172 c 0
 370 265 332 368 239 368 c 0
 150 368 108 299 108 214 c 0
EndSplineSet
AlternateSubs2: "'aalt' Access All Alternates lookup 0 subtable" nine.u
AlternateSubs2: "'aalt' Access All Alternates in Latin lookup 0 subtable" nine.u
Substitution2: "lining_figures subtable" nine.u
EndChar

StartChar: comma
Encoding: 44 44 63
Width: 228
VWidth: 0
Flags: W
HStem: -156 244
VStem: 120 53<-48.7941 37.5>
LayerCount: 3
Fore
SplineSet
55 47 m 0
 55 68 96 88 102 88 c 0
 118 88 173 50 173 25 c 0
 173 -60 70 -156 61 -156 c 0
 55 -156 50 -146 50 -139 c 0
 50 -135 120 -85 120 -34 c 0
 120 13 55 32 55 47 c 0
EndSplineSet
EndChar

StartChar: quotedblright
Encoding: 8221 8221 64
Width: 364
VWidth: 0
Flags: W
HStem: 435 248
VStem: 90 50<530.776 610.5> 275 50<530.776 610.5>
LayerCount: 3
Fore
SplineSet
42 621 m 0
 42 642 72 683 89 683 c 0
 97 683 140 623 140 598 c 0
 140 526 44 435 37 435 c 0
 31 435 21 446 21 453 c 0
 21 457 90 510 90 543 c 0
 90 569 42 595 42 621 c 0
227 621 m 0
 227 642 257 683 274 683 c 0
 282 683 325 623 325 598 c 0
 325 526 229 435 222 435 c 0
 216 435 206 446 206 453 c 0
 206 457 275 510 275 543 c 0
 275 569 227 595 227 621 c 0
EndSplineSet
EndChar

StartChar: quotedblleft
Encoding: 8220 8220 65
Width: 364
VWidth: 0
Flags: W
HStem: 435 248
VStem: 21 50<507.5 587.224> 206 50<507.5 587.224>
LayerCount: 3
Fore
SplineSet
304 497 m 0
 304 476 274 435 257 435 c 0
 249 435 206 495 206 520 c 0
 206 592 302 683 309 683 c 0
 315 683 325 672 325 665 c 0
 325 661 256 608 256 575 c 0
 256 549 304 523 304 497 c 0
119 497 m 0
 119 476 89 435 72 435 c 0
 64 435 21 495 21 520 c 0
 21 592 117 683 124 683 c 0
 130 683 140 672 140 665 c 0
 140 661 71 608 71 575 c 0
 71 549 119 523 119 497 c 0
EndSplineSet
EndChar

StartChar: quoteright
Encoding: 8217 8217 66
Width: 184
VWidth: 0
Flags: W
HStem: 435 248
VStem: 90 50<530.776 610.5>
LayerCount: 3
Fore
SplineSet
42 621 m 0
 42 642 72 683 89 683 c 0
 97 683 140 623 140 598 c 0
 140 526 44 435 37 435 c 0
 31 435 21 446 21 453 c 0
 21 457 90 510 90 543 c 0
 90 569 42 595 42 621 c 0
EndSplineSet
EndChar

StartChar: quoteleft
Encoding: 8216 8216 67
Width: 184
VWidth: 0
Flags: W
HStem: 435 248
VStem: 21 50<507.5 587.224>
LayerCount: 3
Fore
SplineSet
119 497 m 0
 119 476 89 435 72 435 c 0
 64 435 21 495 21 520 c 0
 21 592 117 683 124 683 c 0
 130 683 140 672 140 665 c 0
 140 661 71 608 71 575 c 0
 71 549 119 523 119 497 c 0
EndSplineSet
EndChar

StartChar: period
Encoding: 46 46 68
Width: 228
VWidth: 0
Flags: W
HStem: -8 105<77 147.723>
VStem: 61 101<7.59372 81.8731>
LayerCount: 3
Fore
SplineSet
61 38 m 0
 61 59 89 97 105 97 c 0
 123 97 162 75 162 50 c 0
 162 19 130 -8 120 -8 c 0
 91.9111328125 -8 61 23 61 38 c 0
EndSplineSet
EndChar

StartChar: colon
Encoding: 58 58 69
Width: 228
VWidth: 0
Flags: W
HStem: -8 105<77 147.723> 267 105<77 147.723>
VStem: 61 101<7.59372 81.8731 282.594 356.873>
LayerCount: 3
Fore
SplineSet
61 313 m 0
 61 334 89 372 105 372 c 0
 123 372 162 350 162 325 c 0
 162 294 130 267 120 267 c 0
 91.9111328125 267 61 298 61 313 c 0
61 38 m 0
 61 59 89 97 105 97 c 0
 123 97 162 75 162 50 c 0
 162 19 130 -8 120 -8 c 0
 91.9111328125 -8 61 23 61 38 c 0
EndSplineSet
EndChar

StartChar: semicolon
Encoding: 59 59 70
Width: 228
VWidth: 0
Flags: W
HStem: 267 105<77 147.723>
VStem: 61 101<282.594 356.873> 120 53<-48.7941 37.5>
LayerCount: 3
Fore
SplineSet
55 47 m 0xa0
 55 68 96 88 102 88 c 0
 118 88 173 50 173 25 c 0xa0
 173 -60 70 -156 61 -156 c 0xc0
 55 -156 50 -146 50 -139 c 0
 50 -135 120 -85 120 -34 c 0
 120 13 55 32 55 47 c 0xa0
61 313 m 0xc0
 61 334 89 372 105 372 c 0
 123 372 162 350 162 325 c 0xc0
 162 294 130 267 120 267 c 0xa0
 91.9111328125 267 61 298 61 313 c 0xc0
EndSplineSet
EndChar

StartChar: hyphen
Encoding: 45 45 71
Width: 254
VWidth: 0
Flags: W
HStem: 198 43<28.3223 225.601> 206 42<43.5371 227.046>
VStem: 25 203<205.258 241.243>
LayerCount: 3
Fore
SplineSet
43 241 m 0xa0
 52 242 220 248 226 248 c 0
 228 248 228 244 228 239 c 0
 228 227 224 206 220 206 c 0x60
 207 205 42 198 29 198 c 0
 26 198 25 199 25 201 c 0
 25 216 34 240 43 241 c 0xa0
EndSplineSet
AlternateSubs2: "'aalt' Access All Alternates lookup 0 subtable" hyphen.u
AlternateSubs2: "'aalt' Access All Alternates in Latin lookup 0 subtable" hyphen.u
Substitution2: "'case' Case-Sensitive Forms in Latin lookup 6 subtable" hyphen.u
EndChar

StartChar: exclam
Encoding: 33 33 72
Width: 228
VWidth: 0
Flags: W
HStem: -8 105<77 147.723> 653 20G<106 130.5>
VStem: 61 101<7.59372 81.8731> 78 72<415.308 671.591> 97 27<172.009 368.977>
LayerCount: 3
Fore
SplineSet
97 182 m 0xc8
 91 405 78 594 78 648 c 0
 78 668 93 673 119 673 c 0
 142 673 150 670 150 652 c 0xd0
 150 640 136 446 124 182 c 0
 124 175 117 172 110 172 c 24
 104 172 97 175 97 182 c 0xc8
61 38 m 0xe0
 61 59 89 97 105 97 c 0
 123 97 162 75 162 50 c 0
 162 19 130 -8 120 -8 c 0
 92 -8 61 23 61 38 c 0xe0
EndSplineSet
EndChar

StartChar: question
Encoding: 63 63 73
Width: 366
VWidth: 0
Flags: W
HStem: -8 105<93 163.723> 245 71<153.706 257.945> 647 20G<46.5 56>
VStem: 77 101<7.59372 81.8731> 118 28<129.06 240.798> 120 34<151.687 244.4> 292 23<352.293 460.366>
LayerCount: 3
Fore
SplineSet
120 298 m 0xe6
 121 315 130 316 148 316 c 2
 205 316 l 2
 286 316 292 371 292 404 c 0
 292 496 220 570 64 590 c 0
 50 592 41 591 41 605 c 2
 41 650 l 2
 41 657 43 667 50 667 c 0
 62 667 59 644 69 642 c 0
 142 630 315 603 315 419 c 0
 315 328 292 246 180 245 c 0
 158 245 155 238 154 228 c 0xe6
 152 196 148 170 146 138 c 0
 146 132 141 129 134 129 c 0
 120 129 118 134 118 151 c 0xea
 118 164 119 284 120 298 c 0xe6
77 38 m 0xf2
 77 59 105 97 121 97 c 0
 139 97 178 75 178 50 c 0
 178 19 146 -8 136 -8 c 0
 108 -8 77 23 77 38 c 0xf2
EndSplineSet
EndChar

StartChar: parenleft
Encoding: 40 40 74
Width: 265
VWidth: 0
Flags: W
VStem: 37 52<142.232 436.499>
LayerCount: 3
Fore
SplineSet
37 285 m 0
 37 547 213 689 215 689 c 0
 222 689 231 683 231 676 c 0
 231 672 89 546 89 297 c 0
 89 14 227 -111 227 -126 c 0
 227 -133 222 -140 211 -140 c 0
 200 -140 37 55 37 285 c 0
EndSplineSet
AlternateSubs2: "'aalt' Access All Alternates lookup 0 subtable" parenleft.u
AlternateSubs2: "'aalt' Access All Alternates in Latin lookup 0 subtable" parenleft.u
Substitution2: "'case' Case-Sensitive Forms in Latin lookup 6 subtable" parenleft.u
EndChar

StartChar: parenright
Encoding: 41 41 75
Width: 265
VWidth: 0
Flags: W
VStem: 181 52<112.501 406.768>
LayerCount: 3
Fore
SplineSet
233 264 m 0
 233 2 57 -140 55 -140 c 0
 48 -140 39 -134 39 -127 c 0
 39 -123 181 3 181 252 c 0
 181 535 43 660 43 675 c 0
 43 682 48 689 59 689 c 0
 70 689 233 494 233 264 c 0
EndSplineSet
AlternateSubs2: "'aalt' Access All Alternates lookup 0 subtable" parenright.u
AlternateSubs2: "'aalt' Access All Alternates in Latin lookup 0 subtable" parenright.u
Substitution2: "'case' Case-Sensitive Forms in Latin lookup 6 subtable" parenright.u
EndChar

StartChar: f_i
Encoding: 65536 -1 76
Width: 496
VWidth: 0
Flags: W
HStem: -2 27<33.0015 87.7331 161.062 237.999 282.001 343.046 415 466.999> 347 25<39.0022 87.1846 156.002 339.852> 656 22<217.818 296.593>
VStem: 88 68<25 345.947 372 570.673> 329 59<555.874 634.439> 344 68<25 347>
LayerCount: 3
Fore
SplineSet
166 25 m 2xf4
 225 25 l 2
 237 25 238 21 238 12 c 0
 238 3 238 -2 225 -2 c 0
 206 -2 158 0 129 0 c 0
 104 0 76 -2 46 -2 c 0
 33 -2 33 1 33 12 c 0
 33 21 35 25 45 25 c 2
 85 25 l 2
 88 25 89 55 89 88 c 0
 89 123 88 161 88 172 c 2
 88 252 l 2
 88 291 88 346 86 346 c 2
 53 346 l 2
 42 346 39 347 39 359 c 0
 39 371 41 372 50 372 c 2
 79 372 l 2
 87 372 88 372 88 380 c 0
 88 424 90 466 94 505 c 0
 105 616 172 678 261 678 c 0
 343 678 388 625 388 590 c 0
 388 567 356 545 342 545 c 0
 333 545 330 546 329 554 c 0xf8
 323 644 293 656 256 656 c 0
 163 656 156 517 156 409 c 2
 156 385 l 2
 156 373 157 372 175 372 c 2
 292 372 l 2
 312 372 392 377 405 377 c 0
 411 377 412 376 412 371 c 2
 412 201 l 2
 412 144 412 94 415 37 c 0
 415 28 415 25 425 25 c 2
 456 25 l 2
 466 25 467 21 467 12 c 0
 467 3 467 -2 456 -2 c 0
 437 -2 402 0 377 0 c 0
 352 0 312 -2 293 -2 c 0
 282 -2 282 1 282 12 c 0
 282 21 283 25 296 25 c 2
 332 25 l 2
 343 25 343 27 343 37 c 0
 344 66 344 89 344 119 c 0
 344 189 343 260 340 333 c 0
 339 346 337 347 330 347 c 2
 173 347 l 2
 158 347 156 345 156 335 c 2
 156 169 l 2
 156 97 158 25 166 25 c 2xf4
EndSplineSet
Layer: 2
SplineSet
166 25 m 6xf4
 225 25 l 6
 237 25 238 21 238 12 c 4
 238 3 238 -2 225 -2 c 4
 206 -2 158 0 129 0 c 4
 104 0 76 -2 46 -2 c 4
 33 -2 33 1 33 12 c 4
 33 21 35 25 45 25 c 6
 85 25 l 6
 88 25 89 55 89 88 c 4
 89 123 88 161 88 172 c 6
 88 252 l 6
 88 291 88 346 86 346 c 6
 53 346 l 6
 42 346 39 347 39 359 c 4
 39 371 41 372 50 372 c 6
 79 372 l 6
 87 372 88 372 88 380 c 4
 88 424 90 466 94 505 c 4
 105 616 172 678 261 678 c 4
 343 678 388 625 388 590 c 4
 388 567 356 545 342 545 c 4
 333 545 330 546 329 554 c 4xf8
 323 644 293 656 256 656 c 4
 163 656 156 517 156 409 c 6
 156 385 l 6
 156 373 157 372 175 372 c 6
 292 372 l 6
 312 372 392 377 405 377 c 4
 411 377 412 376 412 371 c 6
 412 201 l 6
 412 144 412 94 415 37 c 4
 415 28 415 25 425 25 c 6
 456 25 l 6
 466 25 467 21 467 12 c 4
 467 3 467 -2 456 -2 c 4
 437 -2 402 0 377 0 c 4
 352 0 312 -2 293 -2 c 4
 282 -2 282 1 282 12 c 4
 282 21 283 25 296 25 c 6
 332 25 l 6
 343 25 343 27 343 37 c 4
 344 66 344 89 344 119 c 4
 344 189 343 260 340 333 c 4
 339 346 337 347 330 347 c 6
 173 347 l 6
 158 347 156 345 156 335 c 6
 156 169 l 6
 156 97 158 25 166 25 c 6xf4
166 25 m 2xad
 225 25 l 2
 237 25 238 21 238 12 c 0
 238 3 238 -2 225 -2 c 0
 206 -2 158 0 129 0 c 0
 104 0 76 -2 46 -2 c 0
 33 -2 33 1 33 12 c 0
 33 21 35 25 45 25 c 2
 85 25 l 2
 88 25 89 55 89 88 c 0
 89 123 88 161 88 172 c 2
 88 232 l 2
 88 271 88 313 86 313 c 2
 53 313 l 2
 42 313 39 314 39 326 c 0
 39 338 41 339 50 339 c 2
 79 339 l 2xcd
 88 339 89 340 89 351 c 2
 89 380 l 2
 89 424 90 466 94 505 c 0
 105 616 172 678 261 678 c 0
 343 678 388 625 388 590 c 0
 388 567 356 545 342 545 c 0
 333 545 330 546 329 554 c 0
 323 644 293 656 256 656 c 0
 163 656 157 517 157 409 c 2
 157 358 l 2x9e
 157 346 158 345 176 345 c 2
 292 345 l 2xae
 296 345 295 346 297 350 c 0
 301 358 300 357 312 358 c 0
 331 359 400 363 405 363 c 0
 411 363 412 362 412 357 c 2
 412 207 l 2
 412 150 412 94 415 37 c 0
 415 28 415 25 425 25 c 2
 456 25 l 2
 466 25 467 21 467 12 c 0
 467 3 467 -2 456 -2 c 0
 437 -2 402 0 377 0 c 0
 352 0 312 -2 293 -2 c 0
 282 -2 282 1 282 12 c 0
 282 21 283 25 296 25 c 2
 332 25 l 2
 343 25 343 27 343 37 c 0
 344 66 344 95 344 125 c 0
 344 195 343 246 340 319 c 0
 339 334 337 335 327 335 c 0x9d
 325 335 314 335 306 334 c 0
 297 333 298 333 296 327 c 0
 295 323 293 320 291 320 c 2
 173 320 l 2
 158 320 156 318 156 308 c 2
 156 169 l 2
 156 97 158 25 166 25 c 2xad
EndSplineSet
Ligature2: "'liga' Standard Ligatures in Latin lookup 7 subtable" f i
LCarets2: 1 0 
EndChar

StartChar: f_l
Encoding: 65537 -1 77
Width: 498
VWidth: 0
Flags: W
HStem: -2 27<33.0015 88.8848 159.546 232.999 277.001 338.61 412.539 474.999> 347 25<39.0022 88.988 157.082 339.699> 656 22<208.022 283.523>
VStem: 90 67<25 345.947 372 585.057> 340 70<58.7572 347 372 592.531>
LayerCount: 3
Fore
SplineSet
165 25 m 2
 220 25 l 2
 232 25 233 21 233 12 c 0
 233 3 233 -2 220 -2 c 0
 201 -2 158 0 129 0 c 0
 104 0 76 -2 46 -2 c 0
 33 -2 33 1 33 12 c 0
 33 21 35 25 45 25 c 2
 85 25 l 2
 89 25 91 55 91 88 c 0
 91 123 90 161 90 172 c 2
 90 232 l 2
 90 271 90 346 88 346 c 2
 53 346 l 2
 42 346 39 347 39 359 c 0
 39 371 41 372 50 372 c 2
 77 372 l 2
 86 372 89 373 89 384 c 0
 89 433 88 428 88 481 c 0
 88 585 144 678 266 678 c 0
 288 678 316 670 340 656 c 0
 350 650 353 649 367 651 c 0
 388 654 404 658 407 658 c 0
 414 658 414 655 414 643 c 0
 410 462 410 389 410 295 c 0
 410 265 410 25 414 25 c 2
 462 25 l 2
 474 25 475 21 475 12 c 0
 475 3 475 -2 462 -2 c 0
 443 -2 407 0 378 0 c 0
 353 0 320 -2 290 -2 c 0
 277 -2 277 1 277 12 c 0
 277 21 279 25 289 25 c 2
 336 25 l 2
 340 25 340 85 340 110 c 2
 340 329 l 2
 340 346 338 347 326 347 c 2
 176 347 l 2
 161 347 157 345 157 335 c 2
 157 109 l 2
 157 62 158 25 165 25 c 2
340 392 m 0
 340 460 339 501 338 549 c 0
 338 567 332 571 325 582 c 0
 304 613 299 656 246 656 c 0
 164 656 155 559 155 467 c 2
 155 389 l 2
 155 374 156 372 176 372 c 2
 324 372 l 2
 337 372 340 374 340 392 c 0
EndSplineSet
Layer: 2
SplineSet
165 25 m 6
 220 25 l 6
 232 25 233 21 233 12 c 4
 233 3 233 -2 220 -2 c 4
 201 -2 158 0 129 0 c 4
 104 0 76 -2 46 -2 c 4
 33 -2 33 1 33 12 c 4
 33 21 35 25 45 25 c 6
 85 25 l 6
 89 25 91 55 91 88 c 4
 91 123 90 161 90 172 c 6
 90 232 l 6
 90 271 90 313 88 313 c 6
 53 313 l 6
 42 313 39 314 39 326 c 4
 39 338 41 339 50 339 c 6
 77 339 l 6
 86 339 89 340 89 351 c 4
 89 400 86 428 86 481 c 4
 86 585 144 678 266 678 c 4
 288 678 316 670 340 656 c 4
 350 650 353 649 367 651 c 4
 388 654 404 658 407 658 c 4
 414 658 414 655 414 643 c 4
 410 462 410 362 410 268 c 4
 410 238 410 25 414 25 c 6
 462 25 l 6
 474 25 475 21 475 12 c 4
 475 3 475 -2 462 -2 c 4
 443 -2 407 0 378 0 c 4
 353 0 320 -2 290 -2 c 4
 277 -2 277 1 277 12 c 4
 277 21 279 25 289 25 c 6
 336 25 l 6
 340 25 340 85 340 110 c 6
 340 302 l 6
 340 319 338 320 326 320 c 6
 176 320 l 6
 161 320 157 318 157 308 c 6
 157 109 l 6
 157 62 158 25 165 25 c 6
340 365 m 4
 340 433 339 501 338 549 c 4
 338 567 332 571 325 582 c 4
 304 613 299 656 246 656 c 4
 164 656 155 559 155 467 c 6
 155 362 l 6
 155 347 156 345 176 345 c 6
 324 345 l 6
 337 345 340 347 340 365 c 4
EndSplineSet
Ligature2: "'liga' Standard Ligatures in Latin lookup 7 subtable" f l
LCarets2: 1 0 
EndChar

StartChar: f_f
Encoding: 65538 -1 78
Width: 579
VWidth: 0
Flags: W
HStem: -2 27<38.0015 89.7331 164.062 237.999 292.001 343.733 418.062 501.999> 347 25<39.0022 88.988 159.25 340.911 413.271 551.745> 641 23<213.724 292.362> 656 22<437.245 495.83>
VStem: 90 69<25 345.947 372 548.348> 344 69<25 347 372 557.789> 517 61<576.457 646.57>
LayerCount: 3
Fore
SplineSet
169 25 m 2xde
 225 25 l 2
 237 25 238 21 238 12 c 0
 238 3 238 -2 225 -2 c 0
 206 -2 158 0 129 0 c 0
 104 0 81 -2 51 -2 c 0
 38 -2 38 1 38 12 c 0
 38 21 40 25 50 25 c 2
 87 25 l 2
 90 25 91 55 91 88 c 0
 91 123 90 161 90 172 c 2
 90 232 l 2
 90 271 90 346 88 346 c 2
 53 346 l 2
 42 346 39 347 39 359 c 0
 39 371 41 372 50 372 c 2
 79 372 l 2
 88 372 89 373 89 384 c 0
 89 462 92 598 195 646 c 0
 220 658 245 664 269 664 c 0xee
 305 664 339 650 367 623 c 0
 371 620 373 617 377 622 c 0
 401 657 432 678 489 678 c 0
 536 678 578 653 578 611 c 0
 578 588 544 564 530 564 c 0
 521 564 518 565 517 573 c 0
 511 618 507 656 470 656 c 0
 412 656 410 591 410 519 c 2
 410 389 l 2
 410 374 410 372 430 372 c 2
 546 372 l 2
 550 372 553 370 553 367 c 0
 553 362 549 347 545 347 c 2
 430 347 l 2
 415 347 413 345 413 335 c 2
 413 169 l 2
 413 97 415 25 423 25 c 2
 489 25 l 2
 501 25 502 21 502 12 c 0
 502 3 502 -2 489 -2 c 0
 470 -2 412 0 383 0 c 0
 358 0 335 -2 305 -2 c 0
 292 -2 292 1 292 12 c 0
 292 21 294 25 304 25 c 2
 341 25 l 2
 344 25 345 55 345 88 c 0
 345 123 344 161 344 172 c 2
 344 232 l 2
 344 277 343 319 343 334 c 0
 343 345 340 347 325 347 c 2
 176 347 l 2
 161 347 159 345 159 335 c 2
 159 169 l 2
 159 97 161 25 169 25 c 2xde
322 592 m 0
 308 616 292 641 257 641 c 0
 157 641 156 500 156 425 c 2
 156 386 l 2
 156 374 158 372 176 372 c 2
 323 372 l 2
 340 372 341 373 341 385 c 0
 341 424 340 424 340 464 c 0
 340 518 349 554 349 558 c 0
 349 561 348 563 346 565 c 0
 336 573 328 581 322 592 c 0
EndSplineSet
Layer: 2
SplineSet
169 25 m 2xde
 225 25 l 2
 237 25 238 21 238 12 c 0
 238 3 238 -2 225 -2 c 0
 206 -2 158 0 129 0 c 0
 104 0 81 -2 51 -2 c 0
 38 -2 38 1 38 12 c 0
 38 21 40 25 50 25 c 2
 87 25 l 2
 90 25 91 55 91 88 c 0
 91 123 90 161 90 172 c 2
 90 232 l 2
 90 271 90 313 88 313 c 2
 53 313 l 2
 42 313 39 314 39 326 c 0
 39 338 41 339 50 339 c 2
 79 339 l 2
 88 339 89 340 89 351 c 0
 89 467 92 598 195 646 c 0
 220 658 245 664 269 664 c 0xee
 305 664 339 650 367 623 c 0
 371 620 373 617 377 622 c 0
 401 657 432 678 489 678 c 0
 536 678 578 653 578 611 c 0
 578 588 544 564 530 564 c 0
 521 564 518 565 517 573 c 0
 511 618 507 656 470 656 c 0
 412 656 410 591 410 519 c 2
 410 362 l 2
 410 347 410 345 430 345 c 2
 546 345 l 2
 550 345 553 343 553 340 c 0
 553 335 549 320 545 320 c 2
 430 320 l 2
 415 320 413 318 413 308 c 2
 413 169 l 2
 413 97 415 25 423 25 c 2
 489 25 l 2
 501 25 502 21 502 12 c 0
 502 3 502 -2 489 -2 c 0
 470 -2 412 0 383 0 c 0
 358 0 335 -2 305 -2 c 0
 292 -2 292 1 292 12 c 0
 292 21 294 25 304 25 c 2
 341 25 l 2
 344 25 345 55 345 88 c 0
 345 123 344 161 344 172 c 2
 344 232 l 2
 344 277 343 292 343 307 c 0
 343 318 340 320 325 320 c 2
 176 320 l 2
 161 320 159 318 159 308 c 2
 159 169 l 2
 159 97 161 25 169 25 c 2xde
322 592 m 0
 308 616 292 641 257 641 c 0
 145 641 158 471 155 362 c 0
 155 347 156 345 176 345 c 2
 323 345 l 2
 340 345 341 346 341 358 c 0
 341 397 340 424 340 464 c 0
 340 518 349 554 349 558 c 0
 349 561 348 563 346 565 c 0
 336 573 328 581 322 592 c 0
EndSplineSet
Ligature2: "'liga' Standard Ligatures in Latin lookup 7 subtable" f f
LCarets2: 1 0 
EndChar

StartChar: f_f_i
Encoding: 65539 -1 79
Width: 750
VWidth: 0
Flags: W
HStem: -2 27<38.0015 89.7331 164.062 237.999 289.001 343.733 417.062 483.999 538.001 599.046 671 722.999> 347 25<39.0022 88.988 159.153 343.185 412.002 595.852> 641 23<211.672 291.937> 656 22<474.028 552.593>
VStem: 90 69<25 345.947 372 553.856> 344 68<25 346.392 372 548.766> 585 59<555.874 634.439> 600 68<25 347>
LayerCount: 3
Fore
SplineSet
269 664 m 0xed
 313 664 357 641 382 605 c 1
 412 652 460 678 517 678 c 0
 599 678 644 625 644 590 c 0
 644 567 612 545 598 545 c 0
 589 545 586 546 585 554 c 0
 579 644 549 656 512 656 c 0xde
 419 656 412 517 412 409 c 2
 412 385 l 2
 412 373 413 372 431 372 c 2
 548 372 l 2
 568 372 648 377 661 377 c 0
 667 377 668 376 668 371 c 2
 668 201 l 2
 668 144 668 94 671 37 c 0
 671 28 671 25 681 25 c 2
 712 25 l 2
 722 25 723 21 723 12 c 0
 723 3 723 -2 712 -2 c 0
 693 -2 658 0 633 0 c 0
 608 0 568 -2 549 -2 c 0
 538 -2 538 1 538 12 c 0
 538 21 539 25 552 25 c 2
 588 25 l 2
 599 25 599 27 599 37 c 0
 600 66 600 89 600 119 c 0
 600 189 599 260 596 333 c 0
 595 346 593 347 586 347 c 2
 429 347 l 2
 414 347 412 345 412 335 c 2
 412 169 l 2
 412 97 414 25 422 25 c 2
 471 25 l 2
 483 25 484 21 484 12 c 0
 484 3 484 -2 471 -2 c 0
 452 -2 414 0 385 0 c 0
 360 0 332 -2 302 -2 c 0
 289 -2 289 1 289 12 c 0
 289 21 291 25 301 25 c 2
 341 25 l 2
 344 25 345 55 345 88 c 0
 345 123 344 161 344 172 c 2
 344 252 l 2
 344 291 344 346 342 346 c 0
 330 346 310 347 300 347 c 2
 176 347 l 2
 161 347 159 345 159 335 c 2
 159 169 l 2
 159 97 161 25 169 25 c 2
 225 25 l 2
 237 25 238 21 238 12 c 0
 238 3 238 -2 225 -2 c 0
 206 -2 158 0 129 0 c 0
 104 0 81 -2 51 -2 c 0
 38 -2 38 1 38 12 c 0
 38 21 40 25 50 25 c 2
 87 25 l 2
 90 25 91 55 91 88 c 0
 91 123 90 161 90 172 c 2
 90 238 l 2
 90 277 90 346 88 346 c 2
 53 346 l 2
 42 346 39 347 39 359 c 0
 39 371 41 372 50 372 c 2
 79 372 l 2
 88 372 89 373 89 384 c 0
 89 477 92 598 195 646 c 0
 220 658 245 664 269 664 c 0xed
349 559 m 0
 332 571 329 580 319 597 c 0
 306 620 289 641 257 641 c 0xec
 145 641 158 498 155 389 c 0
 155 374 156 372 176 372 c 2
 335 372 l 2
 343 372 344 372 344 380 c 0
 344 406 344 485 354 530 c 0
 356 539 358 544 358 549 c 0
 358 553 355 555 349 559 c 0
EndSplineSet
Ligature2: "'liga' Standard Ligatures in Latin lookup 7 subtable" f f i
LCarets2: 2 0 0 
EndChar

StartChar: f_f_l
Encoding: 65540 -1 80
Width: 757
VWidth: 0
Flags: W
HStem: -2 27<38.0015 89.7331 164.062 237.999 287.001 342.885 413.546 481.999 531.001 592.61 666.539 728.999> 347 25<39.0022 88.988 159.111 342.969 411.082 593.699> 641 23<215.016 291.775> 656 22<460.254 537.523>
VStem: 90 69<25 345.947 372 547.065> 344 67<25 347 372 558.953> 594 70<32.1261 347 372 592.531>
LayerCount: 3
Fore
SplineSet
594 392 m 0xde
 594 460 593 501 592 549 c 0
 592 567 586 571 579 582 c 0
 558 613 553 656 500 656 c 0
 418 656 409 559 409 467 c 2
 409 389 l 2
 409 374 410 372 430 372 c 2
 578 372 l 2
 591 372 594 374 594 392 c 0xde
269 664 m 0xee
 308 664 350 645 375 614 c 0
 379 609 379 611 382 615 c 0
 412 653 458 678 520 678 c 0
 542 678 570 670 594 656 c 0xde
 604 650 607 649 621 651 c 0
 642 654 658 658 661 658 c 0
 668 658 668 655 668 643 c 0
 664 462 664 362 664 268 c 0
 664 238 664 25 668 25 c 2
 716 25 l 2
 728 25 729 21 729 12 c 0
 729 3 729 -2 716 -2 c 0
 697 -2 661 0 632 0 c 0
 607 0 574 -2 544 -2 c 0
 531 -2 531 1 531 12 c 0
 531 21 533 25 543 25 c 2
 590 25 l 2
 594 25 594 85 594 110 c 2
 594 329 l 2
 594 346 592 347 580 347 c 2
 430 347 l 2
 415 347 411 345 411 335 c 2
 411 109 l 2
 411 62 412 25 419 25 c 2
 469 25 l 2
 481 25 482 21 482 12 c 0
 482 3 482 -2 469 -2 c 0
 450 -2 412 0 383 0 c 0
 358 0 330 -2 300 -2 c 0
 287 -2 287 1 287 12 c 0
 287 21 289 25 299 25 c 2
 339 25 l 2
 343 25 345 55 345 88 c 0
 345 123 344 161 344 172 c 2
 344 337 l 2
 344 347 341 347 330 347 c 2
 176 347 l 2
 161 347 159 345 159 335 c 2
 159 169 l 2
 159 97 161 25 169 25 c 2
 225 25 l 2
 237 25 238 21 238 12 c 0
 238 3 238 -2 225 -2 c 0
 206 -2 158 0 129 0 c 0
 104 0 81 -2 51 -2 c 0
 38 -2 38 1 38 12 c 0
 38 21 40 25 50 25 c 2
 87 25 l 2
 90 25 91 55 91 88 c 0
 91 123 90 161 90 172 c 2
 90 232 l 2
 90 271 90 346 88 346 c 2
 53 346 l 2
 42 346 39 347 39 359 c 0
 39 371 41 372 50 372 c 2
 79 372 l 2
 88 372 89 373 89 384 c 0
 89 455 92 598 195 646 c 0
 220 658 245 664 269 664 c 0xee
346 565 m 0
 336 573 328 581 322 592 c 0
 308 616 292 641 257 641 c 0xee
 161 641 156 510 156 421 c 2
 156 384 l 2
 156 374 159 372 176 372 c 2
 333 372 l 2
 342 372 343 372 343 387 c 0
 343 430 342 431 342 481 c 0
 342 506 343 531 350 554 c 0
 351 557 351 558 351 559 c 0
 351 561 350 562 346 565 c 0
EndSplineSet
Layer: 2
SplineSet
594 365 m 4xde
 594 433 593 501 592 549 c 4
 592 567 586 571 579 582 c 4
 558 613 553 656 500 656 c 4
 418 656 409 559 409 467 c 6
 409 362 l 6
 409 347 410 345 430 345 c 6
 578 345 l 6
 591 345 594 347 594 365 c 4xde
269 664 m 4xee
 308 664 350 645 375 614 c 4
 379 609 379 611 382 615 c 4
 412 653 458 678 520 678 c 4
 542 678 570 670 594 656 c 4xde
 604 650 607 649 621 651 c 4
 642 654 658 658 661 658 c 4
 668 658 668 655 668 643 c 4
 664 462 664 362 664 268 c 4
 664 238 664 25 668 25 c 6
 716 25 l 6
 728 25 729 21 729 12 c 4
 729 3 729 -2 716 -2 c 4
 697 -2 661 0 632 0 c 4
 607 0 574 -2 544 -2 c 4
 531 -2 531 1 531 12 c 4
 531 21 533 25 543 25 c 6
 590 25 l 6
 594 25 594 85 594 110 c 6
 594 302 l 6
 594 319 592 320 580 320 c 6
 430 320 l 6
 415 320 411 318 411 308 c 6
 411 109 l 6
 411 62 412 25 419 25 c 6
 469 25 l 6
 481 25 482 21 482 12 c 4
 482 3 482 -2 469 -2 c 4
 450 -2 412 0 383 0 c 4
 358 0 330 -2 300 -2 c 4
 287 -2 287 1 287 12 c 4
 287 21 289 25 299 25 c 6
 339 25 l 6
 343 25 345 55 345 88 c 4
 345 123 344 161 344 172 c 6
 344 310 l 6
 344 320 341 320 330 320 c 6
 176 320 l 6
 161 320 159 318 159 308 c 6
 159 169 l 6
 159 97 161 25 169 25 c 6
 225 25 l 6
 237 25 238 21 238 12 c 4
 238 3 238 -2 225 -2 c 4
 206 -2 158 0 129 0 c 4
 104 0 81 -2 51 -2 c 4
 38 -2 38 1 38 12 c 4
 38 21 40 25 50 25 c 6
 87 25 l 6
 90 25 91 55 91 88 c 4
 91 123 90 161 90 172 c 6
 90 232 l 6
 90 271 90 313 88 313 c 6
 53 313 l 6
 42 313 39 314 39 326 c 4
 39 338 41 339 50 339 c 6
 79 339 l 6
 88 339 89 340 89 351 c 4
 89 467 92 598 195 646 c 4
 220 658 245 664 269 664 c 4xee
346 565 m 4
 336 573 328 581 322 592 c 4
 308 616 292 641 257 641 c 4xee
 145 641 158 471 155 362 c 4
 155 347 156 345 176 345 c 6
 333 345 l 6
 342 345 343 345 343 360 c 4
 343 403 340 431 340 481 c 4
 340 506 343 531 350 554 c 4
 351 557 351 558 351 559 c 4
 351 561 350 562 346 565 c 4
EndSplineSet
Ligature2: "'liga' Standard Ligatures in Latin lookup 7 subtable" f f l
LCarets2: 2 0 0 
EndChar

StartChar: f_j
Encoding: 65541 -1 81
Width: 496
VWidth: 0
Flags: W
HStem: -275 73<229.573 304.476> 0 25<33.006 87.6597 161.062 237.997> 347 25<39.0022 87.1846 156.002 339.952> 656 22<217.818 296.593>
VStem: 88 68<25 345.947 372 570.673> 329 59<555.874 634.439> 342 72<24.8396 347> 351 63<-181 201.017>
LayerCount: 3
Fore
SplineSet
402 378 m 0xfc
 409 378 409 370 409 355 c 0
 410 266 414 155 414 27 c 0xfa
 414 -80 407 -155 360 -216 c 0
 342 -239 265 -275 236 -275 c 0
 223 -275 217 -266 217 -255 c 0
 217 -233 243 -202 258 -202 c 0
 279 -202 303 -206 313 -206 c 0
 341 -206 351 -189 351 -173 c 0xf9
 351 -134 342 -41 342 258 c 0xfa
 342 282 342 307 340 334 c 0
 339 346 336 347 330 347 c 2
 173 347 l 2
 158 347 156 345 156 335 c 2
 156 169 l 2
 156 97 158 25 166 25 c 2
 225 25 l 2
 237 25 238 21 238 12 c 0
 238 3 238 -2 225 -2 c 0
 206 -2 158 0 129 0 c 0
 104 0 76 -2 46 -2 c 0
 33 -2 33 1 33 12 c 0
 33 21 35 25 45 25 c 2
 85 25 l 2
 88 25 89 55 89 88 c 0
 89 123 88 161 88 172 c 2
 88 252 l 2
 88 291 88 346 86 346 c 2
 53 346 l 2
 42 346 39 347 39 359 c 0
 39 371 41 372 50 372 c 2
 79 372 l 2
 87 372 88 372 88 380 c 0
 88 424 90 466 94 505 c 0
 105 616 172 678 261 678 c 0
 343 678 388 625 388 590 c 0xfc
 388 567 356 545 342 545 c 0xfa
 333 545 330 546 329 554 c 0
 323 644 293 656 256 656 c 0
 163 656 156 517 156 409 c 2
 156 385 l 2
 156 373 157 372 175 372 c 2
 292 372 l 2
 312 372 389 378 402 378 c 0xfc
EndSplineSet
Ligature2: "'liga' Standard Ligatures in Latin lookup 7 subtable" f j
LCarets2: 1 0 
EndChar

StartChar: f_f_j
Encoding: 65542 -1 82
Width: 750
VWidth: 0
Flags: W
HStem: -275 73<485.573 560.476> -2 27<38.0015 89.7331 164.062 237.999 289.001 343.733 417.062 483.999> 347 25<39.0022 88.988 159.153 343.185 412.002 595.952> 641 23<211.672 291.937> 656 22<474.028 552.593>
VStem: 90 69<25 345.947 372 553.856> 344 68<25 346.392 372 548.766> 585 59<555.874 634.439> 598 72<24.8396 347> 607 63<-181 201.017>
LayerCount: 3
Fore
SplineSet
586 347 m 2xee80
 429 347 l 2
 414 347 412 345 412 335 c 2
 412 169 l 2
 412 97 414 25 422 25 c 2
 471 25 l 2
 483 25 484 21 484 12 c 0
 484 3 484 -2 471 -2 c 0
 452 -2 414 0 385 0 c 0
 360 0 332 -2 302 -2 c 0
 289 -2 289 1 289 12 c 0
 289 21 291 25 301 25 c 2
 341 25 l 2
 344 25 345 55 345 88 c 0
 345 123 344 161 344 172 c 2
 344 252 l 2
 344 291 344 346 342 346 c 0
 330 346 310 347 300 347 c 2
 176 347 l 2
 161 347 159 345 159 335 c 2
 159 169 l 2
 159 97 161 25 169 25 c 2
 225 25 l 2
 237 25 238 21 238 12 c 0
 238 3 238 -2 225 -2 c 0
 206 -2 158 0 129 0 c 0
 104 0 81 -2 51 -2 c 0
 38 -2 38 1 38 12 c 0
 38 21 40 25 50 25 c 2
 87 25 l 2
 90 25 91 55 91 88 c 0
 91 123 90 161 90 172 c 2
 90 238 l 2
 90 277 90 346 88 346 c 2
 53 346 l 2
 42 346 39 347 39 359 c 0
 39 371 41 372 50 372 c 2
 79 372 l 2
 88 372 89 373 89 384 c 0
 89 477 92 598 195 646 c 0
 220 658 245 664 269 664 c 0xf680
 313 664 357 641 382 605 c 1
 412 652 460 678 517 678 c 0
 599 678 644 625 644 590 c 0xef
 644 567 612 545 598 545 c 0xee80
 589 545 586 546 585 554 c 0xef
 579 644 549 656 512 656 c 0
 419 656 412 517 412 409 c 2
 412 385 l 2
 412 373 413 372 431 372 c 2
 548 372 l 2
 568 372 645 378 658 378 c 0
 665 378 665 370 665 355 c 0
 666 266 670 155 670 27 c 0xee80
 670 -80 663 -155 616 -216 c 0
 598 -239 521 -275 492 -275 c 0
 479 -275 473 -266 473 -255 c 0
 473 -233 499 -202 514 -202 c 0
 535 -202 559 -206 569 -206 c 0
 597 -206 607 -189 607 -173 c 0xee40
 607 -134 598 -41 598 258 c 0
 598 282 598 307 596 334 c 0
 595 346 592 347 586 347 c 2xee80
349 559 m 0
 332 571 329 580 319 597 c 0
 306 620 289 641 257 641 c 0
 145 641 158 498 155 389 c 0
 155 374 156 372 176 372 c 2
 335 372 l 2
 343 372 344 372 344 380 c 0
 344 406 344 485 354 530 c 0
 356 539 358 544 358 549 c 0
 358 553 355 555 349 559 c 0
EndSplineSet
Ligature2: "'liga' Standard Ligatures in Latin lookup 7 subtable" f f j
LCarets2: 2 0 0 
EndChar

StartChar: f_b
Encoding: 65543 -1 83
Width: 742
VWidth: 0
Flags: W
HStem: -13 27<428.885 550.386> 0 25<33.006 88.772 159.705 232.997> 347 25<39.0022 88.988 157.082 297.745> 357 29<447.694 538.241> 656 22<208.022 283.523>
VStem: 90 67<25 345.947 372 585.057> 338 69<25.7494 327.242> 341 68<65.6203 346.375 356.011 590.99> 637 72<97.1001 269.39>
LayerCount: 3
Fore
SplineSet
176 372 m 2xad80
 292 372 l 2
 296 372 299 370 299 367 c 0
 299 362 295 347 291 347 c 2
 176 347 l 2
 161 347 157 345 157 335 c 2
 157 109 l 2
 157 62 158 25 165 25 c 2
 220 25 l 2
 232 25 233 21 233 12 c 0
 233 3 233 -2 220 -2 c 0
 201 -2 158 0 129 0 c 0
 104 0 76 -2 46 -2 c 0
 33 -2 33 1 33 12 c 0
 33 21 35 25 45 25 c 2
 85 25 l 2
 89 25 91 55 91 88 c 0
 91 123 90 161 90 172 c 2
 90 232 l 2
 90 271 90 346 88 346 c 2
 53 346 l 2
 42 346 39 347 39 359 c 0
 39 371 41 372 50 372 c 2
 77 372 l 2
 86 372 89 373 89 384 c 0
 89 433 88 428 88 481 c 0
 88 585 144 678 266 678 c 0
 288 678 316 670 340 656 c 0
 350 650 353 649 367 651 c 0
 388 654 404 658 407 658 c 0x6e80
 414 658 414 655 414 643 c 0
 414 630 409 480 409 394 c 0x6d80
 409 371 409 356 410 356 c 0
 413 356 467 386 517 386 c 0
 630 386 709 297 709 188 c 0
 709 59 602 -13 488 -13 c 0
 452 -13 427 6 399 6 c 0
 379 6 361 -12 350 -12 c 0
 342 -12 338 -8 338 1 c 0x9e80
 338 7 341 130 341 197 c 0
 341 231 341 501 340 549 c 0
 340 567 332 571 325 582 c 0
 304 613 299 656 246 656 c 0
 164 656 155 559 155 467 c 2
 155 389 l 2
 155 374 156 372 176 372 c 2xad80
409 332 m 0x9d80
 409 231 407 97 407 64 c 0x9e80
 407 15 463 14 491 14 c 0
 585 14 637 98 637 187 c 0
 637 276 564 357 477 357 c 0
 443 357 409 337 409 332 c 0x9d80
EndSplineSet
Layer: 2
SplineSet
176 345 m 6xbd80
 292 345 l 6
 296 345 299 343 299 340 c 4
 299 335 295 320 291 320 c 6
 176 320 l 6
 161 320 157 318 157 308 c 6
 157 109 l 6
 157 62 158 25 165 25 c 6
 220 25 l 6
 232 25 233 21 233 12 c 4
 233 3 233 -2 220 -2 c 4
 201 -2 158 0 129 0 c 4
 104 0 76 -2 46 -2 c 4
 33 -2 33 1 33 12 c 4
 33 21 35 25 45 25 c 6
 85 25 l 6
 89 25 91 55 91 88 c 4
 91 123 90 161 90 172 c 6
 90 232 l 6
 90 271 90 313 88 313 c 6
 53 313 l 6
 42 313 39 314 39 326 c 4
 39 338 41 339 50 339 c 6
 77 339 l 6
 86 339 89 340 89 351 c 4
 89 400 86 428 86 481 c 4
 86 585 144 678 266 678 c 4
 288 678 316 670 340 656 c 4
 350 650 353 649 367 651 c 4
 388 654 404 658 407 658 c 4x7e80
 414 658 414 655 414 643 c 4
 414 630 409 480 409 394 c 4x7d80
 409 371 409 356 410 356 c 4
 413 356 467 386 517 386 c 4
 630 386 709 297 709 188 c 4
 709 59 602 -13 488 -13 c 4
 452 -13 427 6 399 6 c 4
 379 6 361 -12 350 -12 c 4
 342 -12 338 -8 338 1 c 4xbe80
 338 7 341 130 341 197 c 4
 341 231 341 501 340 549 c 4
 340 567 332 571 325 582 c 4
 304 613 299 656 246 656 c 4
 164 656 155 559 155 467 c 6
 155 362 l 6
 155 347 156 345 176 345 c 6xbd80
409 332 m 4xbd80
 409 231 407 97 407 64 c 4xbe80
 407 15 463 14 491 14 c 4
 585 14 637 98 637 187 c 4
 637 276 564 357 477 357 c 4
 443 357 409 337 409 332 c 4xbd80
EndSplineSet
Ligature2: "'liga' Standard Ligatures in Latin lookup 7 subtable" f b
LCarets2: 1 0 
EndChar

StartChar: f_h
Encoding: 65544 -1 84
Width: 742
VWidth: 0
Flags: HW
HStem: -2 27<33.0015 88.8848 159.546 232.999 279.001 339.987 412.264 473.999 546.002 609.094 679 729.997> 344 41<465.011 570.27> 347 25<39.0022 88.988 157.082 297.745> 656 22<208.022 283.523>
VStem: 90 67<25 345.947 372 585.057> 341 69<25 325.829 349.916 590.99> 611 68<25 300.413>
AnchorPoint: "top" 441 780 basechar 0
LayerCount: 3
Fore
SplineSet
340 549 m 0xde
 340 567 332 571 325 582 c 0
 304 613 299 656 246 656 c 0
 164 656 155 559 155 467 c 2
 155 389 l 2
 155 374 156 372 176 372 c 2
 292 372 l 2
 296 372 299 370 299 367 c 0
 299 362 295 347 291 347 c 2
 176 347 l 2
 161 347 157 345 157 335 c 2
 157 109 l 2
 157 62 158 25 165 25 c 2
 220 25 l 2
 232 25 233 21 233 12 c 0
 233 3 233 -2 220 -2 c 0
 201 -2 158 0 129 0 c 0
 104 0 76 -2 46 -2 c 0
 33 -2 33 1 33 12 c 0
 33 21 35 25 45 25 c 2
 85 25 l 2
 89 25 91 55 91 88 c 0
 91 123 90 161 90 172 c 2
 90 232 l 2
 90 271 90 346 88 346 c 2
 53 346 l 2
 42 346 39 347 39 359 c 0
 39 371 41 372 50 372 c 2
 77 372 l 2xbe
 86 372 89 373 89 384 c 0
 89 433 88 428 88 481 c 0
 88 585 144 678 266 678 c 0
 288 678 316 670 340 656 c 0
 350 650 353 649 367 651 c 0
 388 654 404 658 407 658 c 0
 414 658 414 655 414 643 c 0
 410 560 410 442 410 354 c 0
 410 337 411 339 421 345 c 0
 452 362 512 385 554 385 c 0
 666 385 679 288 679 180 c 2
 679 37 l 2
 679 26 680 25 690 25 c 2
 716 25 l 2
 728 25 730 21 730 12 c 0
 730 3 729 -2 716 -2 c 0
 697 -2 674 0 645 0 c 0
 620 0 589 -2 559 -2 c 0
 546 -2 546 1 546 12 c 0
 546 21 549 25 559 25 c 2
 598 25 l 2
 608 25 608 25 609 36 c 0
 610 56 611 106 611 212 c 0
 611 284 583 344 515 344 c 0
 475 344 446 333 426 323 c 0
 412 316 410 312 410 308 c 2
 411 158 l 2
 411 117 411 69 412 43 c 0
 413 25 413 25 423 25 c 2
 461 25 l 2
 473 25 474 21 474 12 c 0
 474 3 474 -2 461 -2 c 0
 442 -2 407 0 378 0 c 0
 353 0 322 -2 292 -2 c 0
 279 -2 279 1 279 12 c 0
 279 21 281 25 291 25 c 2
 330 25 l 2
 340 25 340 28 340 43 c 0
 341 137 341 191 341 263 c 0
 341 381 341 501 340 549 c 0xde
EndSplineSet
Ligature2: "'liga' Standard Ligatures in Latin lookup 7 subtable" f h
LCarets2: 1 0 
EndChar

StartChar: f_k
Encoding: 65545 -1 85
Width: 728
VWidth: 0
Flags: W
HStem: -2 27<33.0015 88.8848 159.546 232.999 278.001 340.987 405.033 451.999 534.001 557 650.003 694.999> 193 16<405.245 444.383> 347 25<39.0022 88.988 157.082 297.745> 360 27<508.003 547.733 591.694 649.994> 656 22<208.022 283.523>
VStem: 90 67<25 345.947 372 585.057> 340 74<314 592.531> 341 64<25 193 209 549>
DStem2: 499 213 452 176 0.653282 -0.757115<-19.0743 177.87>
LayerCount: 3
Fore
SplineSet
340 549 m 0xde
 340 567 332 571 325 582 c 0
 304 613 299 656 246 656 c 0
 164 656 155 559 155 467 c 2
 155 389 l 2
 155 374 156 372 176 372 c 2
 292 372 l 2
 296 372 299 370 299 367 c 0
 299 362 295 347 291 347 c 2
 176 347 l 2
 161 347 157 345 157 335 c 2
 157 109 l 2
 157 62 158 25 165 25 c 2
 220 25 l 2
 232 25 233 21 233 12 c 0
 233 3 233 -2 220 -2 c 0
 201 -2 158 0 129 0 c 0
 104 0 76 -2 46 -2 c 0
 33 -2 33 1 33 12 c 0
 33 21 35 25 45 25 c 2
 85 25 l 2
 89 25 91 55 91 88 c 0
 91 123 90 161 90 172 c 2
 90 232 l 2
 90 271 90 346 88 346 c 2
 53 346 l 2
 42 346 39 347 39 359 c 0
 39 371 41 372 50 372 c 2
 77 372 l 2
 86 372 89 373 89 384 c 0
 89 433 88 428 88 481 c 0
 88 585 144 678 266 678 c 0
 288 678 316 670 340 656 c 0
 350 650 353 649 367 651 c 0
 388 654 404 658 407 658 c 0
 414 658 414 655 414 643 c 2xee
 405 220 l 2
 405 210 406 209 421 209 c 2
 443 209 l 2
 458 209 465 222 472 231 c 0
 500 268 528 306 551 344 c 0
 558 356 561 360 541 360 c 2
 521 360 l 2
 509 360 508 364 508 373 c 0
 508 382 509 387 522 387 c 0
 532 387 559 385 580 385 c 0
 599 385 622 387 637 387 c 0
 647 387 650 384 650 373 c 0
 650 364 648 360 638 360 c 2
 606 360 l 2
 598 360 517 260 499 237 c 0
 487 222 487 227 499 213 c 2
 650 38 l 2
 660 26 663 25 672 25 c 2
 682 25 l 2
 694 25 695 21 695 12 c 0
 695 3 695 -2 682 -2 c 0
 668 -2 640 0 615 0 c 0
 590 0 561 -2 547 -2 c 0
 534 -2 534 1 534 12 c 0
 534 21 536 25 546 25 c 2
 557 25 l 2
 572 25 567 34 562 40 c 2
 452 176 l 2
 440 191 440 193 430 193 c 2
 416 193 l 2
 405 193 405 189 405 177 c 2
 405 43 l 2
 405 25 406 25 416 25 c 2
 439 25 l 2
 451 25 452 21 452 12 c 0
 452 3 452 -2 439 -2 c 0
 420 -2 400 0 371 0 c 0
 338 0 302 -2 291 -2 c 0
 278 -2 278 1 278 12 c 0
 278 21 280 25 290 25 c 2
 331 25 l 2
 341 25 341 28 341 43 c 2
 341 236 l 2xdd
 341 435 341 501 340 549 c 0xde
EndSplineSet
Ligature2: "'liga' Standard Ligatures in Latin lookup 7 subtable" f k
LCarets2: 1 0 
EndChar

StartChar: f_f_b
Encoding: 65546 -1 86
Width: 995
VWidth: 0
Flags: W
HStem: -13 27<681.885 803.386> -2 27<38.0015 89.7331 164.062 237.999 287.001 342.885 413.546 481.999> 347 25<39.0022 88.988 159.25 342.969 411.082 551.745> 357 29<700.694 791.241> 641 23<214.078 291.775> 656 22<460.254 537.523>
VStem: 90 69<25 345.947 372 548.917> 344 67<25 347 372 558.953> 594 68<98.7526 346.375 356.011 592.531> 890 72<97.1001 269.39>
LayerCount: 3
Fore
SplineSet
662 394 m 0x07c0
 662 371 662 356 663 356 c 0
 666 356 720 386 770 386 c 0
 883 386 962 297 962 188 c 0
 962 59 855 -13 741 -13 c 0
 705 -13 680 6 652 6 c 0
 632 6 614 -12 603 -12 c 0
 595 -12 591 -8 591 1 c 0
 591 7 594 130 594 197 c 0
 594 231 593 501 592 549 c 0
 592 567 586 571 579 582 c 0
 558 613 553 656 500 656 c 0x97c0
 418 656 409 559 409 467 c 2
 409 389 l 2
 409 374 410 372 430 372 c 2
 546 372 l 2
 550 372 553 370 553 367 c 0
 553 362 549 347 545 347 c 2
 430 347 l 2
 415 347 411 345 411 335 c 2
 411 109 l 2
 411 62 412 25 419 25 c 2
 469 25 l 2
 481 25 482 21 482 12 c 0
 482 3 482 -2 469 -2 c 0
 450 -2 412 0 383 0 c 0
 358 0 330 -2 300 -2 c 0
 287 -2 287 1 287 12 c 0
 287 21 289 25 299 25 c 2
 339 25 l 2
 343 25 345 55 345 88 c 0
 345 123 344 161 344 172 c 2
 344 337 l 2
 344 347 341 347 330 347 c 2
 176 347 l 2
 161 347 159 345 159 335 c 2
 159 169 l 2
 159 97 161 25 169 25 c 2
 225 25 l 2
 237 25 238 21 238 12 c 0
 238 3 238 -2 225 -2 c 0
 206 -2 158 0 129 0 c 0
 104 0 81 -2 51 -2 c 0
 38 -2 38 1 38 12 c 0
 38 21 40 25 50 25 c 2
 87 25 l 2
 90 25 91 55 91 88 c 0
 91 123 90 161 90 172 c 2
 90 232 l 2
 90 271 90 346 88 346 c 2
 53 346 l 2
 42 346 39 347 39 359 c 0
 39 371 41 372 50 372 c 2
 79 372 l 2
 88 372 89 373 89 384 c 0
 89 461 92 598 195 646 c 0
 220 658 245 664 269 664 c 0x6bc0
 308 664 350 645 375 614 c 0
 379 609 379 611 382 615 c 0
 412 653 458 678 520 678 c 0
 542 678 570 670 594 656 c 0
 604 650 607 649 621 651 c 0
 642 654 658 658 661 658 c 0
 668 658 668 655 668 643 c 0
 668 622 662 468 662 394 c 0x07c0
662 332 m 0
 662 231 660 97 660 64 c 0
 660 15 716 14 744 14 c 0
 838 14 890 98 890 187 c 0
 890 276 817 357 730 357 c 0
 696 357 662 337 662 332 c 0
346 565 m 0
 336 573 328 581 322 592 c 0
 308 616 292 641 257 641 c 0
 159 641 156 506 156 419 c 2
 156 384 l 2
 156 373 158 372 176 372 c 2
 333 372 l 2x2bc0
 342 372 343 372 343 387 c 0
 343 430 342 431 342 481 c 0
 342 506 343 531 350 554 c 0
 351 557 351 558 351 559 c 0
 351 561 350 562 346 565 c 0
EndSplineSet
Layer: 2
SplineSet
662 394 m 4x37c0
 662 371 662 356 663 356 c 4
 666 356 720 386 770 386 c 4
 883 386 962 297 962 188 c 4
 962 59 855 -13 741 -13 c 4
 705 -13 680 6 652 6 c 4
 632 6 614 -12 603 -12 c 4
 595 -12 591 -8 591 1 c 4
 591 7 594 130 594 197 c 4
 594 231 593 501 592 549 c 4
 592 567 586 571 579 582 c 4
 558 613 553 656 500 656 c 4xb7c0
 418 656 409 559 409 467 c 6
 409 362 l 6
 409 347 410 345 430 345 c 6
 546 345 l 6
 550 345 553 343 553 340 c 4
 553 335 549 320 545 320 c 6
 430 320 l 6
 415 320 411 318 411 308 c 6
 411 109 l 6
 411 62 412 25 419 25 c 6
 469 25 l 6
 481 25 482 21 482 12 c 4
 482 3 482 -2 469 -2 c 4
 450 -2 412 0 383 0 c 4
 358 0 330 -2 300 -2 c 4
 287 -2 287 1 287 12 c 4
 287 21 289 25 299 25 c 6
 339 25 l 6
 343 25 345 55 345 88 c 4
 345 123 344 161 344 172 c 6
 344 310 l 6
 344 320 341 320 330 320 c 6
 176 320 l 6
 161 320 159 318 159 308 c 6
 159 169 l 6
 159 97 161 25 169 25 c 6
 225 25 l 6
 237 25 238 21 238 12 c 4
 238 3 238 -2 225 -2 c 4
 206 -2 158 0 129 0 c 4
 104 0 81 -2 51 -2 c 4
 38 -2 38 1 38 12 c 4
 38 21 40 25 50 25 c 6
 87 25 l 6
 90 25 91 55 91 88 c 4
 91 123 90 161 90 172 c 6
 90 232 l 6
 90 271 90 313 88 313 c 6
 53 313 l 6
 42 313 39 314 39 326 c 4
 39 338 41 339 50 339 c 6
 79 339 l 6
 88 339 89 340 89 351 c 4
 89 467 92 598 195 646 c 4
 220 658 245 664 269 664 c 4x7bc0
 308 664 350 645 375 614 c 4
 379 609 379 611 382 615 c 4
 412 653 458 678 520 678 c 4
 542 678 570 670 594 656 c 4
 604 650 607 649 621 651 c 4
 642 654 658 658 661 658 c 4
 668 658 668 655 668 643 c 4
 668 622 662 468 662 394 c 4x37c0
662 332 m 4
 662 231 660 97 660 64 c 4
 660 15 716 14 744 14 c 4
 838 14 890 98 890 187 c 4
 890 276 817 357 730 357 c 4
 696 357 662 337 662 332 c 4
346 565 m 4
 336 573 328 581 322 592 c 4
 308 616 292 641 257 641 c 4x3bc0
 145 641 158 471 155 362 c 4
 155 347 156 345 176 345 c 6
 333 345 l 6
 342 345 343 345 343 360 c 4
 343 403 340 431 340 481 c 4
 340 506 343 531 350 554 c 4
 351 557 351 558 351 559 c 4
 351 561 350 562 346 565 c 4
EndSplineSet
Ligature2: "'liga' Standard Ligatures in Latin lookup 7 subtable" f f b
LCarets2: 2 0 0 
EndChar

StartChar: f_f_h
Encoding: 65547 -1 87
Width: 995
VWidth: 0
Flags: HW
HStem: -2 27<38.0015 89.7331 164.062 237.999 287.001 342.885 413.546 481.999 532.001 592.987 665.264 726.999 799.002 862.094 932 982.997> 344 41<718.011 823.27> 347 25<39.0022 88.988 159.25 342.969 411.082 551.745> 641 23<214.431 291.775> 656 22<460.254 537.523>
VStem: 90 69<25 345.947 372 548.3> 344 67<25 347 372 558.953> 594 69<25 325.829 349.916 592.531> 864 68<25 300.413>
AnchorPoint: "top" 694 780 basechar 0
LayerCount: 3
Fore
SplineSet
592 549 m 0xcf80
 592 567 586 571 579 582 c 0
 558 613 553 656 500 656 c 0xcf80
 418 656 409 559 409 467 c 2
 409 389 l 2
 409 374 410 372 430 372 c 2
 546 372 l 2
 550 372 553 370 553 367 c 0
 553 362 549 347 545 347 c 2
 430 347 l 2
 415 347 411 345 411 335 c 2
 411 109 l 2
 411 62 412 25 419 25 c 2
 469 25 l 2
 481 25 482 21 482 12 c 0
 482 3 482 -2 469 -2 c 0
 450 -2 412 0 383 0 c 0
 358 0 330 -2 300 -2 c 0
 287 -2 287 1 287 12 c 0
 287 21 289 25 299 25 c 2
 339 25 l 2
 343 25 345 55 345 88 c 0
 345 123 344 161 344 172 c 2
 344 337 l 2
 344 347 341 347 330 347 c 2
 176 347 l 2
 161 347 159 345 159 335 c 2
 159 169 l 2
 159 97 161 25 169 25 c 2
 225 25 l 2
 237 25 238 21 238 12 c 0
 238 3 238 -2 225 -2 c 0
 206 -2 158 0 129 0 c 0
 104 0 81 -2 51 -2 c 0
 38 -2 38 1 38 12 c 0
 38 21 40 25 50 25 c 2
 87 25 l 2
 90 25 91 55 91 88 c 0
 91 123 90 161 90 172 c 2
 90 232 l 2
 90 271 90 346 88 346 c 2
 53 346 l 2
 42 346 39 347 39 359 c 0
 39 371 41 372 50 372 c 2
 79 372 l 2
 88 372 89 373 89 384 c 0
 89 459 92 598 195 646 c 0
 220 658 245 664 269 664 c 0xb780
 308 664 350 645 375 614 c 0
 379 609 379 611 382 615 c 0
 412 653 458 678 520 678 c 0
 542 678 570 670 594 656 c 0
 604 650 607 649 621 651 c 0
 642 654 658 658 661 658 c 0
 668 658 668 655 668 643 c 0
 664 560 663 442 663 354 c 0
 663 337 664 339 674 345 c 0
 705 362 765 385 807 385 c 0
 919 385 932 288 932 180 c 2
 932 37 l 2
 932 26 933 25 943 25 c 2
 969 25 l 2
 981 25 983 21 983 12 c 0
 983 3 982 -2 969 -2 c 0
 950 -2 927 0 898 0 c 0
 873 0 842 -2 812 -2 c 0
 799 -2 799 1 799 12 c 0
 799 21 802 25 812 25 c 2
 851 25 l 2
 861 25 861 25 862 36 c 0
 863 56 864 106 864 212 c 0
 864 284 836 344 768 344 c 0
 728 344 699 333 679 323 c 0
 665 316 663 312 663 308 c 2
 664 158 l 2
 664 117 664 69 665 43 c 0
 666 25 666 25 676 25 c 2
 714 25 l 2
 726 25 727 21 727 12 c 0
 727 3 727 -2 714 -2 c 0
 695 -2 660 0 631 0 c 0
 606 0 575 -2 545 -2 c 0
 532 -2 532 1 532 12 c 0
 532 21 534 25 544 25 c 2
 583 25 l 2
 593 25 593 28 593 43 c 0
 594 137 594 191 594 263 c 0
 594 381 593 501 592 549 c 0xcf80
346 565 m 0
 336 573 328 581 322 592 c 0
 308 616 292 641 257 641 c 0
 161 641 156 513 156 422 c 2
 156 385 l 2xd780
 156 374 158 372 176 372 c 2
 333 372 l 2xa780
 342 372 343 372 343 387 c 0
 343 430 342 431 342 481 c 0
 342 506 343 531 350 554 c 0
 351 557 351 558 351 559 c 0
 351 561 350 562 346 565 c 0
EndSplineSet
Layer: 2
SplineSet
592 549 m 4xa780
 592 567 586 571 579 582 c 4
 558 613 553 656 500 656 c 4xaf80
 418 656 409 559 409 467 c 6
 409 362 l 6
 409 347 410 345 430 345 c 6
 546 345 l 6
 550 345 553 343 553 340 c 4
 553 335 549 320 545 320 c 6
 430 320 l 6
 415 320 411 318 411 308 c 6
 411 109 l 6
 411 62 412 25 419 25 c 6
 469 25 l 6
 481 25 482 21 482 12 c 4
 482 3 482 -2 469 -2 c 4
 450 -2 412 0 383 0 c 4
 358 0 330 -2 300 -2 c 4
 287 -2 287 1 287 12 c 4
 287 21 289 25 299 25 c 6
 339 25 l 6
 343 25 345 55 345 88 c 4
 345 123 344 161 344 172 c 6
 344 310 l 6
 344 320 341 320 330 320 c 6
 176 320 l 6
 161 320 159 318 159 308 c 6
 159 169 l 6
 159 97 161 25 169 25 c 6
 225 25 l 6
 237 25 238 21 238 12 c 4
 238 3 238 -2 225 -2 c 4
 206 -2 158 0 129 0 c 4
 104 0 81 -2 51 -2 c 4
 38 -2 38 1 38 12 c 4
 38 21 40 25 50 25 c 6
 87 25 l 6
 90 25 91 55 91 88 c 4
 91 123 90 161 90 172 c 6
 90 232 l 6
 90 271 90 313 88 313 c 6
 53 313 l 6
 42 313 39 314 39 326 c 4
 39 338 41 339 50 339 c 6
 79 339 l 6
 88 339 89 340 89 351 c 4
 89 467 92 598 195 646 c 4
 220 658 245 664 269 664 c 4xd780
 308 664 350 645 375 614 c 4
 379 609 379 611 382 615 c 4
 412 653 458 678 520 678 c 4
 542 678 570 670 594 656 c 4
 604 650 607 649 621 651 c 4
 642 654 658 658 661 658 c 4
 668 658 668 655 668 643 c 4
 664 560 663 442 663 354 c 4
 663 337 664 339 674 345 c 4xcf80
 705 362 765 385 807 385 c 4
 919 385 932 288 932 180 c 6
 932 37 l 6
 932 26 933 25 943 25 c 6
 969 25 l 6
 981 25 983 21 983 12 c 4
 983 3 982 -2 969 -2 c 4
 950 -2 927 0 898 0 c 4
 873 0 842 -2 812 -2 c 4
 799 -2 799 1 799 12 c 4
 799 21 802 25 812 25 c 6
 851 25 l 6
 861 25 861 25 862 36 c 4
 863 56 864 106 864 212 c 4
 864 284 836 344 768 344 c 4
 728 344 699 333 679 323 c 4
 665 316 663 312 663 308 c 6
 664 158 l 6
 664 117 664 69 665 43 c 4
 666 25 666 25 676 25 c 6
 714 25 l 6
 726 25 727 21 727 12 c 4
 727 3 727 -2 714 -2 c 4
 695 -2 660 0 631 0 c 4
 606 0 575 -2 545 -2 c 4
 532 -2 532 1 532 12 c 4
 532 21 534 25 544 25 c 6
 583 25 l 6
 593 25 593 28 593 43 c 4
 594 137 594 191 594 263 c 4
 594 381 593 501 592 549 c 4xa780
346 565 m 4
 336 573 328 581 322 592 c 4
 308 616 292 641 257 641 c 4
 145 641 158 471 155 362 c 4
 155 347 156 345 176 345 c 6
 333 345 l 6xd780
 342 345 343 345 343 360 c 4
 343 403 340 431 340 481 c 4
 340 506 343 531 350 554 c 4
 351 557 351 558 351 559 c 4
 351 561 350 562 346 565 c 4
EndSplineSet
Ligature2: "'liga' Standard Ligatures in Latin lookup 7 subtable" f f h
LCarets2: 2 0 0 
EndChar

StartChar: f_f_k
Encoding: 65548 -1 88
Width: 995
VWidth: 0
Flags: W
HStem: -2 27<38.0015 89.7331 164.062 237.999 287.001 342.885 413.546 481.999 530.001 592.987 657.033 703.999 786.001 809 902.003 946.999> 193 16<657.245 696.383> 347 25<39.0022 88.988 159.128 342.969 411.082 551.745> 360 27<760.003 799.733 843.694 901.994> 641 23<215.786 291.775> 656 22<460.254 537.523>
VStem: 90 69<25 345.947 372 548.609> 344 67<25 347 372 558.953> 592 76<404.344 597.2> 593 64<25 193 209 442.968>
DStem2: 751 213 704 176 0.653282 -0.757115<-19.0743 177.87>
LayerCount: 3
Fore
SplineSet
592 549 m 0xd780
 592 567 586 571 579 582 c 0
 558 613 553 656 500 656 c 0xd780
 418 656 409 559 409 467 c 2
 409 389 l 2
 409 374 410 372 430 372 c 2
 546 372 l 2
 550 372 553 370 553 367 c 0
 553 362 549 347 545 347 c 2
 430 347 l 2
 415 347 411 345 411 335 c 2
 411 109 l 2
 411 62 412 25 419 25 c 2
 469 25 l 2
 481 25 482 21 482 12 c 0
 482 3 482 -2 469 -2 c 0
 450 -2 412 0 383 0 c 0
 358 0 330 -2 300 -2 c 0
 287 -2 287 1 287 12 c 0
 287 21 289 25 299 25 c 2
 339 25 l 2
 343 25 345 55 345 88 c 0
 345 123 344 161 344 172 c 2
 344 337 l 2
 344 347 341 347 330 347 c 2
 176 347 l 2
 161 347 159 345 159 335 c 2
 159 169 l 2
 159 97 161 25 169 25 c 2
 225 25 l 2
 237 25 238 21 238 12 c 0
 238 3 238 -2 225 -2 c 0
 206 -2 158 0 129 0 c 0
 104 0 81 -2 51 -2 c 0
 38 -2 38 1 38 12 c 0
 38 21 40 25 50 25 c 2
 87 25 l 2
 90 25 91 55 91 88 c 0
 91 123 90 161 90 172 c 2
 90 232 l 2
 90 271 90 346 88 346 c 2
 53 346 l 2
 42 346 39 347 39 359 c 0
 39 371 41 372 50 372 c 2
 79 372 l 2
 88 372 89 373 89 384 c 0
 89 460 92 598 195 646 c 0
 220 658 245 664 269 664 c 0xeb80
 308 664 350 645 375 614 c 0
 379 609 379 611 382 615 c 0
 412 653 458 678 520 678 c 0
 542 678 570 670 594 656 c 0
 604 650 607 649 621 651 c 0
 642 654 658 658 661 658 c 0
 668 658 668 655 668 643 c 0xc780
 668 622 657 220 657 220 c 2xc740
 657 210 658 209 673 209 c 2
 695 209 l 2
 710 209 717 222 724 231 c 0
 752 268 780 306 803 344 c 0
 810 356 813 360 793 360 c 2
 773 360 l 2
 761 360 760 364 760 373 c 0
 760 382 761 387 774 387 c 0
 784 387 811 385 832 385 c 0
 851 385 874 387 889 387 c 0
 899 387 902 384 902 373 c 0
 902 364 900 360 890 360 c 2
 858 360 l 2
 850 360 769 260 751 237 c 0
 739 222 739 227 751 213 c 2
 902 38 l 2
 912 26 915 25 924 25 c 2
 934 25 l 2
 946 25 947 21 947 12 c 0
 947 3 947 -2 934 -2 c 0
 920 -2 892 0 867 0 c 0
 842 0 813 -2 799 -2 c 0
 786 -2 786 1 786 12 c 0
 786 21 788 25 798 25 c 2
 809 25 l 2
 824 25 819 34 814 40 c 2
 704 176 l 2
 692 191 692 193 682 193 c 2
 668 193 l 2xd780
 657 193 657 189 657 177 c 2
 657 43 l 2xd740
 657 25 658 25 668 25 c 2xd780
 691 25 l 2
 703 25 704 21 704 12 c 0
 704 3 704 -2 691 -2 c 0
 672 -2 652 0 623 0 c 0
 590 0 554 -2 543 -2 c 0
 530 -2 530 1 530 12 c 0
 530 21 532 25 542 25 c 2
 583 25 l 2
 593 25 593 28 593 43 c 2
 593 236 l 2xd740
 593 435 593 501 592 549 c 0xd780
346 565 m 0
 336 573 328 581 322 592 c 0
 308 616 292 641 257 641 c 0
 156 641 156 496 156 416 c 2
 156 387 l 2xdb
 156 374 157 372 176 372 c 2
 333 372 l 2xe3
 342 372 343 372 343 387 c 0
 343 430 340 431 340 481 c 0
 340 506 343 531 350 554 c 0
 351 557 351 558 351 559 c 0
 351 561 350 562 346 565 c 0
EndSplineSet
Layer: 2
SplineSet
592 549 m 4xf780
 592 567 586 571 579 582 c 4
 558 613 553 656 500 656 c 4xf780
 418 656 409 559 409 467 c 6
 409 362 l 6
 409 347 410 345 430 345 c 6
 546 345 l 6
 550 345 553 343 553 340 c 4
 553 335 549 320 545 320 c 6
 430 320 l 6
 415 320 411 318 411 308 c 6
 411 109 l 6
 411 62 412 25 419 25 c 6
 469 25 l 6
 481 25 482 21 482 12 c 4
 482 3 482 -2 469 -2 c 4
 450 -2 412 0 383 0 c 4
 358 0 330 -2 300 -2 c 4
 287 -2 287 1 287 12 c 4
 287 21 289 25 299 25 c 6
 339 25 l 6
 343 25 345 55 345 88 c 4
 345 123 344 161 344 172 c 6
 344 310 l 6
 344 320 341 320 330 320 c 6
 176 320 l 6
 161 320 159 318 159 308 c 6
 159 169 l 6
 159 97 161 25 169 25 c 6
 225 25 l 6
 237 25 238 21 238 12 c 4
 238 3 238 -2 225 -2 c 4
 206 -2 158 0 129 0 c 4
 104 0 81 -2 51 -2 c 4
 38 -2 38 1 38 12 c 4
 38 21 40 25 50 25 c 6
 87 25 l 6
 90 25 91 55 91 88 c 4
 91 123 90 161 90 172 c 6
 90 232 l 6
 90 271 90 313 88 313 c 6
 53 313 l 6
 42 313 39 314 39 326 c 4
 39 338 41 339 50 339 c 6
 79 339 l 6
 88 339 89 340 89 351 c 4
 89 467 92 598 195 646 c 4
 220 658 245 664 269 664 c 4xfb80
 308 664 350 645 375 614 c 4
 379 609 379 611 382 615 c 4
 412 653 458 678 520 678 c 4
 542 678 570 670 594 656 c 4
 604 650 607 649 621 651 c 4
 642 654 658 658 661 658 c 4
 668 658 668 655 668 643 c 4xf780
 668 622 657 220 657 220 c 6xf740
 657 210 658 209 673 209 c 6
 695 209 l 6
 710 209 717 222 724 231 c 4
 752 268 780 306 803 344 c 4
 810 356 813 360 793 360 c 6
 773 360 l 6
 761 360 760 364 760 373 c 4
 760 382 761 387 774 387 c 4
 784 387 811 385 832 385 c 4
 851 385 874 387 889 387 c 4
 899 387 902 384 902 373 c 4
 902 364 900 360 890 360 c 6
 858 360 l 6
 850 360 769 260 751 237 c 4
 739 222 739 227 751 213 c 6
 902 38 l 6
 912 26 915 25 924 25 c 6
 934 25 l 6
 946 25 947 21 947 12 c 4
 947 3 947 -2 934 -2 c 4
 920 -2 892 0 867 0 c 4
 842 0 813 -2 799 -2 c 4
 786 -2 786 1 786 12 c 4
 786 21 788 25 798 25 c 6
 809 25 l 6
 824 25 819 34 814 40 c 6
 704 176 l 6
 692 191 692 193 682 193 c 6
 668 193 l 6xf780
 657 193 657 189 657 177 c 6
 657 43 l 6xf740
 657 25 658 25 668 25 c 6xf780
 691 25 l 6
 703 25 704 21 704 12 c 4
 704 3 704 -2 691 -2 c 4
 672 -2 652 0 623 0 c 4
 590 0 554 -2 543 -2 c 4
 530 -2 530 1 530 12 c 4
 530 21 532 25 542 25 c 6
 583 25 l 6
 593 25 593 28 593 43 c 6
 593 236 l 6xf740
 593 435 593 501 592 549 c 4xf780
346 565 m 4
 336 573 328 581 322 592 c 4
 308 616 292 641 257 641 c 4xfb
 145 641 158 471 155 362 c 4
 155 347 156 345 176 345 c 6
 333 345 l 6
 342 345 343 345 343 360 c 4
 343 403 340 431 340 481 c 4
 340 506 343 531 350 554 c 4
 351 557 351 558 351 559 c 4
 351 561 350 562 346 565 c 4
EndSplineSet
Ligature2: "'liga' Standard Ligatures in Latin lookup 7 subtable" f f k
LCarets2: 2 0 0 
EndChar

StartChar: bracketleft
Encoding: 91 91 89
Width: 312
VWidth: 0
Flags: W
HStem: -141 36<92 223> 654 36<92 223>
VStem: 47 45<-105 654>
LayerCount: 3
Fore
SplineSet
60 -141 m 2
 48 -141 47 -140 47 -126 c 2
 47 675 l 2
 47 686 48 690 59 690 c 2
 210 690 l 2
 222 690 223 689 223 681 c 2
 223 667 l 2
 223 654 221 654 210 654 c 2
 105 654 l 2
 92 654 92 652 92 642 c 2
 92 -93 l 2
 92 -103 92 -105 105 -105 c 2
 210 -105 l 2
 221 -105 223 -105 223 -118 c 2
 223 -130 l 2
 223 -138 222 -141 210 -141 c 2
 60 -141 l 2
EndSplineSet
AlternateSubs2: "'aalt' Access All Alternates lookup 0 subtable" bracketleft.u
AlternateSubs2: "'aalt' Access All Alternates in Latin lookup 0 subtable" bracketleft.u
Substitution2: "'case' Case-Sensitive Forms in Latin lookup 6 subtable" bracketleft.u
EndChar

StartChar: dagger
Encoding: 8224 8224 90
Width: 488
VWidth: 0
Flags: W
HStem: 390 66<37.5708 191.122 312.519 445.57> 414 23<159.708 220.387 269.263 341.625> 656 20G<228 255.5>
VStem: 201 81<509.182 670.748> 209 69<120.244 397.157> 221 47<353.474 413.839> 228 40<-227 -24.2897> 233 26<439.947 517.939>
LayerCount: 3
Fore
SplineSet
251 -227 m 2xa2
 245 -227 l 2
 236 -227 228 -225 228 -217 c 0xa2
 228 251 209 339 209 353 c 0xa8
 209 358 221 388 221 398 c 0
 221 407 215 414 206 414 c 0x64
 186 414 137 390 87 390 c 0
 61 390 35 397 35 423 c 0
 35 448 64 456 87 456 c 0xa4
 140 456 164 437 209 437 c 0x68
 221 437 233 447 233 459 c 0x61
 233 470 201 594 201 627 c 0
 201 650 215 676 241 676 c 0
 270 676 282 648 282 628 c 0x70
 282 585 259 473 259 454 c 0x61
 259 443 273 434 284 434 c 0
 323 434 371 456 398 456 c 0
 431 456 448 442 448 423 c 0
 448 398 424 390 400 390 c 0
 368 390 313 416 290 416 c 0
 280 416 268 408 268 398 c 0xa4
 268 380 278 363 278 353 c 0xa8
 278 337 268 253 268 -217 c 0
 268 -225 260 -227 251 -227 c 2xa2
EndSplineSet
EndChar

StartChar: daggerdbl
Encoding: 8225 8225 91
Width: 464
VWidth: 0
Flags: W
HStem: -62 52<43.3675 179.13 247.774 393.575> -47 18<135.389 195.872 235.594 286.927> 466 52<43.4251 189.226 257.87 393.633> 485 18<150.073 201.406 241.128 301.611> 651 20G<207.5 229.5>
VStem: 188 61<-218.495 -76.8191 -15.351 205.982 305.206 471.351 532.358 669.495> 197 38<-28.9375 9.62788 446.372 484.938> 204 21<-109.768 -49.1606 87.0175 211.471> 212 21<109.837 211.156 253.041 380.629 505.161 563.616>
LayerCount: 3
Fore
SplineSet
227 206 m 0x8a
 227 147 243 21 243 10 c 0
 243 6 235 -8 235 -16 c 0
 235 -23 240 -29 247 -29 c 0x4a
 263 -29 312 -10 352 -10 c 0
 373 -10 394 -15 394 -36 c 0
 394 -56 370 -62 352 -62 c 0x8a
 310 -62 280 -47 244 -47 c 0
 234 -47 225 -55 225 -65 c 0x49
 225 -74 249 -155 249 -181 c 0
 249 -199 240 -220 219 -220 c 0
 196 -220 188 -198 188 -182 c 0x4c
 188 -148 204 -76 204 -61 c 0x49
 204 -52 193 -45 184 -45 c 0
 153 -45 105 -62 83 -62 c 0
 57 -62 43 -51 43 -36 c 0
 43 -16 63 -10 82 -10 c 0
 108 -10 162 -30 180 -30 c 0
 188 -30 197 -24 197 -16 c 0
 197 -2 190 2 190 10 c 0
 190 23 209 147 209 206 c 0
 209 210 214 212 218 212 c 0
 222 212 227 210 227 206 c 0x8a
212 260 m 0x2880
 212 319 194 435 194 446 c 0
 194 450 202 464 202 472 c 0
 202 479 197 485 190 485 c 0x1880
 174 485 125 466 85 466 c 0
 64 466 43 471 43 492 c 0
 43 512 67 518 85 518 c 0x2880
 127 518 157 503 193 503 c 0
 203 503 212 511 212 521 c 0x1880
 212 530 188 606 188 632 c 0
 188 650 197 671 218 671 c 0
 241 671 249 649 249 633 c 0x1c
 249 599 233 532 233 517 c 0
 233 508 244 501 253 501 c 0
 284 501 332 518 354 518 c 0
 380 518 394 507 394 492 c 0
 394 472 374 466 355 466 c 0
 329 466 275 486 257 486 c 0
 249 486 240 480 240 472 c 0
 240 458 247 454 247 446 c 0
 247 433 231 319 231 260 c 0
 231 254 226 253 221 253 c 0
 216 253 212 254 212 260 c 0x2880
EndSplineSet
EndChar

StartChar: section
Encoding: 167 167 92
Width: 386
VWidth: 0
Flags: W
HStem: -226 42<121.958 263.366> 636 41<122.562 227.641>
VStem: 48 38<292.644 372.874> 71 35<544.908 620.143> 288 34<-165.717 -85.9242> 310 39<84.2439 167.896>
LayerCount: 3
Fore
SplineSet
121 413 m 0xe4
 108 403 86 383 86 357 c 0
 86 283 217 100 253 52 c 0
 258 45 260 42 263 42 c 0
 266 42 269 45 277 52 c 0
 291 65 310 85 310 102 c 0
 310 189 172 365 139 411 c 0
 132 420 134 423 121 413 c 0xe4
196 677 m 0
 240 677 310 666 310 632 c 0
 310 611 293 605 273 605 c 0
 229 605 208 636 164 636 c 0
 139 636 106 633 106 594 c 0
 106 506 349 314 349 132 c 0xd4
 349 93 305 55 283 38 c 0
 276 32 273 29 273 26 c 0
 273 23 276 19 280 12 c 0
 295 -15 322 -69 322 -102 c 0
 322 -175 268 -226 176 -226 c 0
 132 -226 73 -221 73 -182 c 0
 73 -169 86 -159 101 -159 c 0
 117 -159 130 -167 144 -172 c 0
 158 -177 188 -184 216 -184 c 0
 255 -184 288 -169 288 -132 c 0
 288 -54 48 153 48 310 c 0xe8
 48 371 98 414 117 428 c 0
 124 433 120 439 115 446 c 0
 97 474 71 514 71 556 c 0xd0
 71 624 119 677 196 677 c 0
EndSplineSet
EndChar

StartChar: paragraph
Encoding: 182 182 93
Width: 496
VWidth: 0
Flags: W
HStem: -231 34<278 357> 620 34<384 450>
VStem: 38 245<306.245 516.982> 357 27<-197 620>
LayerCount: 3
Fore
SplineSet
450 643 m 2
 450 629 l 2
 450 622 449 620 438 620 c 2
 392 620 l 2
 385 620 384 619 384 610 c 2
 384 -222 l 2
 384 -230 383 -231 370 -231 c 2
 288 -231 l 2
 279 -231 278 -228 278 -223 c 2
 278 -205 l 2
 278 -200 279 -197 288 -197 c 2
 346 -197 l 2
 356 -197 357 -196 357 -189 c 2
 357 642 l 2
 357 653 360 654 368 654 c 2
 438 654 l 2
 449 654 450 652 450 643 c 2
38 417 m 0
 38 583 184 644 271 644 c 0
 282 644 283 640 283 630 c 2
 283 162 l 2
 283 156 282 154 278 154 c 0
 208 154 38 221 38 417 c 0
EndSplineSet
EndChar

StartChar: asterisk
Encoding: 42 42 94
Width: 428
VWidth: 0
Flags: W
HStem: 420 21G<69.5 82.5> 457 60<293.541 377.252> 513 24<194.765 200.999> 514 10<216.586 231.828> 655 20G<280 294>
VStem: 182 63<350.136 468.829> 191 25<524.603 537.225> 201 12<484.812 512.939>
DStem2: 71 478 103 427 0.718696 0.695324<-34.9932 47.9509 204.174 291.089>
LayerCount: 3
Fore
SplineSet
245 387 m 0x9c
 245 369 236 348 215 348 c 0
 192 348 182 370 182 386 c 0x9c
 182 406 196 461 200 492 c 0
 201 496 201 499 201 502 c 0x99
 201 510 200 513 197 513 c 0
 193 513 187 509 180 502 c 0
 157 481 122 438 103 427 c 0
 96 423 87 420 78 420 c 0
 61 420 48 430 48 447 c 0
 48 461 60 473 71 478 c 0
 91 487 144 503 172 515 c 0
 185 520 191 524 191 528 c 0xaa
 191 532 186 536 176 543 c 0
 151 561 103 587 88 603 c 0
 81 611 75 622 75 632 c 0
 75 646 84 659 103 659 c 0
 115 659 127 652 134 644 c 0
 150 627 178 575 194 550 c 0
 199 542 202 537 205 537 c 0
 207 537 209 541 213 550 c 0xa9
 224 577 242 639 254 656 c 0
 261 666 274 675 286 675 c 0
 302 675 313 660 313 647 c 0
 313 637 309 628 304 621 c 0
 289 599 246 568 226 546 c 0
 220 539 216 534 216 531 c 0
 216 527 221 525 234 524 c 0x9a
 265 521 329 524 350 517 c 0
 365 512 379 502 379 486 c 0
 379 467 364 457 347 457 c 0xca
 342 457 337 458 332 460 c 0
 317 465 263 495 234 508 c 0
 226 512 221 514 218 514 c 0
 216 514 213 513 213 510 c 0x99
 213 507 214 503 216 496 c 0x9a
 223 464 245 411 245 387 c 0x9c
EndSplineSet
EndChar

StartChar: percent
Encoding: 37 37 95
Width: 657
VWidth: 250
Flags: W
HStem: -84 16<413.097 473.44> 175 15<127.937 186.742> 198 33<482.582 562.333> 416 17<322 404.936> 456 32<198.018 277.815>
VStem: 51 49<213.644 347.666> 293 29<309.391 418.991> 337 49<-45.6771 89.1461> 579 29<48.3497 179.73>
DStem2: 100 -100 133 -110 0.557602 0.830109<-5.29093 636.7>
LayerCount: 3
Fore
SplineSet
437 -84 m 0
 372 -84 337 -34 337 28 c 0
 337 120 423 231 518 231 c 0
 574 231 608 189 608 122 c 0
 608 17 523 -84 437 -84 c 0
241 456 m 0
 181 456 100 352 100 261 c 0
 100 226 115 190 154 190 c 0
 219 190 293 277 293 386 c 0
 293 427 278 456 241 456 c 0
526 198 m 0
 467 198 386 94 386 3 c 0
 386 -33 400 -68 440 -68 c 0
 505 -68 579 19 579 127 c 0
 579 168 563 198 526 198 c 0
321 364 m 0
 313 269 234 175 151 175 c 0
 86 175 51 225 51 287 c 0
 51 359 123 488 228 488 c 0
 262 488 280 476 299 457 c 0
 313 443 332 433 357 433 c 0
 391 433 428 448 450 461 c 0
 487 483 515 516 539 539 c 0
 541 541 553 556 554 556 c 0
 562 556 572 550 572 544 c 0
 572 542 571 539 567 533 c 0
 511 451 156 -74 133 -110 c 0
 130 -115 121 -116 114 -116 c 0
 106 -116 98 -113 98 -106 c 0
 98 -104 99 -102 100 -100 c 0
 102 -96 411 341 462 430 c 0
 466 437 478 452 462 444 c 0
 457 441 410 416 357 416 c 0
 347 416 335 417 322 419 c 0
 320 419 322 406 322 403 c 2
 322 389 l 2
 322 381 322 372 321 364 c 0
EndSplineSet
EndChar

StartChar: dollar
Encoding: 36 36 96
Width: 455
VWidth: 0
Flags: W
HStem: 0 22<166.639 224.988 248.03 290.509> 608 19<183.611 224.999 248.003 297.413> 662 20G<229.5 244>
VStem: 48 55<419.826 544.161> 225 23<-147.999 -0.22274 22.0073 276.82 365.271 607.999 628 679.686> 371 57<82.6892 210.915>
LayerCount: 3
Fore
SplineSet
232 682 m 2
 241 682 l 2
 247 682 248 681 248 673 c 2
 248 637 l 2
 248 628 248 629 256 628 c 0
 351 621 404 562 404 532 c 0
 404 517 376 505 369 505 c 0
 339 505 372 596 259 608 c 0
 252 609 248 609 248 602 c 2
 248 365 l 2
 248 348 249 347 260 342 c 0
 338 306 428 263 428 169 c 0
 428 74 369 10 262 0 c 0
 249 -1 248 0 248 -14 c 2
 248 -136 l 2
 248 -148 248 -148 236 -148 c 0
 225 -148 225 -147 225 -136 c 2
 225 -14 l 2
 225 -1 225 -1 212 -0 c 0
 121 6 44 53 44 92 c 0
 44 102 68 110 79 110 c 0
 91 110 98 93 115 73 c 0
 139 44 168 25 212 21 c 0
 221 20 225 20 225 30 c 2
 225 270 l 2
 225 285 223 289 211 294 c 0
 133 329 48 372 48 470 c 0
 48 557 126 619 217 627 c 0
 225 628 225 628 225 637 c 2
 225 673 l 2
 225 681 227 682 232 682 c 2
225 368 m 2
 225 602 l 2
 225 607 223 608 220 608 c 0
 201 608 181 600 162 589 c 0
 130 570 103 536 103 480 c 0
 103 413 159 385 212 362 c 0
 222 358 225 352 225 368 c 2
248 265 m 2
 248 38 l 2
 248 26 248 22 254 22 c 0
 256 22 258 22 262 23 c 0
 326 36 371 92 371 147 c 0
 371 215 318 248 260 274 c 0
 256 276 253 277 251 277 c 0
 248 277 248 274 248 265 c 2
EndSplineSet
EndChar

StartChar: bullet
Encoding: 8226 8226 97
Width: 360
VWidth: 0
Flags: W
HStem: 209 236<111.765 248.235>
VStem: 62 236<258.765 395.235>
LayerCount: 3
Fore
SplineSet
62 327 m 0
 62 392 115 445 180 445 c 0
 245 445 298 392 298 327 c 0
 298 262 245 209 180 209 c 0
 115 209 62 262 62 327 c 0
EndSplineSet
EndChar

StartChar: sterling
Encoding: 163 163 98
Width: 532
VWidth: 0
Flags: W
HStem: -8 44<212.149 449.146> 6 24<157 180.862> 248 24<61.006 134.922 196.294 343.999> 642 23<243.976 323.416>
VStem: 54 81<-65.2599 -26.5043> 128 68<281.487 583.024> 135 61<85.8818 248 272 494.806> 136 21<30 60.3517> 354 56<550.605 622.075> 465 34<47.0149 116.5>
LayerCount: 3
Fore
SplineSet
410 587 m 0x74c0
 410 565 393 546 370 546 c 0
 363 546 354 548 354 554 c 0
 354 588 342 642 288 642 c 0
 201 642 196 554 196 460 c 2
 196 290 l 2x74c0
 196 273 198 272 214 272 c 2
 335 272 l 2
 342 272 344 271 344 260 c 0
 344 249 343 248 335 248 c 2
 214 248 l 2
 198 248 197 248 196 232 c 0x72c0
 192 144 171 70 161 42 c 0
 158 35 157 31 157 30 c 1x71c0
 158 30 161 33 168 36 c 0
 183 43 211 53 244 53 c 0
 296 53 369 36 413 36 c 0
 442 36 465 43 465 73 c 0
 465 93 422 114 422 124 c 0
 422 132 438 156 454 156 c 0
 471 156 499 132 499 101 c 0
 499 42 441 -8 387 -8 c 0xb1c0
 332 -8 173 6 154 6 c 0
 143 6 141 -2 135 -18 c 0x72c0
 126 -44 117 -80 82 -80 c 0
 69 -80 54 -73 54 -56 c 0
 54 -33 92 -18 122 4 c 0
 135 13 135 12 136 23 c 0x79c0
 138 58 140 90 140 128 c 0
 140 162 139 196 137 232 c 0
 136 248 136 248 121 248 c 2
 70 248 l 2
 63 248 61 249 61 261 c 0
 61 271 63 272 69 272 c 2
 119 272 l 2
 133 272 135 273 135 281 c 0x72c0
 135 290 128 389 128 500 c 0
 128 601 208 665 295 665 c 0
 355 665 410 637 410 587 c 0x74c0
EndSplineSet
EndChar

StartChar: bracketright
Encoding: 93 93 99
Width: 312
VWidth: 0
Flags: W
HStem: -141 36<47 178> 654 36<47 178>
VStem: 178 45<-105 654>
LayerCount: 3
Fore
SplineSet
210 690 m 2
 222 690 223 689 223 675 c 2
 223 -126 l 2
 223 -137 222 -141 211 -141 c 2
 60 -141 l 2
 48 -141 47 -140 47 -132 c 2
 47 -118 l 2
 47 -105 49 -105 60 -105 c 2
 165 -105 l 2
 178 -105 178 -103 178 -93 c 2
 178 642 l 2
 178 652 178 654 165 654 c 2
 60 654 l 2
 49 654 47 654 47 667 c 2
 47 679 l 2
 47 687 48 690 60 690 c 2
 210 690 l 2
EndSplineSet
AlternateSubs2: "'aalt' Access All Alternates lookup 0 subtable" bracketright.u
AlternateSubs2: "'aalt' Access All Alternates in Latin lookup 0 subtable" bracketright.u
Substitution2: "'case' Case-Sensitive Forms in Latin lookup 6 subtable" bracketright.u
EndChar

StartChar: ampersand
Encoding: 38 38 100
Width: 658
VWidth: 0
Flags: W
HStem: -10 62<172.818 296.527> -0 27<548.505 617.992> 332 30<424.001 515.997 563.175 628.986> 612 30<205.008 297.584>
VStem: 37 62<124.823 231.939> 103 65<452.307 563.759> 334 68<480.265 583.958> 399 65<139.038 158.288>
DStem2: 219 411 159 370 0.69783 -0.716263<-87.7899 11.4507 59.4589 294.049>
LayerCount: 3
Fore
SplineSet
561 314 m 0xbe
 540 284 464 177 464 170 c 0
 464 166 468 162 474 154 c 0
 496 127 521 87 538 56 c 0
 550 35 553 27 609 27 c 4
 618 27 618 26 618 15 c 0
 618 0 617 0 602 -0 c 0x7d
 535 -1 501 -10 487 -10 c 0xbd
 476 -10 474 -8 472 0 c 0x7d
 459 45 436 81 424 98 c 0
 414 112 414 110 404 99 c 0
 373 65 300 -10 216 -10 c 0
 106 -10 37 60 37 155 c 0
 37 244 124 314 161 340 c 0
 171 347 175 350 175 352 c 0
 175 355 169 359 159 370 c 0
 137 395 103 440 103 486 c 0
 103 574 178 642 263 642 c 0
 329 642 402 610 402 542 c 0
 402 474 315 408 277 382 c 0
 268 376 263 374 263 371 c 0
 263 368 268 364 276 357 c 0
 337 306 380 259 432 203 c 0
 439 195 442 191 445 191 c 0
 448 191 450 196 455 205 c 0
 476 243 516 305 516 327 c 0
 516 332 512 332 497 332 c 2
 437 332 l 2
 425 332 424 332 424 347 c 0
 424 362 424 362 437 362 c 0
 453 362 515 359 545 359 c 0
 572 359 605 362 615 362 c 0
 628 362 629 361 629 344 c 0
 629 332 627 332 611 332 c 2
 581 332 l 2
 574 332 569 326 561 314 c 0xbe
172 318 m 0
 142 296 99 259 99 197 c 0
 99 117 172 52 248 52 c 0xbd
 321 52 372 99 392 119 c 0
 397 125 399 128 399 130 c 0
 399 133 395 136 390 143 c 0
 353 195 273 274 216 321 c 0
 207 329 202 333 198 333 c 0
 194 333 187 329 172 318 c 0
263 405 m 0
 291 426 334 467 334 526 c 0x3e
 334 570 300 612 254 612 c 0
 195 612 168 566 168 518 c 0
 168 480 198 436 219 411 c 0
 229 399 239 392 241 392 c 0
 244 392 252 397 263 405 c 0
EndSplineSet
AlternateSubs2: "'aalt' Access All Alternates lookup 0 subtable" ampersand.c2
AlternateSubs2: "'aalt' Access All Alternates in Latin lookup 0 subtable" ampersand.c2
Substitution2: "'c2sc' Capitals to Small Capitals in Latin lookup 5 subtable" ampersand.c2
EndChar

StartChar: ae
Encoding: 230 230 101
Width: 665
VWidth: 0
Flags: W
HStem: -15 44<121.625 220.111 396.829 530.055> 202 16<223.78 264.615> 230 17<328.003 536.998> 374 22<137.886 223.622 401.713 484.908>
VStem: 33 70<47.0664 128.068> 47 68<280.193 330.887> 265 63<98.0435 201.997 216.332 229.984 247.001 314.258> 537 69<233 323.805>
LayerCount: 3
Fore
SplineSet
103 98 m 0xfb
 103 66 126 29 168 29 c 0
 196 29 228 38 247 46 c 0
 263 53 265 56 265 66 c 2
 265 191 l 2
 265 198 264 202 259 202 c 0
 256 202 226 196 197 187 c 0
 150 172 103 145 103 98 c 0xfb
445 374 m 0
 379 374 332 305 328 255 c 0
 328 249 332 247 340 247 c 0
 345 247 447 249 497 251 c 0
 534 252 537 253 537 255 c 0
 537 353 477 374 445 374 c 0
131 -15 m 0
 69 -15 33 19 33 70 c 0xfb
 33 159 158 201 257 218 c 0
 265 219 265 226 265 234 c 0
 265 304 264 373 178 373 c 0
 168 373 157 372 147 368 c 0
 119 356 116 341 115 301 c 0
 115 295 114 284 108 280 c 0
 92 268 59 252 55 252 c 0
 50 252 47 256 47 267 c 0xf7
 47 349 134 398 199 398 c 0
 256 398 291 381 310 353 c 0
 319 340 317 341 329 351 c 0
 363 379 407 396 457 396 c 0
 556 396 606 321 606 237 c 0
 606 229 564 225 552 225 c 0
 541 225 336 230 328 230 c 0
 323 230 323 208 323 194 c 0
 323 87 397 29 472 29 c 0
 552 29 598 94 601 94 c 0
 604 94 617 82 617 79 c 0
 617 73 545 -15 444 -15 c 0
 383 -15 335 5 303 39 c 0
 295 48 295 46 284 39 c 0
 242 13 177 -15 131 -15 c 0
EndSplineSet
Layer: 2
SplineSet
445 374 m 4
 379 374 332 305 328 255 c 4
 328 249 332 247 340 247 c 4
 345 247 447 249 497 251 c 4
 534 252 537 253 537 255 c 4
 537 353 477 374 445 374 c 4
259 202 m 4
 256 202 226 195 197 187 c 4
 149 174 103 145 103 98 c 4
 103 66 126 29 168 29 c 4
 196 29 228 38 247 46 c 4
 263 53 265 56 265 66 c 6
 265 191 l 6
 265 198 264 202 259 202 c 4
131 -15 m 4
 69 -15 33 19 33 70 c 4
 33 159 158 201 257 218 c 4
 265 219 265 226 265 234 c 4
 265 304 264 373 178 373 c 4
 168 373 157 372 147 368 c 4
 119 356 116 341 115 301 c 4
 115 295 114 284 108 280 c 4
 92 268 59 252 55 252 c 4
 50 252 47 256 47 267 c 4
 47 349 134 398 199 398 c 4
 264 398 300 377 317 341 c 5
 353 375 401 396 457 396 c 4
 556 396 606 321 606 237 c 4
 606 229 564 225 552 225 c 4
 541 225 336 230 328 230 c 4
 323 230 323 208 323 194 c 4
 323 87 397 29 472 29 c 4
 552 29 598 94 601 94 c 4
 604 94 617 82 617 79 c 4
 617 73 545 -15 444 -15 c 4
 378 -15 328 8 296 47 c 5
 256 20 182 -15 131 -15 c 4
EndSplineSet
AlternateSubs2: "'aalt' Access All Alternates lookup 0 subtable" ae.sc
AlternateSubs2: "'aalt' Access All Alternates in Latin lookup 0 subtable" ae.sc
Substitution2: "'smcp' Lowercase to Small Capitals in Latin lookup 4 subtable" ae.sc
EndChar

StartChar: oe
Encoding: 339 339 102
Width: 753
VWidth: 0
Flags: W
HStem: -15 44<481.803 615.055> -15 26<169.668 270.508> 230 17<413.003 621.998> 370 26<169.398 271.363 477.206 580.782>
VStem: 29 71<92.766 280.533> 342 66<107.316 229.984 247.001 302.252> 622 69<233 323.805>
LayerCount: 3
Fore
SplineSet
222 370 m 0x7e
 128 370 100 279 100 169 c 0
 100 94 140 11 218 11 c 0
 318 11 342 114 342 204 c 0
 342 282 306 370 222 370 c 0x7e
530 374 m 0
 464 374 417 305 413 255 c 0
 413 249 417 247 425 247 c 0
 430 247 532 249 582 251 c 0
 619 252 622 253 622 255 c 0
 622 353 562 374 530 374 c 0
393 332 m 0
 429 372 481 396 542 396 c 0
 641 396 691 321 691 237 c 0
 691 229 649 225 637 225 c 0
 626 225 421 230 413 230 c 0
 408 230 408 208 408 194 c 0
 408 87 482 29 557 29 c 0
 637 29 683 94 686 94 c 0
 689 94 702 82 702 79 c 0
 702 73 630 -15 529 -15 c 0xbe
 447 -15 404 23 385 47 c 0
 377 57 375 62 373 62 c 0
 371 62 369 58 363 50 c 0
 346 26 303 -15 218 -15 c 0
 111 -15 29 74 29 183 c 0
 29 301 111 396 234 396 c 0
 291 396 338 371 370 332 c 0
 376 325 378 321 381 321 c 0
 384 321 386 325 393 332 c 0
EndSplineSet
AlternateSubs2: "'aalt' Access All Alternates lookup 0 subtable" oe.sc
AlternateSubs2: "'aalt' Access All Alternates in Latin lookup 0 subtable" oe.sc
Substitution2: "'smcp' Lowercase to Small Capitals in Latin lookup 4 subtable" oe.sc
EndChar

StartChar: emdash
Encoding: 8212 8212 103
Width: 750
VWidth: 0
Flags: W
HStem: 175 37<10.0015 740>
LayerCount: 3
Fore
SplineSet
740 188 m 2
 740 176 739 175 724 175 c 2
 30 175 l 2
 10 175 10 175 10 195 c 0
 10 211 12 212 23 212 c 2
 724 212 l 2
 739 212 740 211 740 200 c 2
 740 188 l 2
EndSplineSet
AlternateSubs2: "'aalt' Access All Alternates lookup 0 subtable" emdash.u
AlternateSubs2: "'aalt' Access All Alternates in Latin lookup 0 subtable" emdash.u
Substitution2: "'case' Case-Sensitive Forms in Latin lookup 6 subtable" emdash.u
EndChar

StartChar: endash
Encoding: 8211 8211 104
Width: 500
VWidth: 0
Flags: W
HStem: 175 37<10.0015 490>
LayerCount: 3
Fore
SplineSet
490 188 m 2
 490 176 489 175 474 175 c 2
 30 175 l 2
 10 175 10 175 10 195 c 0
 10 211 12 212 23 212 c 2
 474 212 l 2
 489 212 490 211 490 200 c 2
 490 188 l 2
EndSplineSet
AlternateSubs2: "'aalt' Access All Alternates lookup 0 subtable" endash.u
AlternateSubs2: "'aalt' Access All Alternates in Latin lookup 0 subtable" endash.u
Substitution2: "'case' Case-Sensitive Forms in Latin lookup 6 subtable" endash.u
EndChar

StartChar: OE
Encoding: 338 338 105
Width: 1029
VWidth: 0
Flags: W
HStem: -11 27<310.192 501.097> 0 34<600.332 928.075> 325 27<597.006 830.071> 407 20G<844 851.5> 638 24<598.035 789.604> 647 28<311.392 503.429>
VStem: 47 94<200.428 449.584> 519 78<65.9475 325 352 636.234> 831 31<250.108 321.59 355.349 426.965> 874 28<539.027 632.964 666.054 689.986> 932 31<37.1168 154.976>
LayerCount: 3
Fore
SplineSet
372 -11 m 0xb3e0
 212 -11 47 104 47 318 c 0
 47 534 203 675 387 675 c 0xb7e0
 450 675 512 662 560 662 c 0
 613 662 766 665 809 665 c 0
 876 665 874 666 876 678 c 0
 877 688 881 690 889 690 c 0
 903 690 906 689 906 679 c 0
 906 660 902 627 902 549 c 0
 902 541 900 539 886 539 c 0
 874 539 871 543 871 553 c 0
 871 558 874 625 874 631 c 0
 874 635 713 638 602 638 c 0
 596 638 595 588 595 510 c 0
 595 467 596 418 597 368 c 0
 597 355 597 352 609 352 c 2
 776 352 l 2
 794 352 831 352 831 368 c 2
 831 418 l 2
 831 424 840 427 848 427 c 0
 855 427 862 424 862 419 c 0
 862 410 860 377 860 341 c 0
 860 305 862 271 862 258 c 0
 862 253 856 250 849 250 c 0
 841 250 831 253 831 259 c 2
 831 305 l 2
 831 315 830 325 776 325 c 2
 613 325 l 2
 597 325 597 325 597 310 c 0
 600 167 597 34 603 34 c 0
 701 34 906 37 910 37 c 0
 926 37 927 37 929 60 c 0
 931 85 931 108 932 147 c 0
 932 153 938 155 946 155 c 0
 955 155 963 153 963 146 c 0
 963 96 960 38 960 8 c 0
 960 -1 948 -3 938 -3 c 0
 915 -3 598 0 568 0 c 0x7be0
 480 0 455 -11 372 -11 c 0xb3e0
141 345 m 0
 141 201 197 79 294 35 c 0
 331 18 377 16 427 16 c 0
 490 16 519 35 519 45 c 0
 519 87 518 152 518 198 c 0
 518 309 514 486 514 492 c 2
 514 585 l 2
 514 644 504 636 454 644 c 0
 436 647 412 647 380 647 c 0
 237 647 141 500 141 345 c 0
EndSplineSet
AlternateSubs2: "'aalt' Access All Alternates lookup 0 subtable" OE.c2
AlternateSubs2: "'aalt' Access All Alternates in Latin lookup 0 subtable" OE.c2
Substitution2: "'c2sc' Capitals to Small Capitals in Latin lookup 5 subtable" OE.c2
EndChar

StartChar: AE
Encoding: 198 198 106
Width: 998
VWidth: 0
Flags: W
HStem: -3 30<33.0144 94.3962 141 215.991 421.003 504.554> 0 34<593.69 916.075> 275 24<292.003 505.545> 325 27<585.006 818.071> 407 20G<832 839.5> 636 29<387.003 446.094 480.001 498.934 585.567 782.46>
VStem: 506 79<65.9475 274.924 299.09 325 352 635.699> 819 31<250.108 321.59 355.349 426.965> 862 28<539.027 632.964 666.054 689.986> 920 31<37.1168 154.976>
DStem2: 232 266 136 33 0.523173 0.852227<-205.693 -43.0352 65.6017 351.583> 453 626 480 626 0.523173 0.852227<-356.821 0>
LayerCount: 3
Fore
SplineSet
848 341 m 0xbfc0
 848 305 850 271 850 258 c 0
 850 253 844 250 837 250 c 0
 829 250 819 253 819 259 c 2
 819 305 l 2
 819 315 818 325 764 325 c 2
 601 325 l 2
 585 325 585 325 585 310 c 0
 588 167 591 34 597 34 c 0x7fc0
 695 34 894 37 898 37 c 0
 914 37 915 37 917 60 c 0
 919 85 919 108 920 147 c 0
 920 153 926 155 934 155 c 0
 943 155 951 153 951 146 c 0
 951 96 948 38 948 8 c 0
 948 -1 936 -3 926 -3 c 0xbfc0
 903 -3 586 0 556 0 c 0x7fc0
 526 0 457 -3 434 -3 c 0
 421 -3 421 -2 421 15 c 0
 421 27 422 27 438 27 c 2
 499 27 l 2
 505 27 506 47 506 102 c 2
 506 260 l 2
 506 275 493 275 476 275 c 2
 275 275 l 2
 269 275 154 71 136 33 c 0
 132 25 134 27 141 27 c 2
 205 27 l 2
 216 27 216 26 216 14 c 0
 216 -1 215 -3 205 -3 c 0xbfc0
 182 -3 148 0 118 0 c 0x7fc0
 88 0 70 -3 47 -3 c 0
 34 -3 33 -2 33 15 c 0
 33 27 35 27 51 27 c 2
 79 27 l 2
 93 27 152 136 232 266 c 2
 453 626 l 2
 459 636 460 636 444 636 c 2
 399 636 l 2
 390 636 387 638 387 651 c 0
 387 663 391 665 399 665 c 0
 406 665 451 662 548 662 c 0
 601 662 754 665 797 665 c 0
 864 665 862 666 864 678 c 0
 865 688 869 690 877 690 c 0
 891 690 894 689 894 679 c 0
 894 660 890 627 890 549 c 0
 890 541 888 539 874 539 c 0
 862 539 859 543 859 553 c 0
 859 558 862 625 862 631 c 0
 862 635 701 638 590 638 c 0
 584 638 583 588 583 510 c 0
 583 467 584 418 585 368 c 0
 585 355 585 352 597 352 c 2
 764 352 l 2
 782 352 819 352 819 368 c 2
 819 418 l 2
 819 424 828 427 836 427 c 0
 843 427 850 424 850 419 c 0
 850 410 848 377 848 341 c 0xbfc0
506 411 m 2
 506 614 499 636 492 636 c 2
 491 636 l 2
 486 636 483 631 480 626 c 2
 298 320 l 2
 295 314 292 309 292 306 c 0
 292 302 296 299 308 299 c 2
 477 299 l 2
 503 299 506 301 506 319 c 2
 506 411 l 2
EndSplineSet
AlternateSubs2: "'aalt' Access All Alternates lookup 0 subtable" AE.c2
AlternateSubs2: "'aalt' Access All Alternates in Latin lookup 0 subtable" AE.c2
Substitution2: "'c2sc' Capitals to Small Capitals in Latin lookup 5 subtable" AE.c2
EndChar

StartChar: at
Encoding: 64 64 107
Width: 797
VWidth: 20
Flags: W
HStem: -113 29<263.254 468.752> 54 47<247.217 317.739> 54 30<397 507.506> 374 21<397.101 466.573> 400 20G<517 530.5> 560 28<366.652 566.688>
VStem: 47 34<88.0413 288.965> 201 67<107.185 210.19> 371 65<68 153.12> 457 92<336.5 412> 712 30<261.146 426.612>
LayerCount: 3
Fore
SplineSet
712 337 m 0xbfe0
 712 492 608 560 468 560 c 0
 263 560 81 401 81 181 c 0
 81 17 211 -84 353 -84 c 0
 490 -84 579 -34 663 44 c 0
 664 45 673 52 676 52 c 0
 685 52 690 41 690 38 c 0
 690 34 689 30 686 27 c 0
 603 -63 480 -113 350 -113 c 0
 193 -113 47 -8 47 187 c 0
 47 415 257 588 465 588 c 0
 607 588 742 524 742 344 c 0
 742 152 553 54 406 54 c 0
 388 54 371 60 371 76 c 0
 371 90 377 123 377 123 c 1
 377 123 316 56 259 56 c 0
 220 56 201 96 201 139 c 0
 201 205 308 395 451 395 c 0
 465 395 479 389 482 389 c 0
 484 389 486 392 496 404 c 0
 506 416 510 420 524 420 c 0
 537 420 549 417 549 407 c 0
 549 403 548 397 546 393 c 0
 520 337 436 149 436 115 c 0
 436 99 436 84 456 84 c 0
 511 84 584 118 644 178 c 0
 686 220 712 278 712 337 c 0xbfe0
268 147 m 0
 268 124 284 101 310 101 c 0xdfe0
 379 101 457 323 457 350 c 0
 457 365 440 374 425 374 c 0
 375 374 268 256 268 147 c 0
EndSplineSet
EndChar

StartChar: quotesingle
Encoding: 39 39 108
Width: 193
VWidth: 250
Flags: W
HStem: 497 191<77.7188 115.195>
VStem: 60 73<504.086 685.561> 77 39<497.009 642.421>
LayerCount: 3
Fore
SplineSet
133 643 m 0xc0
 133 632 116 534 116 525 c 0
 116 509 111 497 97 497 c 0
 80 497 77 510 77 525 c 0xa0
 77 534 60 636 60 643 c 0
 60 664 65 688 97 688 c 0
 129 688 133 663 133 643 c 0xc0
EndSplineSet
EndChar

StartChar: quotedbl
Encoding: 34 34 109
Width: 323
VWidth: 250
Flags: W
HStem: 497 191<77.7188 115.195 207.719 245.195>
VStem: 60 73<504.086 685.561> 77 39<497.009 642.421> 190 73<504.086 685.561> 207 39<497.009 642.421>
LayerCount: 3
Fore
SplineSet
263 643 m 0x90
 263 632 246 534 246 525 c 0
 246 509 241 497 227 497 c 0
 210 497 207 510 207 525 c 0x88
 207 534 190 636 190 643 c 0
 190 664 195 688 227 688 c 0
 259 688 263 663 263 643 c 0x90
133 643 m 0xc0
 133 632 116 534 116 525 c 0
 116 509 111 497 97 497 c 0
 80 497 77 510 77 525 c 0xa0
 77 534 60 636 60 643 c 0
 60 664 65 688 97 688 c 0
 129 688 133 663 133 643 c 0xc0
EndSplineSet
EndChar

StartChar: numbersign
Encoding: 35 35 110
Width: 476
VWidth: 488
Flags: W
HStem: 121 42<30.0001 121.999 172.451 277.913 327.028 445.98> 305 42<30.0175 147.998 199.001 303 354.001 445.89>
VStem: 122 42<-35.5 120.692> 129 43<163 295.956> 148 42<168.29 305> 157 42<347 497.532> 278 42<-34.4978 121> 312 42<347 504.36>
LayerCount: 3
Fore
SplineSet
30 139 m 0xe2
 30 140 30 141 30 142 c 0
 30 156 30 163 44 163 c 2
 126 163 l 2
 128 163 129 163 129 165 c 0xd0
 135 210 148 295 148 300 c 0
 148 304 145 305 141 305 c 2
 46 305 l 2
 36 305 30 307 30 325 c 0
 30 339 33 347 46 347 c 2
 148 347 l 2xc8
 154 347 157 349 157 354 c 0
 183 540 180 538 183 543 c 0
 187 549 191 550 205 550 c 0
 212 550 225 549 225 538 c 0
 225 532 199 358 199 352 c 0
 199 348 200 347 205 347 c 2
 303 347 l 2
 307 347 311 348 312 354 c 0
 338 540 337 540 340 544 c 0
 344 550 351 550 363 550 c 0
 371 550 379 550 379 540 c 0
 379 531 354 361 354 352 c 0xc5
 354 349 355 347 359 347 c 2
 428 347 l 2
 442 347 446 339 446 322 c 0
 446 307 440 305 431 305 c 2
 350 305 l 2
 346 305 346 302 345 299 c 1
 339 256 327 173 327 169 c 0
 327 165 329 163 334 163 c 2
 429 163 l 2
 439 163 446 161 446 143 c 0
 446 128 442 121 429 121 c 2
 331 121 l 2
 322 121 321 117 320 111 c 0
 295 -66 302 -66 274 -66 c 0
 260 -66 255 -60 255 -53 c 0
 255 -47 278 110 278 115 c 0
 278 120 275 121 271 121 c 2
 205 121 l 2
 166 121 165 119 164 113 c 0
 141 -58 141 -55 140 -58 c 0
 136 -64 131 -66 117 -66 c 0
 108 -66 99 -63 99 -53 c 0
 99 -47 122 109 122 114 c 0
 122 119 120 121 114 121 c 2
 44 121 l 2
 31 121 30 129 30 139 c 0xe2
172 168 m 0
 172 164 175 163 180 163 c 2
 275 163 l 2
 279 163 284 163 285 170 c 0
 298 265 303 292 303 300 c 0
 303 303 303 305 297 305 c 2
 199 305 l 2xc4
 193 305 191 302 190 298 c 0xc8
 184 255 172 173 172 168 c 0
EndSplineSet
EndChar

StartChar: plus
Encoding: 43 43 111
Width: 527
VWidth: 488
Flags: W
HStem: -22 21G<256 271.5> 188 44<31.0031 241 286.086 495.999>
VStem: 241 45<-21.9956 187.996 232 441.995>
LayerCount: 3
Fore
SplineSet
31 212 m 0
 31 225 31 232 49 232 c 2
 219 232 l 2
 238 232 241 240 241 251 c 2
 241 427 l 2
 241 442 248 442 262 442 c 0
 276 442 286 442 286 422 c 2
 286 259 l 2
 286 245 287 232 303 232 c 2
 480 232 l 2
 496 232 496 225 496 211 c 0
 496 194 496 188 475 188 c 2
 303 188 l 2
 286 188 286 182 286 170 c 2
 286 -5 l 2
 286 -22 277 -22 266 -22 c 0
 246 -22 241 -22 241 -4 c 2
 241 170 l 2
 241 188 234 188 217 188 c 2
 48 188 l 2
 30 188 31 195 31 212 c 0
EndSplineSet
EndChar

StartChar: slash
Encoding: 47 47 112
Width: 466
VWidth: 488
Flags: W
DStem2: 59 -163 98 -202 0.346165 0.938174<-59.6435 929.712>
LayerCount: 3
Fore
SplineSet
40 -220 m 0
 40 -211 51 -186 59 -163 c 2
 59 -163 374 680 376 687 c 0
 381 702 387 705 405 705 c 0
 414 705 426 703 426 693 c 0
 426 684 417 662 412 649 c 2
 98 -202 l 2
 87 -233 81 -233 66 -233 c 0
 54 -233 40 -233 40 -220 c 0
EndSplineSet
EndChar

StartChar: less
Encoding: 60 60 113
Width: 527
VWidth: 488
Flags: W
HStem: 361 20G<465 472.5>
VStem: 41 73<196.818 221.005>
LayerCount: 3
Fore
SplineSet
41 211 m 0
 41 221 41 225 56 231 c 0
 463 379 462 381 468 381 c 0
 477 381 487 377 487 356 c 0
 487 347 479 343 471 340 c 2
 156 229 l 2
 137 222 114 213 114 208 c 0
 114 203 136 197 156 190 c 2
 476 78 l 2
 482 76 487 72 487 65 c 0
 487 57 481 41 463 41 c 0
 457 41 460 41 55 188 c 0
 41 193 41 197 41 211 c 0
EndSplineSet
EndChar

StartChar: equal
Encoding: 61 61 114
Width: 527
VWidth: 488
Flags: W
HStem: 110 45<31.0031 495.998> 266 44<31.0031 495.999>
LayerCount: 3
Fore
SplineSet
31 134 m 0
 31 147 31 155 49 155 c 2
 480 155 l 2
 496 155 496 148 496 134 c 0
 496 117 496 110 475 110 c 2
 48 110 l 2
 30 110 31 117 31 134 c 0
31 290 m 0
 31 303 31 310 49 310 c 2
 480 310 l 2
 496 310 496 303 496 289 c 0
 496 272 496 266 475 266 c 2
 48 266 l 2
 30 266 31 273 31 290 c 0
EndSplineSet
EndChar

StartChar: greater
Encoding: 62 62 115
Width: 527
VWidth: 488
Flags: W
HStem: 361 20G<54.5 62>
VStem: 414 73<196.818 221.005>
LayerCount: 3
Fore
SplineSet
41 65 m 0
 41 72 45 76 51 78 c 2
 372 190 l 2
 392 197 414 203 414 208 c 0
 414 213 391 222 372 229 c 2
 56 340 l 2
 48 343 41 347 41 356 c 0
 41 377 50 381 59 381 c 0
 65 381 64 379 471 231 c 0
 486 225 487 221 487 211 c 0
 487 197 486 193 472 188 c 0
 67 41 70 41 64 41 c 0
 46 41 41 57 41 65 c 0
EndSplineSet
EndChar

StartChar: backslash
Encoding: 92 92 116
Width: 466
VWidth: 488
Flags: W
DStem2: 90 687 54 649 0.346165 -0.938174<-22.5304 966.825>
LayerCount: 3
Fore
SplineSet
426 -220 m 0
 426 -233 412 -233 400 -233 c 0
 385 -233 379 -233 368 -202 c 2
 54 649 l 2
 49 662 40 684 40 693 c 0
 40 703 52 705 61 705 c 0
 79 705 85 702 90 687 c 0
 92 680 407 -163 407 -163 c 2
 415 -186 426 -211 426 -220 c 0
EndSplineSet
EndChar

StartChar: guillemotleft
Encoding: 171 171 117
Width: 407
VWidth: 488
Flags: W
HStem: 62 262<183 186 333 336>
VStem: 50 86<169.727 216.273> 200 86<169.727 216.273>
LayerCount: 3
Fore
SplineSet
286 193 m 0
 286 181 348 82 348 74 c 0
 348 72 336 62 334 62 c 0
 333 62 293 103 255 138 c 0
 226 165 200 188 200 193 c 0
 200 198 226 221 255 248 c 0
 293 283 333 324 334 324 c 0
 336 324 348 314 348 312 c 0
 348 304 286 205 286 193 c 0
136 193 m 0
 136 181 198 82 198 74 c 0
 198 72 186 62 184 62 c 0
 183 62 143 103 105 138 c 0
 76 165 50 188 50 193 c 0
 50 198 76 221 105 248 c 0
 143 283 183 324 184 324 c 0
 186 324 198 314 198 312 c 0
 198 304 136 205 136 193 c 0
EndSplineSet
AlternateSubs2: "'aalt' Access All Alternates lookup 0 subtable" guillemotleft.u
AlternateSubs2: "'aalt' Access All Alternates in Latin lookup 0 subtable" guillemotleft.u
Substitution2: "'case' Case-Sensitive Forms in Latin lookup 6 subtable" guillemotleft.u
EndChar

StartChar: guillemotright
Encoding: 187 187 118
Width: 407
VWidth: 488
Flags: W
HStem: 62 262<62 65 212 215>
VStem: 112 86<169.727 216.273> 262 86<169.727 216.273>
LayerCount: 3
Fore
SplineSet
112 193 m 4
 112 205 50 304 50 312 c 4
 50 314 62 324 64 324 c 4
 65 324 105 283 143 248 c 4
 172 221 198 198 198 193 c 4
 198 188 172 165 143 138 c 4
 105 103 65 62 64 62 c 4
 62 62 50 72 50 74 c 4
 50 82 112 181 112 193 c 4
262 193 m 4
 262 205 200 304 200 312 c 4
 200 314 212 324 214 324 c 4
 215 324 255 283 293 248 c 4
 322 221 348 198 348 193 c 4
 348 188 322 165 293 138 c 4
 255 103 215 62 214 62 c 4
 212 62 200 72 200 74 c 4
 200 82 262 181 262 193 c 4
EndSplineSet
AlternateSubs2: "'aalt' Access All Alternates lookup 0 subtable" guillemotright.u
AlternateSubs2: "'aalt' Access All Alternates in Latin lookup 0 subtable" guillemotright.u
Substitution2: "'case' Case-Sensitive Forms in Latin lookup 6 subtable" guillemotright.u
EndChar

StartChar: multiply
Encoding: 215 215 119
Width: 527
VWidth: 488
Flags: W
HStem: 173 76<237.625 289.453> 364 20G<111.5 118 411.5 416>
VStem: 226 74<185.547 236.234>
DStem2: 130 376 95 347 0.705945 -0.708267<-15.4149 185.018 237.802 439.726> 97 74 127 42 0.705945 0.708267<-14.7207 187.138 242.646 441.773>
LayerCount: 3
Fore
SplineSet
429 344 m 2
 308 223 l 2
 303 218 300 213 300 210 c 0
 300 206 304 202 308 198 c 2
 432 74 l 2
 437 69 438 65 438 62 c 0
 438 54 419 35 412 35 c 0
 409 35 404 37 399 42 c 2
 276 166 l 2
 271 171 267 173 263 173 c 0
 258 173 254 169 247 162 c 2
 127 42 l 2
 122 37 118 35 115 35 c 0
 108 35 89 53 89 61 c 0
 89 65 92 69 97 74 c 2
 217 195 l 2
 223 201 226 206 226 210 c 0
 226 215 223 219 219 223 c 2
 95 347 l 2
 91 351 88 355 88 358 c 0
 88 365 107 384 116 384 c 0
 120 384 125 381 130 376 c 2
 246 261 l 2
 252 255 258 249 265 249 c 0
 268 249 272 250 276 254 c 2
 401 379 l 2
 405 383 410 385 413 385 c 0
 419 385 438 368 438 358 c 0
 438 355 435 350 429 344 c 2
EndSplineSet
EndChar

StartChar: divide
Encoding: 247 247 120
Width: 527
VWidth: 488
Flags: W
HStem: 60 81<222.31 293.681> 188 44<31.0031 495.999> 280 81<217.572 288.681>
VStem: 217 82<65.3547 135.681 288.56 353.256>
LayerCount: 3
Fore
SplineSet
31 212 m 0
 31 225 31 232 49 232 c 2
 480 232 l 2
 496 232 496 225 496 211 c 0
 496 194 496 188 475 188 c 2
 48 188 l 2
 30 188 31 195 31 212 c 0
212 320 m 0
 212 342 232 361 254 361 c 0
 276 361 294 343 294 321 c 0
 294 299 275 280 253 280 c 0
 231 280 212 298 212 320 c 0
217 101 m 0
 217 123 236 141 258 141 c 0
 280 141 299 122 299 100 c 0
 299 78 281 60 259 60 c 0
 237 60 217 78 217 101 c 0
EndSplineSet
EndChar

StartChar: guilsinglleft
Encoding: 8249 8249 121
Width: 243
VWidth: 488
Flags: W
HStem: 62 262<175 178>
VStem: 42 86<169.727 216.273>
LayerCount: 3
Fore
SplineSet
128 193 m 0
 128 181 190 82 190 74 c 0
 190 72 178 62 176 62 c 0
 175 62 135 103 97 138 c 0
 68 165 42 188 42 193 c 0
 42 198 68 221 97 248 c 0
 135 283 175 324 176 324 c 0
 178 324 190 314 190 312 c 0
 190 304 128 205 128 193 c 0
EndSplineSet
AlternateSubs2: "'aalt' Access All Alternates lookup 0 subtable" guilsinglleft.u
AlternateSubs2: "'aalt' Access All Alternates in Latin lookup 0 subtable" guilsinglleft.u
Substitution2: "'case' Case-Sensitive Forms in Latin lookup 6 subtable" guilsinglleft.u
EndChar

StartChar: guilsinglright
Encoding: 8250 8250 122
Width: 243
VWidth: 488
Flags: W
HStem: 62 262<54 57>
VStem: 104 86<169.727 216.273>
LayerCount: 3
Fore
SplineSet
104 193 m 0
 104 205 42 304 42 312 c 0
 42 314 54 324 56 324 c 0
 57 324 97 283 135 248 c 0
 164 221 190 198 190 193 c 0
 190 188 164 165 135 138 c 0
 97 103 57 62 56 62 c 0
 54 62 42 72 42 74 c 0
 42 82 104 181 104 193 c 0
EndSplineSet
AlternateSubs2: "'aalt' Access All Alternates lookup 0 subtable" guilsinglright.u
AlternateSubs2: "'aalt' Access All Alternates in Latin lookup 0 subtable" guilsinglright.u
Substitution2: "'case' Case-Sensitive Forms in Latin lookup 6 subtable" guilsinglright.u
EndChar

StartChar: minus
Encoding: 8722 8722 123
Width: 527
VWidth: 488
Flags: W
HStem: 188 44<31.0031 495.999>
LayerCount: 3
Fore
SplineSet
31 212 m 0
 31 225 31 232 49 232 c 2
 480 232 l 2
 496 232 496 225 496 211 c 0
 496 194 496 188 475 188 c 2
 48 188 l 2
 30 188 31 195 31 212 c 0
EndSplineSet
EndChar

StartChar: zero.u
Encoding: 65549 -1 124
Width: 513
VWidth: 0
Flags: W
HStem: -25 36<197.696 309.192> 591 37<204.902 312.566>
VStem: 44 70<148.941 452.216> 404 64<161.569 458.972>
LayerCount: 3
Fore
SplineSet
254 -25 m 0
 129 -25 44 111 44 305 c 0
 44 516 155 628 258 628 c 0
 379 628 468 510 468 312 c 0
 468 139 390 -25 254 -25 c 0
256 11 m 0
 366 11 404 192 404 316 c 0
 404 430 361 591 257 591 c 0
 171 591 114 458 114 288 c 0
 114 90 176 11 256 11 c 0
EndSplineSet
EndChar

StartChar: one.u
Encoding: 65550 -1 125
Width: 370
VWidth: 0
Flags: W
HStem: -3 30<69.0144 153.7 225.601 289.991> 583 27<66.0111 148.837>
VStem: 155 70<27 587.998>
LayerCount: 3
Fore
SplineSet
151 27 m 2
 155 27 155 85 155 110 c 2
 155 228 l 2
 155 345 153 511 151 568 c 0
 150 585 150 588 140 588 c 0
 135 588 76 583 72 583 c 0
 65 583 66 586 66 589 c 2
 66 602 l 2
 66 610 67 609 76 610 c 0
 116 613 213 619 219 619 c 0
 226 619 226 616 226 604 c 0
 226 406 225 250 225 66 c 0
 225 43 225 27 233 27 c 2
 279 27 l 2
 290 27 290 26 290 14 c 0
 290 -1 289 -3 279 -3 c 0
 263 -3 222 0 192 0 c 0
 162 0 106 -3 83 -3 c 0
 70 -3 69 -2 69 15 c 0
 69 27 71 27 87 27 c 2
 151 27 l 2
EndSplineSet
EndChar

StartChar: two.u
Encoding: 65551 -1 126
Width: 487
VWidth: 0
Flags: W
HStem: 0 58<113.001 417.452> 574 48<147.525 274.52>
VStem: 331 75<363.244 512.242>
LayerCount: 3
Fore
SplineSet
212 574 m 0
 114 574 59 478 54 478 c 0
 48 478 33 486 33 493 c 0
 33 508 119 622 231 622 c 0
 353 622 406 518 406 447 c 0
 406 300 204 156 146 110 c 0
 129 96 113 61 113 59 c 0
 113 58 115 58 120 58 c 2
 412 58 l 2
 416 58 426 142 430 142 c 0
 435 142 451 142 451 139 c 0
 451 132 438 45 430 6 c 0
 429 1 426 0 419 0 c 2
 73 0 l 2
 62 0 59 5 59 11 c 0
 59 17 115 113 120 117 c 0
 174 166 331 280 331 428 c 0
 331 496 293 574 212 574 c 0
EndSplineSet
EndChar

StartChar: three.u
Encoding: 65552 -1 127
Width: 459
VWidth: 0
Flags: W
HStem: -18 26<165.831 268.241> 286 40<113.347 201.868 210.011 296.73> 599 34<142.495 252.674>
VStem: 299 69<427.087 556.478> 347 64<90.8066 239.203>
LayerCount: 3
Fore
SplineSet
347 158 m 0xe8
 347 242 305 286 214 286 c 0
 188 286 137 281 128 281 c 0
 116 281 118 289 115 298 c 0
 114 301 113 307 113 310 c 0
 113 322 123 321 134 324 c 0
 243 350 299 392 299 492 c 0
 299 546 256 599 202 599 c 0
 131 599 91 538 85 538 c 0
 77 538 66 548 66 556 c 0
 66 569 135 633 218 633 c 0
 304 633 368 577 368 502 c 0xf0
 368 431 315 376 260 351 c 0
 233 339 210 331 210 329 c 0
 210 326 225 328 254 326 c 0
 340 320 411 288 411 175 c 0
 411 59 304 -18 200 -18 c 0
 149 -18 64 -12 64 17 c 0
 64 27 83 47 104 47 c 0
 122 47 125 43 141 34 c 0
 162 21 191 8 211 8 c 0
 298 8 347 76 347 158 c 0xe8
EndSplineSet
EndChar

StartChar: four.u
Encoding: 65553 -1 128
Width: 496
VWidth: 0
Flags: W
HStem: -11 21G<301.5 311.5> 201 54<96.0037 301.999 365.275 453>
VStem: 49 47<205.5 272.602> 302 61<-6.9531 201 255 543.995>
LayerCount: 3
Fore
SplineSet
363 599 m 2
 363 273 l 2
 363 255 364 255 378 255 c 2
 446 255 l 2
 452 255 453 255 453 245 c 2
 453 211 l 2
 453 201 453 201 441 201 c 2
 379 201 l 2
 365 201 364 201 365 187 c 0
 368 126 369 7 369 2 c 0
 369 -5 368 -6 365 -7 c 0
 359 -9 319 -11 304 -11 c 0
 299 -11 299 -6 299 2 c 2
 302 186 l 2
 302 201 301 201 286 201 c 2
 67 201 l 2
 59 201 49 202 49 209 c 0
 49 220 50 238 65 264 c 0
 107 337 202 472 269 559 c 0
 283 577 297 580 308 590 c 0
 329 610 344 628 352 628 c 0
 360 628 363 618 363 599 c 2
116 255 m 2
 283 255 l 2
 301 255 302 256 302 275 c 2
 302 518 l 2
 302 537 302 544 299 544 c 0
 291 544 154 346 109 281 c 0
 104 274 96 264 96 259 c 0
 96 255 101 255 116 255 c 2
EndSplineSet
EndChar

StartChar: five.u
Encoding: 65554 -1 129
Width: 408
VWidth: 0
Flags: W
HStem: -34 30<52.0059 151.255> 338 53<90.0022 216.157> 546 61<101.348 331.163> 558 60<102.624 318.298>
VStem: 294 66<106.746 273.33> 332 29<607.013 639.948>
LayerCount: 3
Fore
SplineSet
360 198 m 0xd8
 360 -11 95 -34 60 -34 c 0
 54 -34 52 -29 52 -18 c 0
 52 -10 54 -5 60 -4 c 0
 135 7 294 8 294 194 c 0
 294 312 193 338 97 338 c 0
 87 338 78 337 68 337 c 0
 58 337 54 338 54 347 c 0
 54 361 71 532 81 612 c 0
 82 618 91 618 97 618 c 0xd8
 102 618 160 607 326 607 c 0
 331 607 331 625 332 635 c 0
 332 640 337 640 343 640 c 2
 351 640 l 2
 361 640 361 639 361 631 c 0
 361 627 359 588 358 563 c 0
 357 548 350 546 324 546 c 0xe4
 246 546 185 551 114 558 c 0
 104 559 105 560 104 551 c 0
 102 534 90 409 90 402 c 0
 90 394 93 391 101 391 c 0
 112 392 123 392 135 392 c 0
 256 392 360 353 360 198 c 0xd8
EndSplineSet
EndChar

StartChar: six.u
Encoding: 65555 -1 130
Width: 496
VWidth: 0
Flags: W
HStem: -22 26<198.852 302.989> 322 30<156.945 300.326>
VStem: 45 71<96.4005 296.37> 371 69<78.5557 259.277>
LayerCount: 3
Fore
SplineSet
249 -22 m 0
 137 -22 45 48 45 218 c 0
 45 514 344 637 360 637 c 0
 364 637 374 620 374 616 c 0
 374 608 366 606 354 599 c 0
 230 527 174 453 141 367 c 0
 139 361 131 339 131 332 c 0
 131 327 134 330 143 333 c 0
 172 342 210 352 252 352 c 0
 363 352 440 284 440 171 c 0
 440 54 357 -22 249 -22 c 0
116 222 m 0
 116 110 146 4 258 4 c 0
 331 4 371 81 371 158 c 0
 371 278 314 322 228 322 c 0
 205 322 179 320 153 313 c 0
 131 307 126 305 124 297 c 0
 119 276 116 248 116 222 c 0
EndSplineSet
EndChar

StartChar: seven.u
Encoding: 65556 -1 131
Width: 469
VWidth: 0
Flags: W
HStem: -25 21G<154 170> 560 58<84.9329 381.997>
VStem: 49 33<485 556.568 619.907 649.973> 119 64<-21.0347 71.75>
LayerCount: 3
Fore
SplineSet
251 618 m 2
 417 618 l 2
 429 618 434 613 434 606 c 0
 434 602 432 597 430 592 c 2
 367 455 l 2
 290 288 227 173 183 14 c 0
 173 -24 174 -25 166 -25 c 0
 142 -25 119 -15 119 -1 c 0
 119 27 163 136 220 254 c 0
 267 351 324 453 373 539 c 0
 378 548 382 554 382 557 c 0
 382 560 378 560 364 560 c 2
 165 560 l 2
 135 560 82 558 82 551 c 2
 82 493 l 2
 82 485 76 485 66 485 c 0
 60 485 49 485 49 491 c 0
 49 501 50 569 50 631 c 0
 50 649 52 650 69 650 c 0
 84 650 85 648 85 630 c 2
 85 622 l 2
 85 618 184 618 251 618 c 2
EndSplineSet
EndChar

StartChar: eight.u
Encoding: 65557 -1 132
Width: 447
VWidth: 0
Flags: W
HStem: -25 30<167.926 288.025> 610 32<168.709 281.983>
VStem: 47 53<65.5668 216.929> 59 55<424.627 559.503> 342 53<409.786 561.618> 350 64<66.9127 207.317>
LayerCount: 3
Fore
SplineSet
296 315 m 0xd8
 329 295 414 261 414 145 c 0
 414 50 330 -25 220 -25 c 0
 120 -25 47 45 47 140 c 0xe4
 47 226 122 280 158 298 c 0
 170 304 176 308 176 309 c 0
 176 310 168 313 155 322 c 0
 120 346 59 392 59 481 c 0
 59 572 135 642 226 642 c 0
 313 642 395 584 395 494 c 0
 395 398 330 357 296 332 c 0
 284 323 285 322 296 315 c 0xd8
227 5 m 0
 313 5 350 69 350 132 c 0
 350 225 281 256 220 289 c 0
 211 294 198 300 195 300 c 0
 191 300 173 287 160 278 c 0
 137 261 100 225 100 150 c 0
 100 66 150 5 227 5 c 0
275 342 m 0
 306 369 342 422 342 486 c 0
 342 574 278 610 223 610 c 0
 167 610 114 562 114 493 c 0xd8
 114 444 142 407 183 375 c 0
 207 356 254 330 260 330 c 0
 263 330 267 335 275 342 c 0
EndSplineSet
EndChar

StartChar: nine.u
Encoding: 65558 -1 133
Width: 496
VWidth: 0
Flags: W
HStem: -21 36<91.2637 180.576> 252 39<183.075 308.383> 600 36<182.109 299.424>
VStem: 47 68<359.844 525.177> 378 72<280.156 496.207>
LayerCount: 3
Fore
SplineSet
98 -21 m 0
 93 -21 91 -5 91 2 c 0
 91 12 96 11 121 15 c 0
 203 28 315 80 355 207 c 0
 363 233 369 259 371 291 c 0
 371 297 371 305 369 305 c 0
 367 305 351 295 342 289 c 0
 316 272 273 252 215 252 c 0
 115 252 47 340 47 439 c 0
 47 559 156 636 238 636 c 0
 349 636 450 542 450 375 c 0
 450 3 116 -21 98 -21 c 0
115 440 m 0
 115 365 166 291 254 291 c 0
 311 291 355 316 370 335 c 0
 377 344 378 370 378 391 c 0
 378 495 337 600 242 600 c 0
 168 600 115 534 115 440 c 0
EndSplineSet
EndChar

StartChar: quotesinglbase
Encoding: 8218 8218 138
Width: 179
VWidth: 0
Flags: W
HStem: -136 248
VStem: 90 50<-40.2241 39.5>
LayerCount: 3
Fore
SplineSet
42 50 m 0
 42 71 72 112 89 112 c 0
 97 112 140 52 140 27 c 0
 140 -45 44 -136 37 -136 c 0
 31 -136 21 -125 21 -118 c 0
 21 -114 90 -61 90 -28 c 0
 90 -2 42 24 42 50 c 0
EndSplineSet
EndChar

StartChar: quotereversed
Encoding: 8219 8219 139
Width: 184
VWidth: 0
Flags: W
HStem: 435 248
VStem: 21 50<530.776 610.5>
LayerCount: 3
Fore
SplineSet
119 621 m 0
 119 595 71 569 71 543 c 0
 71 510 140 457 140 453 c 0
 140 446 130 435 124 435 c 0
 117 435 21 526 21 598 c 0
 21 623 64 683 72 683 c 0
 89 683 119 642 119 621 c 0
EndSplineSet
EndChar

StartChar: quotedblbase
Encoding: 8222 8222 140
Width: 364
VWidth: 0
Flags: W
HStem: -136 248
VStem: 90 50<-40.2241 39.5> 275 50<-40.2241 39.5>
LayerCount: 3
Fore
SplineSet
42 50 m 0
 42 71 72 112 89 112 c 0
 97 112 140 52 140 27 c 0
 140 -45 44 -136 37 -136 c 0
 31 -136 21 -125 21 -118 c 0
 21 -114 90 -61 90 -28 c 0
 90 -2 42 24 42 50 c 0
227 50 m 0
 227 71 257 112 274 112 c 0
 282 112 325 52 325 27 c 0
 325 -45 229 -136 222 -136 c 0
 216 -136 206 -125 206 -118 c 0
 206 -114 275 -61 275 -28 c 0
 275 -2 227 24 227 50 c 0
EndSplineSet
EndChar

StartChar: uni201F
Encoding: 8223 8223 141
Width: 364
VWidth: 0
Flags: W
HStem: 435 248
VStem: 21 50<530.776 610.5> 206 50<530.776 610.5>
LayerCount: 3
Fore
SplineSet
304 621 m 0
 304 595 256 569 256 543 c 0
 256 510 325 457 325 453 c 0
 325 446 315 435 309 435 c 0
 302 435 206 526 206 598 c 0
 206 623 249 683 257 683 c 0
 274 683 304 642 304 621 c 0
119 621 m 0
 119 595 71 569 71 543 c 0
 71 510 140 457 140 453 c 0
 140 446 130 435 124 435 c 0
 117 435 21 526 21 598 c 0
 21 623 64 683 72 683 c 0
 89 683 119 642 119 621 c 0
EndSplineSet
EndChar

StartChar: acutecomb
Encoding: 769 769 142
Width: 0
VWidth: 0
Flags: W
HStem: 449 163
VStem: -164 66<587 609.847>
AnchorPoint: "top" -200 500 mark 0
LayerCount: 3
Fore
SplineSet
-213 457 m 2
 -164 587 l 2
 -158 603 -148 612 -134 612 c 0
 -111 612 -98 598 -98 582 c 0
 -98 575 -100 569 -105 562 c 2
 -187 455 l 2
 -190 451 -192 449 -195 449 c 2
 -211 449 l 2
 -214 449 -215 450 -215 451 c 0
 -215 452 -214 455 -213 457 c 2
EndSplineSet
EndChar

StartChar: uni0302
Encoding: 770 770 144
Width: 0
VWidth: 0
Flags: W
HStem: 459 140
VStem: -310 220<460 462>
AnchorPoint: "top" -200 500 mark 0
LayerCount: 3
Fore
SplineSet
-307 467 m 2
 -228 586 l 2
 -220 598 -220 599 -210 599 c 2
 -190 599 l 2
 -180 599 -180 598 -172 586 c 2
 -93 467 l 2
 -91 464 -90 462 -90 461 c 0
 -90 460 -91 459 -95 459 c 2
 -107 459 l 2
 -108 459 -110 461 -115 465 c 2
 -196 535 l 2
 -200 538 -200 538 -204 535 c 2
 -285 465 l 2
 -289 461 -292 459 -293 459 c 2
 -305 459 l 2
 -308 459 -310 460 -310 461 c 0
 -310 462 -309 464 -307 467 c 2
EndSplineSet
EndChar

StartChar: gravecomb
Encoding: 768 768 145
Width: 0
VWidth: 0
Flags: W
HStem: 449 163
VStem: -302 66<587 609.847>
AnchorPoint: "top" -200 500 mark 0
LayerCount: 3
Fore
SplineSet
-187 457 m 2
 -186 455 -185 452 -185 451 c 0
 -185 450 -186 449 -189 449 c 2
 -205 449 l 2
 -208 449 -210 451 -213 455 c 2
 -295 562 l 2
 -300 569 -302 575 -302 582 c 0
 -302 598 -289 612 -266 612 c 0
 -252 612 -242 603 -236 587 c 2
 -187 457 l 2
EndSplineSet
Layer: 2
SplineSet
-187 457 m 6
 -186 455 -185 452 -185 451 c 4
 -185 450 -186 449 -189 449 c 6
 -200 449 l 6
 -203 449 -205 451 -208 455 c 6
 -291 570 l 6
 -296 577 -299 583 -299 589 c 4
 -299 603 -285 612 -271 612 c 4
 -261 612 -250 607 -244 594 c 6
 -187 457 l 6
EndSplineSet
EndChar

StartChar: dotlessi
Encoding: 305 305 185
Width: 252
VWidth: 0
Flags: W
HStem: -2 27<27.0008 93.0461 165 221.999> 355 23<25.4111 89.5645>
VStem: 94 68<25 354.999>
AnchorPoint: "top" 113 500 basechar 0
LayerCount: 3
Fore
SplineSet
93 37 m 0
 94 66 94 95 94 125 c 0
 94 195 93 266 90 339 c 0
 89 354 87 355 77 355 c 0
 74 355 31 353 27 353 c 0
 24 353 23 354 23 357 c 0
 23 360 23 362 27 370 c 0
 31 378 30 377 42 378 c 0
 61 379 150 383 155 383 c 0
 161 383 162 382 162 377 c 2
 162 207 l 2
 162 150 162 94 165 37 c 0
 165 28 165 25 175 25 c 2
 211 25 l 2
 221 25 222 21 222 12 c 0
 222 3 222 -2 211 -2 c 0
 192 -2 152 0 127 0 c 0
 102 0 57 -2 38 -2 c 0
 27 -2 27 1 27 12 c 0
 27 21 28 25 41 25 c 2
 82 25 l 2
 93 25 93 27 93 37 c 0
EndSplineSet
EndChar

StartChar: uni0237
Encoding: 567 567 192
Width: 268
VWidth: 0
Flags: W
HStem: -275 73<-0.427219 74.476> 348 25<30.798 109.852>
VStem: 112 72<24.8396 347.999> 121 63<-181 201.017>
AnchorPoint: "top" 119 500 basechar 0
LayerCount: 3
Fore
SplineSet
28 -202 m 0xe0
 49 -202 73 -206 83 -206 c 0
 111 -206 121 -189 121 -173 c 0xd0
 121 -134 112 -41 112 258 c 0
 112 282 112 307 110 334 c 0
 109 346 107 348 101 348 c 0
 94 348 40 345 31 345 c 0
 28 345 28 346 28 349 c 0
 28 352 30 359 32 364 c 0
 35 372 33 373 47 373 c 0
 98 374 167 378 172 378 c 0
 179 378 179 370 179 355 c 0
 180 266 184 155 184 27 c 0
 184 -80 177 -155 130 -216 c 0
 112 -239 35 -275 6 -275 c 0
 -7 -275 -13 -266 -13 -255 c 0
 -13 -233 13 -202 28 -202 c 0xe0
EndSplineSet
EndChar

StartChar: tildecomb
Encoding: 771 771 204
Width: 0
VWidth: 0
Flags: W
HStem: 496 45<-199.556 -125.363> 533 46<-277.352 -204.981>
VStem: -305 207
AnchorPoint: "top" -200 500 mark 0
LayerCount: 3
Fore
SplineSet
-105 583 m 0xa0
 -101 583 -98 583 -98 581 c 0
 -98 574 -102 562 -105 554 c 0
 -118 520 -139 496 -165 496 c 0xa0
 -200 496 -221 533 -253 533 c 0x60
 -275 533 -282 516 -287 502 c 0
 -289 496 -290 496 -298 496 c 0xa0
 -302 496 -305 496 -305 498 c 0
 -305 503 -300 517 -297 524 c 0
 -281 562 -257 579 -241 579 c 0x60
 -210 579 -179 541 -153 541 c 0
 -131 541 -123 561 -117 576 c 0
 -115 583 -114 583 -105 583 c 0xa0
EndSplineSet
EndChar

StartChar: uni0304
Encoding: 772 772 205
Width: 0
VWidth: 0
Flags: W
HStem: 509 40<-302 -98>
VStem: -302 204<509 549>
AnchorPoint: "top" -200 500 mark 0
LayerCount: 3
Fore
SplineSet
-293 549 m 2
 -106 549 l 2
 -99 549 -98 549 -98 542 c 2
 -98 517 l 2
 -98 509 -98 509 -106 509 c 2
 -293 509 l 2
 -302 509 -302 509 -302 518 c 2
 -302 541 l 2
 -302 549 -301 549 -293 549 c 2
EndSplineSet
EndChar

StartChar: uni0306
Encoding: 774 774 206
Width: 0
VWidth: 0
Flags: W
HStem: 459 53<-260.959 -139.263>
VStem: -303 28<534.031 569.567> -125 28<534.427 569.567>
AnchorPoint: "top" -200 500 mark 0
LayerCount: 3
Fore
SplineSet
-302 586 m 2
 -285 586 l 2
 -284 586 -283 570 -275 553 c 0
 -263 530 -245 512 -200 512 c 0
 -155 512 -137 530 -125 553 c 0
 -117 570 -116 586 -115 586 c 2
 -98 586 l 2
 -97 586 -97 583 -97 580 c 0
 -97 523 -128 459 -200 459 c 0
 -273 459 -303 523 -303 579 c 0
 -303 583 -303 586 -302 586 c 2
EndSplineSet
EndChar

StartChar: uni0307
Encoding: 775 775 207
Width: 0
VWidth: 0
Flags: W
HStem: 492 96<-238.344 -162.791>
VStem: -251 102<506.348 574>
AnchorPoint: "top" -200 500 mark 0
LayerCount: 3
Fore
SplineSet
-149 548 m 0
 -149 514 -182 492 -210 492 c 0
 -231 492 -251 505 -251 533 c 0
 -251 569 -215 588 -191 588 c 0
 -170 588 -149 577 -149 548 c 0
EndSplineSet
EndChar

StartChar: uni0308
Encoding: 776 776 208
Width: 0
VWidth: 0
Flags: W
HStem: 492 96<-318.344 -242.791 -158.344 -82.7911>
VStem: -331 102<506.348 574> -171 102<506.348 574>
AnchorPoint: "top" -200 500 mark 0
LayerCount: 3
Fore
SplineSet
-69 548 m 0
 -69 514 -102 492 -130 492 c 0
 -151 492 -171 505 -171 533 c 0
 -171 569 -135 588 -111 588 c 0
 -90 588 -69 577 -69 548 c 0
-229 548 m 0
 -229 514 -262 492 -290 492 c 0
 -311 492 -331 505 -331 533 c 0
 -331 569 -295 588 -271 588 c 0
 -250 588 -229 577 -229 548 c 0
EndSplineSet
EndChar

StartChar: uni030A
Encoding: 778 778 209
Width: 0
VWidth: 0
Flags: W
HStem: 464 28<-231.303 -168.697> 578 28<-231.303 -168.697>
VStem: -271 28<503.697 566.303> -157 28<503.697 566.303>
AnchorPoint: "top" -200 500 mark 0
LayerCount: 3
Fore
SplineSet
-243 535 m 0
 -243 511 -224 492 -200 492 c 0
 -176 492 -157 511 -157 535 c 0
 -157 559 -176 578 -200 578 c 0
 -224 578 -243 559 -243 535 c 0
-271 535 m 0
 -271 574 -239 606 -200 606 c 0
 -161 606 -129 574 -129 535 c 0
 -129 496 -161 464 -200 464 c 0
 -239 464 -271 496 -271 535 c 0
EndSplineSet
EndChar

StartChar: uni030B
Encoding: 779 779 210
Width: 0
VWidth: 0
Flags: W
HStem: 449 163
VStem: -229 66<587 609.847> -119 66<587 609.847>
AnchorPoint: "top" -200 500 mark 0
LayerCount: 3
Fore
SplineSet
-278 457 m 2
 -229 587 l 2
 -223 603 -213 612 -199 612 c 0
 -176 612 -163 598 -163 582 c 0
 -163 575 -165 569 -170 562 c 2
 -252 455 l 2
 -255 451 -257 449 -260 449 c 2
 -276 449 l 2
 -279 449 -280 450 -280 451 c 0
 -280 452 -279 455 -278 457 c 2
-168 457 m 2
 -119 587 l 2
 -113 603 -103 612 -89 612 c 0
 -66 612 -53 598 -53 582 c 0
 -53 575 -55 569 -60 562 c 2
 -142 455 l 2
 -145 451 -147 449 -150 449 c 2
 -166 449 l 2
 -169 449 -170 450 -170 451 c 0
 -170 452 -169 455 -168 457 c 2
EndSplineSet
EndChar

StartChar: uni030C
Encoding: 780 780 211
Width: 0
VWidth: 0
Flags: W
HStem: 449 140
VStem: -310 220<586 588>
AnchorPoint: "top" -200 500 mark 0
LayerCount: 3
Fore
SplineSet
-93 581 m 2
 -172 462 l 2
 -180 450 -180 449 -190 449 c 2
 -210 449 l 2
 -220 449 -220 450 -228 462 c 2
 -307 581 l 2
 -309 584 -310 586 -310 587 c 0
 -310 588 -309 589 -305 589 c 2
 -293 589 l 2
 -292 589 -290 587 -285 583 c 2
 -204 513 l 2
 -200 510 -200 510 -196 513 c 2
 -115 583 l 2
 -111 587 -108 589 -107 589 c 2
 -95 589 l 2
 -92 589 -90 588 -90 587 c 0
 -90 586 -91 584 -93 581 c 2
EndSplineSet
EndChar

StartChar: gravecomb.cap
Encoding: 65560 -1 239
Width: 0
VWidth: 0
Flags: W
HStem: 449 118
VStem: -309 119
AnchorPoint: "top" -200 500 mark 0
LayerCount: 3
Fore
SplineSet
-192 457 m 2
 -191 455 -190 453 -190 451 c 0
 -190 450 -191 449 -194 449 c 2
 -215 449 l 2
 -218 449 -219 452 -223 455 c 2
 -295 515 l 2
 -304 522 -309 532 -309 542 c 0
 -309 555 -300 567 -279 567 c 0
 -264 567 -254 556 -245 542 c 2
 -192 457 l 2
EndSplineSet
EndChar

StartChar: acutecomb.cap
Encoding: 65561 -1 245
Width: 0
VWidth: 0
Flags: W
HStem: 449 118
VStem: -210 119
AnchorPoint: "top" -200 500 mark 0
LayerCount: 3
Fore
SplineSet
-208 457 m 2
 -155 542 l 2
 -146 556 -136 567 -121 567 c 0
 -100 567 -91 555 -91 542 c 0
 -91 532 -96 522 -105 515 c 2
 -177 455 l 2
 -181 452 -182 449 -185 449 c 2
 -206 449 l 2
 -209 449 -210 450 -210 451 c 0
 -210 453 -209 455 -208 457 c 2
EndSplineSet
EndChar

StartChar: uni0302.cap
Encoding: 65562 -1 259
Width: 0
VWidth: 0
Flags: W
HStem: 449 110
VStem: -311 222<450 452>
AnchorPoint: "top" -200 500 mark 0
LayerCount: 3
Fore
SplineSet
-307 457 m 2
 -228 546 l 2
 -218 557 -217 559 -212 559 c 2
 -188 559 l 2
 -183 559 -182 557 -172 546 c 2
 -93 457 l 2
 -91 455 -89 452 -89 451 c 0
 -89 450 -91 449 -95 449 c 2
 -104 449 l 2
 -105 449 -110 452 -115 455 c 2
 -196 500 l 2
 -198 501 -202 501 -204 500 c 2
 -285 455 l 2
 -290 452 -295 449 -296 449 c 2
 -305 449 l 2
 -309 449 -311 450 -311 451 c 0
 -311 452 -309 454 -307 457 c 2
EndSplineSet
EndChar

StartChar: uni030C.cap
Encoding: 65563 -1 273
Width: 0
VWidth: 0
Flags: W
HStem: 449 110
VStem: -311 222<556 558>
AnchorPoint: "top" -200 500 mark 0
LayerCount: 3
Fore
SplineSet
-93 551 m 2
 -172 462 l 2
 -182 451 -183 449 -188 449 c 2
 -212 449 l 2
 -217 449 -218 451 -228 462 c 2
 -307 551 l 2
 -309 553 -311 556 -311 557 c 0
 -311 558 -309 559 -305 559 c 2
 -296 559 l 2
 -295 559 -290 556 -285 553 c 2
 -204 508 l 2
 -202 507 -198 507 -196 508 c 2
 -115 553 l 2
 -110 556 -105 559 -104 559 c 2
 -95 559 l 2
 -91 559 -89 558 -89 557 c 0
 -89 556 -91 554 -93 551 c 2
EndSplineSet
EndChar

StartChar: uni0304.cap
Encoding: 65564 -1 282
Width: 0
VWidth: 0
Flags: W
HStem: 499 40<-302 -98>
VStem: -302 204<499 539>
AnchorPoint: "top" -200 500 mark 0
LayerCount: 3
Fore
SplineSet
-293 539 m 2
 -106 539 l 2
 -99 539 -98 539 -98 532 c 2
 -98 507 l 2
 -98 499 -98 499 -106 499 c 2
 -293 499 l 2
 -302 499 -302 499 -302 508 c 2
 -302 531 l 2
 -302 539 -301 539 -293 539 c 2
EndSplineSet
EndChar

StartChar: uni0306.cap
Encoding: 65565 -1 288
Width: 0
VWidth: 0
Flags: W
HStem: 449 50<-268.071 -131.929>
VStem: -303 206<495 555>
AnchorPoint: "top" -200 500 mark 0
LayerCount: 3
Fore
SplineSet
-115 558 m 2
 -98 558 l 2
 -97 558 -97 555 -97 552 c 0
 -97 495 -129 449 -200 449 c 0
 -271 449 -303 495 -303 552 c 0
 -303 555 -303 558 -302 558 c 2
 -285 558 l 2
 -279 558 -292 499 -200 499 c 0
 -108 499 -121 558 -115 558 c 2
EndSplineSet
EndChar

